%TF.GenerationSoftware,KiCad,Pcbnew,5.1.6-c6e7f7d~86~ubuntu18.04.1*%
%TF.CreationDate,2020-05-26T14:20:14+02:00*%
%TF.ProjectId,moeder_milda_v01,6d6f6564-6572-45f6-9d69-6c64615f7630,rev?*%
%TF.SameCoordinates,Original*%
%TF.FileFunction,OtherDrawing,Comment*%
%FSLAX46Y46*%
G04 Gerber Fmt 4.6, Leading zero omitted, Abs format (unit mm)*
G04 Created by KiCad (PCBNEW 5.1.6-c6e7f7d~86~ubuntu18.04.1) date 2020-05-26 14:20:14*
%MOMM*%
%LPD*%
G01*
G04 APERTURE LIST*
%ADD10C,0.050000*%
%ADD11C,0.150000*%
%ADD12C,0.040000*%
G04 APERTURE END LIST*
D10*
X135000000Y-16000000D02*
G75*
G02*
X140000000Y-21000000I0J-5000000D01*
G01*
D11*
X81962504Y-110111526D02*
X82152980Y-110111425D01*
X82248193Y-110063755D01*
X82295787Y-110016111D01*
X82390949Y-109873203D01*
X82438467Y-109682702D01*
X82438265Y-109301750D01*
X82390595Y-109206537D01*
X82342951Y-109158943D01*
X82247688Y-109111375D01*
X82057212Y-109111476D01*
X81961999Y-109159145D01*
X81914405Y-109206790D01*
X81866836Y-109302053D01*
X81866963Y-109540148D01*
X81914632Y-109635361D01*
X81962277Y-109682955D01*
X82057540Y-109730523D01*
X82248016Y-109730422D01*
X82343229Y-109682753D01*
X82390823Y-109635108D01*
X82438391Y-109539845D01*
X83009820Y-109539542D02*
X82914556Y-109491973D01*
X82866912Y-109444379D01*
X82819243Y-109349167D01*
X82819217Y-109301548D01*
X82866786Y-109206284D01*
X82914380Y-109158640D01*
X83009592Y-109110970D01*
X83200069Y-109110869D01*
X83295332Y-109158438D01*
X83342976Y-109206032D01*
X83390646Y-109301244D01*
X83390671Y-109348863D01*
X83343103Y-109444127D01*
X83295509Y-109491771D01*
X83200296Y-109539441D01*
X83009820Y-109539542D01*
X82914607Y-109587211D01*
X82867013Y-109634856D01*
X82819445Y-109730119D01*
X82819546Y-109920595D01*
X82867215Y-110015808D01*
X82914860Y-110063402D01*
X83010123Y-110110970D01*
X83200599Y-110110869D01*
X83295812Y-110063200D01*
X83343406Y-110015555D01*
X83390974Y-109920292D01*
X83390873Y-109729816D01*
X83343204Y-109634603D01*
X83295559Y-109587009D01*
X83200296Y-109539441D01*
X83867240Y-110062896D02*
X83867266Y-110110515D01*
X83819697Y-110205779D01*
X83772103Y-110253423D01*
X84485783Y-109110187D02*
X84581021Y-109110137D01*
X84676284Y-109157705D01*
X84723928Y-109205299D01*
X84771598Y-109300512D01*
X84819318Y-109490963D01*
X84819444Y-109729058D01*
X84771926Y-109919559D01*
X84724358Y-110014823D01*
X84676764Y-110062467D01*
X84581551Y-110110136D01*
X84486313Y-110110187D01*
X84391050Y-110062618D01*
X84343406Y-110015025D01*
X84295736Y-109919812D01*
X84248016Y-109729361D01*
X84247890Y-109491266D01*
X84295408Y-109300764D01*
X84342976Y-109205501D01*
X84390570Y-109157857D01*
X84485783Y-109110187D01*
X85438163Y-109109682D02*
X85533402Y-109109631D01*
X85628665Y-109157200D01*
X85676309Y-109204793D01*
X85723979Y-109300006D01*
X85771699Y-109490457D01*
X85771825Y-109728552D01*
X85724307Y-109919054D01*
X85676739Y-110014317D01*
X85629145Y-110061961D01*
X85533932Y-110109631D01*
X85438694Y-110109682D01*
X85343431Y-110062113D01*
X85295786Y-110014519D01*
X85248117Y-109919306D01*
X85200397Y-109728856D01*
X85200270Y-109490760D01*
X85247788Y-109300259D01*
X85295357Y-109204996D01*
X85342951Y-109157351D01*
X85438163Y-109109682D01*
X86724408Y-110108999D02*
X86152980Y-110109303D01*
X86438694Y-110109151D02*
X86438163Y-109109151D01*
X86343001Y-109252059D01*
X86247813Y-109347347D01*
X86152601Y-109395017D01*
X87914884Y-110108368D02*
X87914530Y-109441701D01*
X87914581Y-109536939D02*
X87962175Y-109489295D01*
X88057388Y-109441625D01*
X88200245Y-109441550D01*
X88295508Y-109489118D01*
X88343178Y-109584331D01*
X88343456Y-110108140D01*
X88343178Y-109584331D02*
X88390746Y-109489068D01*
X88485959Y-109441398D01*
X88628816Y-109441322D01*
X88724079Y-109488891D01*
X88771749Y-109584103D01*
X88772027Y-110107913D01*
X89248217Y-110107660D02*
X89247864Y-109440994D01*
X89247914Y-109536232D02*
X89295508Y-109488587D01*
X89390721Y-109440918D01*
X89533578Y-109440842D01*
X89628841Y-109488411D01*
X89676511Y-109583623D01*
X89676789Y-110107433D01*
X89676511Y-109583623D02*
X89724079Y-109488360D01*
X89819292Y-109440690D01*
X89962149Y-109440615D01*
X90057413Y-109488183D01*
X90105082Y-109583396D01*
X90105360Y-110107205D01*
X135009693Y-108330998D02*
X37008693Y-108382998D01*
X135001000Y-91948000D02*
X135010004Y-108917418D01*
X37000000Y-92000000D02*
X37009004Y-108969418D01*
X37008693Y-108382998D02*
X38134885Y-107795980D01*
X37008693Y-108382998D02*
X38135508Y-108968821D01*
X135009693Y-108330998D02*
X133882878Y-107745175D01*
X135009693Y-108330998D02*
X133883501Y-108918016D01*
X154956695Y-52283243D02*
X154956705Y-52949909D01*
X153956699Y-52521352D01*
X154956713Y-53521338D02*
X154956714Y-53616576D01*
X154909097Y-53711815D01*
X154861478Y-53759434D01*
X154766241Y-53807055D01*
X154575765Y-53854677D01*
X154337670Y-53854680D01*
X154147193Y-53807064D01*
X154051954Y-53759446D01*
X154004335Y-53711827D01*
X153956714Y-53616590D01*
X153956713Y-53521352D01*
X154004331Y-53426113D01*
X154051949Y-53378493D01*
X154147186Y-53330873D01*
X154337662Y-53283251D01*
X154575757Y-53283248D01*
X154766234Y-53330864D01*
X154861473Y-53378482D01*
X154909093Y-53426100D01*
X154956713Y-53521338D01*
X154004343Y-54330875D02*
X153956724Y-54330876D01*
X153861486Y-54283258D01*
X153813866Y-54235640D01*
X153956731Y-54807066D02*
X153956734Y-54997542D01*
X154004354Y-55092780D01*
X154051974Y-55140398D01*
X154194832Y-55235634D01*
X154385309Y-55283251D01*
X154766262Y-55283245D01*
X154861499Y-55235625D01*
X154909117Y-55188005D01*
X154956735Y-55092766D01*
X154956732Y-54902290D01*
X154909112Y-54807053D01*
X154861492Y-54759434D01*
X154766254Y-54711817D01*
X154528158Y-54711820D01*
X154432921Y-54759440D01*
X154385302Y-54807060D01*
X154337685Y-54902299D01*
X154337687Y-55092775D01*
X154385308Y-55188013D01*
X154432928Y-55235631D01*
X154528166Y-55283249D01*
X154623417Y-56140390D02*
X153956750Y-56140400D01*
X155004366Y-55902290D02*
X154290076Y-55664204D01*
X154290085Y-56283252D01*
X154528188Y-56807058D02*
X154575806Y-56711819D01*
X154623424Y-56664200D01*
X154718661Y-56616579D01*
X154766280Y-56616579D01*
X154861519Y-56664196D01*
X154909139Y-56711815D01*
X154956759Y-56807052D01*
X154956762Y-56997528D01*
X154909144Y-57092767D01*
X154861526Y-57140387D01*
X154766288Y-57188007D01*
X154718669Y-57188008D01*
X154623431Y-57140390D01*
X154575811Y-57092772D01*
X154528191Y-56997534D01*
X154528188Y-56807058D01*
X154480567Y-56711821D01*
X154432948Y-56664202D01*
X154337709Y-56616585D01*
X154147233Y-56616587D01*
X154051995Y-56664208D01*
X154004377Y-56711827D01*
X153956759Y-56807066D01*
X153956762Y-56997542D01*
X154004382Y-57092780D01*
X154052002Y-57140398D01*
X154147241Y-57188016D01*
X154337717Y-57188013D01*
X154432954Y-57140393D01*
X154480573Y-57092773D01*
X154528191Y-56997534D01*
X153956781Y-58378495D02*
X154623448Y-58378485D01*
X154528210Y-58378487D02*
X154575830Y-58426105D01*
X154623450Y-58521343D01*
X154623452Y-58664200D01*
X154575834Y-58759438D01*
X154480597Y-58807059D01*
X153956787Y-58807066D01*
X154480597Y-58807059D02*
X154575836Y-58854677D01*
X154623456Y-58949914D01*
X154623458Y-59092771D01*
X154575840Y-59188010D01*
X154480603Y-59235630D01*
X153956793Y-59235638D01*
X153956800Y-59711828D02*
X154623467Y-59711819D01*
X154528229Y-59711820D02*
X154575848Y-59759438D01*
X154623469Y-59854676D01*
X154623471Y-59997533D01*
X154575853Y-60092772D01*
X154480616Y-60140392D01*
X153956806Y-60140400D01*
X154480616Y-60140392D02*
X154575855Y-60188010D01*
X154623475Y-60283247D01*
X154623477Y-60426104D01*
X154575859Y-60521343D01*
X154480622Y-60568964D01*
X153956812Y-60568971D01*
X153109636Y-91947745D02*
X153108636Y-20999745D01*
X135001000Y-91948000D02*
X153696057Y-91947736D01*
X135000000Y-21000000D02*
X153695057Y-20999736D01*
X153108636Y-20999745D02*
X153695073Y-22126240D01*
X153108636Y-20999745D02*
X152522231Y-22126257D01*
X153109636Y-91947745D02*
X153696041Y-90821233D01*
X153109636Y-91947745D02*
X152523199Y-90821250D01*
X149247047Y-52562619D02*
X149294666Y-52467380D01*
X149342285Y-52419761D01*
X149437523Y-52372142D01*
X149485142Y-52372142D01*
X149580380Y-52419761D01*
X149628000Y-52467380D01*
X149675619Y-52562619D01*
X149675619Y-52753095D01*
X149628000Y-52848333D01*
X149580380Y-52895952D01*
X149485142Y-52943571D01*
X149437523Y-52943571D01*
X149342285Y-52895952D01*
X149294666Y-52848333D01*
X149247047Y-52753095D01*
X149247047Y-52562619D01*
X149199428Y-52467380D01*
X149151809Y-52419761D01*
X149056571Y-52372142D01*
X148866095Y-52372142D01*
X148770857Y-52419761D01*
X148723238Y-52467380D01*
X148675619Y-52562619D01*
X148675619Y-52753095D01*
X148723238Y-52848333D01*
X148770857Y-52895952D01*
X148866095Y-52943571D01*
X149056571Y-52943571D01*
X149151809Y-52895952D01*
X149199428Y-52848333D01*
X149247047Y-52753095D01*
X148675619Y-53895952D02*
X148675619Y-53324523D01*
X148675619Y-53610238D02*
X149675619Y-53610238D01*
X149532761Y-53515000D01*
X149437523Y-53419761D01*
X149389904Y-53324523D01*
X148723238Y-54372142D02*
X148675619Y-54372142D01*
X148580380Y-54324523D01*
X148532761Y-54276904D01*
X149675619Y-54991190D02*
X149675619Y-55086428D01*
X149628000Y-55181666D01*
X149580380Y-55229285D01*
X149485142Y-55276904D01*
X149294666Y-55324523D01*
X149056571Y-55324523D01*
X148866095Y-55276904D01*
X148770857Y-55229285D01*
X148723238Y-55181666D01*
X148675619Y-55086428D01*
X148675619Y-54991190D01*
X148723238Y-54895952D01*
X148770857Y-54848333D01*
X148866095Y-54800714D01*
X149056571Y-54753095D01*
X149294666Y-54753095D01*
X149485142Y-54800714D01*
X149580380Y-54848333D01*
X149628000Y-54895952D01*
X149675619Y-54991190D01*
X149580380Y-55705476D02*
X149628000Y-55753095D01*
X149675619Y-55848333D01*
X149675619Y-56086428D01*
X149628000Y-56181666D01*
X149580380Y-56229285D01*
X149485142Y-56276904D01*
X149389904Y-56276904D01*
X149247047Y-56229285D01*
X148675619Y-55657857D01*
X148675619Y-56276904D01*
X149675619Y-57134047D02*
X149675619Y-56943571D01*
X149628000Y-56848333D01*
X149580380Y-56800714D01*
X149437523Y-56705476D01*
X149247047Y-56657857D01*
X148866095Y-56657857D01*
X148770857Y-56705476D01*
X148723238Y-56753095D01*
X148675619Y-56848333D01*
X148675619Y-57038809D01*
X148723238Y-57134047D01*
X148770857Y-57181666D01*
X148866095Y-57229285D01*
X149104190Y-57229285D01*
X149199428Y-57181666D01*
X149247047Y-57134047D01*
X149294666Y-57038809D01*
X149294666Y-56848333D01*
X149247047Y-56753095D01*
X149199428Y-56705476D01*
X149104190Y-56657857D01*
X148675619Y-58419761D02*
X149342285Y-58419761D01*
X149247047Y-58419761D02*
X149294666Y-58467380D01*
X149342285Y-58562619D01*
X149342285Y-58705476D01*
X149294666Y-58800714D01*
X149199428Y-58848333D01*
X148675619Y-58848333D01*
X149199428Y-58848333D02*
X149294666Y-58895952D01*
X149342285Y-58991190D01*
X149342285Y-59134047D01*
X149294666Y-59229285D01*
X149199428Y-59276904D01*
X148675619Y-59276904D01*
X148675619Y-59753095D02*
X149342285Y-59753095D01*
X149247047Y-59753095D02*
X149294666Y-59800714D01*
X149342285Y-59895952D01*
X149342285Y-60038809D01*
X149294666Y-60134047D01*
X149199428Y-60181666D01*
X148675619Y-60181666D01*
X149199428Y-60181666D02*
X149294666Y-60229285D01*
X149342285Y-60324523D01*
X149342285Y-60467380D01*
X149294666Y-60562619D01*
X149199428Y-60610238D01*
X148675619Y-60610238D01*
X147828000Y-16002000D02*
X147828000Y-97028000D01*
X132943600Y-16002000D02*
X148414421Y-16002000D01*
X132943600Y-97028000D02*
X148414421Y-97028000D01*
X147828000Y-97028000D02*
X147241579Y-95901496D01*
X147828000Y-97028000D02*
X148414421Y-95901496D01*
X147828000Y-16002000D02*
X147241579Y-17128504D01*
X147828000Y-16002000D02*
X148414421Y-17128504D01*
X81963130Y-106641680D02*
X81391702Y-106641680D01*
X81677416Y-106641680D02*
X81677416Y-105641680D01*
X81582178Y-105784538D01*
X81486940Y-105879776D01*
X81391702Y-105927395D01*
X82582178Y-105641680D02*
X82677416Y-105641680D01*
X82772654Y-105689300D01*
X82820273Y-105736919D01*
X82867892Y-105832157D01*
X82915511Y-106022633D01*
X82915511Y-106260728D01*
X82867892Y-106451204D01*
X82820273Y-106546442D01*
X82772654Y-106594061D01*
X82677416Y-106641680D01*
X82582178Y-106641680D01*
X82486940Y-106594061D01*
X82439321Y-106546442D01*
X82391702Y-106451204D01*
X82344083Y-106260728D01*
X82344083Y-106022633D01*
X82391702Y-105832157D01*
X82439321Y-105736919D01*
X82486940Y-105689300D01*
X82582178Y-105641680D01*
X83486940Y-106070252D02*
X83391702Y-106022633D01*
X83344083Y-105975014D01*
X83296464Y-105879776D01*
X83296464Y-105832157D01*
X83344083Y-105736919D01*
X83391702Y-105689300D01*
X83486940Y-105641680D01*
X83677416Y-105641680D01*
X83772654Y-105689300D01*
X83820273Y-105736919D01*
X83867892Y-105832157D01*
X83867892Y-105879776D01*
X83820273Y-105975014D01*
X83772654Y-106022633D01*
X83677416Y-106070252D01*
X83486940Y-106070252D01*
X83391702Y-106117871D01*
X83344083Y-106165490D01*
X83296464Y-106260728D01*
X83296464Y-106451204D01*
X83344083Y-106546442D01*
X83391702Y-106594061D01*
X83486940Y-106641680D01*
X83677416Y-106641680D01*
X83772654Y-106594061D01*
X83820273Y-106546442D01*
X83867892Y-106451204D01*
X83867892Y-106260728D01*
X83820273Y-106165490D01*
X83772654Y-106117871D01*
X83677416Y-106070252D01*
X84344083Y-106594061D02*
X84344083Y-106641680D01*
X84296464Y-106736919D01*
X84248845Y-106784538D01*
X84963130Y-105641680D02*
X85058369Y-105641680D01*
X85153607Y-105689300D01*
X85201226Y-105736919D01*
X85248845Y-105832157D01*
X85296464Y-106022633D01*
X85296464Y-106260728D01*
X85248845Y-106451204D01*
X85201226Y-106546442D01*
X85153607Y-106594061D01*
X85058369Y-106641680D01*
X84963130Y-106641680D01*
X84867892Y-106594061D01*
X84820273Y-106546442D01*
X84772654Y-106451204D01*
X84725035Y-106260728D01*
X84725035Y-106022633D01*
X84772654Y-105832157D01*
X84820273Y-105736919D01*
X84867892Y-105689300D01*
X84963130Y-105641680D01*
X86248845Y-106641680D02*
X85677416Y-106641680D01*
X85963130Y-106641680D02*
X85963130Y-105641680D01*
X85867892Y-105784538D01*
X85772654Y-105879776D01*
X85677416Y-105927395D01*
X86582178Y-105641680D02*
X87201226Y-105641680D01*
X86867892Y-106022633D01*
X87010750Y-106022633D01*
X87105988Y-106070252D01*
X87153607Y-106117871D01*
X87201226Y-106213109D01*
X87201226Y-106451204D01*
X87153607Y-106546442D01*
X87105988Y-106594061D01*
X87010750Y-106641680D01*
X86725035Y-106641680D01*
X86629797Y-106594061D01*
X86582178Y-106546442D01*
X88391702Y-106641680D02*
X88391702Y-105975014D01*
X88391702Y-106070252D02*
X88439321Y-106022633D01*
X88534559Y-105975014D01*
X88677416Y-105975014D01*
X88772654Y-106022633D01*
X88820273Y-106117871D01*
X88820273Y-106641680D01*
X88820273Y-106117871D02*
X88867892Y-106022633D01*
X88963130Y-105975014D01*
X89105988Y-105975014D01*
X89201226Y-106022633D01*
X89248845Y-106117871D01*
X89248845Y-106641680D01*
X89725035Y-106641680D02*
X89725035Y-105975014D01*
X89725035Y-106070252D02*
X89772654Y-106022633D01*
X89867892Y-105975014D01*
X90010750Y-105975014D01*
X90105988Y-106022633D01*
X90153607Y-106117871D01*
X90153607Y-106641680D01*
X90153607Y-106117871D02*
X90201226Y-106022633D01*
X90296464Y-105975014D01*
X90439321Y-105975014D01*
X90534559Y-106022633D01*
X90582178Y-106117871D01*
X90582178Y-106641680D01*
X32004000Y-104889300D02*
X140017500Y-104889300D01*
X32004000Y-91122500D02*
X32004000Y-105475721D01*
X140017500Y-91122500D02*
X140017500Y-105475721D01*
X140017500Y-104889300D02*
X138890996Y-105475721D01*
X140017500Y-104889300D02*
X138890996Y-104302879D01*
X32004000Y-104889300D02*
X33130504Y-105475721D01*
X32004000Y-104889300D02*
X33130504Y-104302879D01*
D10*
X37000000Y-16000000D02*
X135000000Y-16000000D01*
X140000000Y-21000000D02*
X140000000Y-66000000D01*
X135000000Y-97000000D02*
X37000000Y-97000000D01*
X32000000Y-21000000D02*
G75*
G02*
X37000000Y-16000000I5000000J0D01*
G01*
X37000000Y-97000000D02*
G75*
G02*
X32000000Y-92000000I0J5000000D01*
G01*
X140000000Y-92000000D02*
G75*
G02*
X135000000Y-97000000I-5000000J0D01*
G01*
X32000000Y-92000000D02*
X32000000Y-21000000D01*
X140000000Y-66000000D02*
X140000000Y-92000000D01*
%TO.C,J1*%
D12*
X140137952Y-62902928D02*
X139737952Y-62902928D01*
X139737952Y-62750547D01*
X139757000Y-62712452D01*
X139776047Y-62693404D01*
X139814142Y-62674357D01*
X139871285Y-62674357D01*
X139909380Y-62693404D01*
X139928428Y-62712452D01*
X139947476Y-62750547D01*
X139947476Y-62902928D01*
X140099857Y-62274357D02*
X140118904Y-62293404D01*
X140137952Y-62350547D01*
X140137952Y-62388642D01*
X140118904Y-62445785D01*
X140080809Y-62483880D01*
X140042714Y-62502928D01*
X139966523Y-62521976D01*
X139909380Y-62521976D01*
X139833190Y-62502928D01*
X139795095Y-62483880D01*
X139757000Y-62445785D01*
X139737952Y-62388642D01*
X139737952Y-62350547D01*
X139757000Y-62293404D01*
X139776047Y-62274357D01*
X139928428Y-61969595D02*
X139947476Y-61912452D01*
X139966523Y-61893404D01*
X140004619Y-61874357D01*
X140061761Y-61874357D01*
X140099857Y-61893404D01*
X140118904Y-61912452D01*
X140137952Y-61950547D01*
X140137952Y-62102928D01*
X139737952Y-62102928D01*
X139737952Y-61969595D01*
X139757000Y-61931500D01*
X139776047Y-61912452D01*
X139814142Y-61893404D01*
X139852238Y-61893404D01*
X139890333Y-61912452D01*
X139909380Y-61931500D01*
X139928428Y-61969595D01*
X139928428Y-62102928D01*
X139928428Y-61398166D02*
X139928428Y-61264833D01*
X140137952Y-61207690D02*
X140137952Y-61398166D01*
X139737952Y-61398166D01*
X139737952Y-61207690D01*
X140137952Y-60864833D02*
X139737952Y-60864833D01*
X140118904Y-60864833D02*
X140137952Y-60902928D01*
X140137952Y-60979119D01*
X140118904Y-61017214D01*
X140099857Y-61036261D01*
X140061761Y-61055309D01*
X139947476Y-61055309D01*
X139909380Y-61036261D01*
X139890333Y-61017214D01*
X139871285Y-60979119D01*
X139871285Y-60902928D01*
X139890333Y-60864833D01*
X139871285Y-60502928D02*
X140195095Y-60502928D01*
X140233190Y-60521976D01*
X140252238Y-60541023D01*
X140271285Y-60579119D01*
X140271285Y-60636261D01*
X140252238Y-60674357D01*
X140118904Y-60502928D02*
X140137952Y-60541023D01*
X140137952Y-60617214D01*
X140118904Y-60655309D01*
X140099857Y-60674357D01*
X140061761Y-60693404D01*
X139947476Y-60693404D01*
X139909380Y-60674357D01*
X139890333Y-60655309D01*
X139871285Y-60617214D01*
X139871285Y-60541023D01*
X139890333Y-60502928D01*
X140118904Y-60160071D02*
X140137952Y-60198166D01*
X140137952Y-60274357D01*
X140118904Y-60312452D01*
X140080809Y-60331500D01*
X139928428Y-60331500D01*
X139890333Y-60312452D01*
X139871285Y-60274357D01*
X139871285Y-60198166D01*
X139890333Y-60160071D01*
X139928428Y-60141023D01*
X139966523Y-60141023D01*
X140004619Y-60331500D01*
%TD*%
M02*
