%TF.GenerationSoftware,KiCad,Pcbnew,5.1.6-c6e7f7d~86~ubuntu18.04.1*%
%TF.CreationDate,2020-05-26T14:20:14+02:00*%
%TF.ProjectId,moeder_milda_v01,6d6f6564-6572-45f6-9d69-6c64615f7630,rev?*%
%TF.SameCoordinates,Original*%
%TF.FileFunction,Copper,L4,Bot*%
%TF.FilePolarity,Positive*%
%FSLAX46Y46*%
G04 Gerber Fmt 4.6, Leading zero omitted, Abs format (unit mm)*
G04 Created by KiCad (PCBNEW 5.1.6-c6e7f7d~86~ubuntu18.04.1) date 2020-05-26 14:20:14*
%MOMM*%
%LPD*%
G01*
G04 APERTURE LIST*
%TA.AperFunction,ComponentPad*%
%ADD10C,0.800000*%
%TD*%
%TA.AperFunction,ComponentPad*%
%ADD11C,6.400000*%
%TD*%
%TA.AperFunction,SMDPad,CuDef*%
%ADD12R,5.080000X2.420000*%
%TD*%
%TA.AperFunction,ViaPad*%
%ADD13C,0.970000*%
%TD*%
%TA.AperFunction,Conductor*%
%ADD14R,0.950000X0.460000*%
%TD*%
%TA.AperFunction,ComponentPad*%
%ADD15O,1.000000X1.000000*%
%TD*%
%TA.AperFunction,ComponentPad*%
%ADD16R,1.000000X1.000000*%
%TD*%
%TA.AperFunction,ComponentPad*%
%ADD17O,1.800000X3.600000*%
%TD*%
%TA.AperFunction,ComponentPad*%
%ADD18O,3.600000X1.800000*%
%TD*%
%TA.AperFunction,ViaPad*%
%ADD19C,0.800000*%
%TD*%
%TA.AperFunction,ViaPad*%
%ADD20C,0.600000*%
%TD*%
%TA.AperFunction,Conductor*%
%ADD21C,0.250000*%
%TD*%
%TA.AperFunction,Conductor*%
%ADD22C,0.500000*%
%TD*%
%TA.AperFunction,Conductor*%
%ADD23C,0.200000*%
%TD*%
%TA.AperFunction,Conductor*%
%ADD24C,0.254000*%
%TD*%
G04 APERTURE END LIST*
D10*
%TO.P,H4,1*%
%TO.N,N/C*%
X136697056Y-90302944D03*
X135000000Y-89600000D03*
X133302944Y-90302944D03*
X132600000Y-92000000D03*
X133302944Y-93697056D03*
X135000000Y-94400000D03*
X136697056Y-93697056D03*
X137400000Y-92000000D03*
D11*
X135000000Y-92000000D03*
%TD*%
D10*
%TO.P,H3,1*%
%TO.N,N/C*%
X136697056Y-19302944D03*
X135000000Y-18600000D03*
X133302944Y-19302944D03*
X132600000Y-21000000D03*
X133302944Y-22697056D03*
X135000000Y-23400000D03*
X136697056Y-22697056D03*
X137400000Y-21000000D03*
D11*
X135000000Y-21000000D03*
%TD*%
D10*
%TO.P,H2,1*%
%TO.N,N/C*%
X38697056Y-90302944D03*
X37000000Y-89600000D03*
X35302944Y-90302944D03*
X34600000Y-92000000D03*
X35302944Y-93697056D03*
X37000000Y-94400000D03*
X38697056Y-93697056D03*
X39400000Y-92000000D03*
D11*
X37000000Y-92000000D03*
%TD*%
D10*
%TO.P,H1,1*%
%TO.N,N/C*%
X38697056Y-19302944D03*
X37000000Y-18600000D03*
X35302944Y-19302944D03*
X34600000Y-21000000D03*
X35302944Y-22697056D03*
X37000000Y-23400000D03*
X38697056Y-22697056D03*
X39400000Y-21000000D03*
D11*
X37000000Y-21000000D03*
%TD*%
D12*
%TO.P,AE1,2*%
%TO.N,GND*%
X135527200Y-36079200D03*
X135527200Y-27319200D03*
D13*
%TD*%
%TO.N,GND*%
%TO.C,AE1*%
X132087200Y-36079200D03*
%TO.N,GND*%
%TO.C,AE1*%
X132087200Y-27319200D03*
D14*
X132537200Y-36079200D03*
X132537200Y-27319200D03*
%TD*%
D15*
%TO.P,J2,10*%
%TO.N,/MCU/RST*%
X134569200Y-45770800D03*
%TO.P,J2,9*%
%TO.N,GND*%
X135839200Y-45770800D03*
%TO.P,J2,8*%
%TO.N,/MCU/J_TDI*%
X134569200Y-47040800D03*
%TO.P,J2,7*%
%TO.N,N/C*%
X135839200Y-47040800D03*
%TO.P,J2,6*%
%TO.N,/MCU/J_TDO*%
X134569200Y-48310800D03*
%TO.P,J2,5*%
%TO.N,GND*%
X135839200Y-48310800D03*
%TO.P,J2,4*%
%TO.N,/MCU/J_TCK*%
X134569200Y-49580800D03*
%TO.P,J2,3*%
%TO.N,GND*%
X135839200Y-49580800D03*
%TO.P,J2,2*%
%TO.N,/MCU/J_TMS*%
X134569200Y-50850800D03*
D16*
%TO.P,J2,1*%
%TO.N,N/C*%
X135839200Y-50850800D03*
%TD*%
%TO.P,J3,1*%
%TO.N,GND*%
%TA.AperFunction,ComponentPad*%
G36*
G01*
X77404800Y-18516000D02*
X77404800Y-21616000D01*
G75*
G02*
X77154800Y-21866000I-250000J0D01*
G01*
X75854800Y-21866000D01*
G75*
G02*
X75604800Y-21616000I0J250000D01*
G01*
X75604800Y-18516000D01*
G75*
G02*
X75854800Y-18266000I250000J0D01*
G01*
X77154800Y-18266000D01*
G75*
G02*
X77404800Y-18516000I0J-250000D01*
G01*
G37*
%TD.AperFunction*%
D17*
%TO.P,J3,2*%
%TO.N,/CAN/CAN1_N*%
X71424800Y-20066000D03*
%TO.P,J3,3*%
%TO.N,/CAN/CAN1_P*%
X66344800Y-20066000D03*
%TO.P,J3,4*%
%TO.N,VBUS_CAN1*%
X61264800Y-20066000D03*
%TD*%
%TO.P,J4,4*%
%TO.N,VBUS_CAN2*%
X86918800Y-20066000D03*
%TO.P,J4,3*%
%TO.N,/CAN/CAN2_P*%
X91998800Y-20066000D03*
%TO.P,J4,2*%
%TO.N,/CAN/CAN2_N*%
X97078800Y-20066000D03*
%TO.P,J4,1*%
%TO.N,GND*%
%TA.AperFunction,ComponentPad*%
G36*
G01*
X103058800Y-18516000D02*
X103058800Y-21616000D01*
G75*
G02*
X102808800Y-21866000I-250000J0D01*
G01*
X101508800Y-21866000D01*
G75*
G02*
X101258800Y-21616000I0J250000D01*
G01*
X101258800Y-18516000D01*
G75*
G02*
X101508800Y-18266000I250000J0D01*
G01*
X102808800Y-18266000D01*
G75*
G02*
X103058800Y-18516000I0J-250000D01*
G01*
G37*
%TD.AperFunction*%
%TD*%
D18*
%TO.P,J5,2*%
%TO.N,GND*%
X37084000Y-29591000D03*
%TO.P,J5,1*%
%TO.N,Net-(C25-Pad1)*%
%TA.AperFunction,ComponentPad*%
G36*
G01*
X38634000Y-35571000D02*
X35534000Y-35571000D01*
G75*
G02*
X35284000Y-35321000I0J250000D01*
G01*
X35284000Y-34021000D01*
G75*
G02*
X35534000Y-33771000I250000J0D01*
G01*
X38634000Y-33771000D01*
G75*
G02*
X38884000Y-34021000I0J-250000D01*
G01*
X38884000Y-35321000D01*
G75*
G02*
X38634000Y-35571000I-250000J0D01*
G01*
G37*
%TD.AperFunction*%
%TD*%
D19*
%TO.N,GND*%
X134264400Y-35153600D03*
X136347200Y-35153600D03*
X136347200Y-36068000D03*
X134264400Y-36982400D03*
X135331200Y-36068000D03*
X134264400Y-36068000D03*
X136347200Y-36982400D03*
X135331200Y-36982400D03*
X135331200Y-35153600D03*
X136398000Y-28295600D03*
X135382000Y-28295600D03*
X134315200Y-28295600D03*
X136398000Y-27381200D03*
X135382000Y-27381200D03*
X134315200Y-27381200D03*
X136398000Y-26466800D03*
X135382000Y-26466800D03*
X134315200Y-26466800D03*
D20*
X68884800Y-25146000D03*
X68884800Y-31496000D03*
X68122800Y-43434000D03*
X107746800Y-72771000D03*
X97586800Y-68961000D03*
X64312800Y-35814000D03*
X94792800Y-24638000D03*
X94792800Y-31496000D03*
X94030800Y-43434000D03*
X90728800Y-35814000D03*
X119557800Y-51435000D03*
X119684800Y-53340000D03*
X109524800Y-73025000D03*
X111175800Y-73025000D03*
X112953800Y-73025000D03*
X101523800Y-44704000D03*
X99618800Y-44704000D03*
X100507800Y-52451000D03*
X109905800Y-67691000D03*
X104571800Y-68199000D03*
X114731800Y-73025000D03*
X115112800Y-63545000D03*
X137972800Y-69532500D03*
X137972800Y-71564500D03*
X137972800Y-73660000D03*
X97586800Y-44704000D03*
X103428800Y-44704000D03*
X125717300Y-20193000D03*
X127812800Y-39878000D03*
X114414300Y-39878000D03*
X77965300Y-51625500D03*
X75742800Y-51625500D03*
X88887300Y-48641000D03*
X80187800Y-51054000D03*
X88379300Y-57404000D03*
X87871300Y-61531500D03*
X89712800Y-61531500D03*
X77774800Y-59753500D03*
X75742800Y-59880500D03*
X84632800Y-52768500D03*
X95751442Y-64580645D03*
X92506800Y-65659000D03*
X92506800Y-67437000D03*
X89966800Y-53086000D03*
X128447800Y-82423000D03*
X128511300Y-88201500D03*
X128511300Y-86169500D03*
X128511300Y-84264500D03*
X137807700Y-54914800D03*
X131521200Y-67259200D03*
X132791200Y-67564000D03*
X132448300Y-87045800D03*
X129273300Y-80086200D03*
X120142000Y-65328800D03*
X79400400Y-59334400D03*
X119786400Y-50293020D03*
X59588400Y-35255200D03*
X65532000Y-29464000D03*
X91186000Y-29527500D03*
X55245000Y-54610000D03*
X55245000Y-58166000D03*
X42418000Y-54737000D03*
X42418000Y-58293000D03*
X54483000Y-72898000D03*
X54864000Y-72136000D03*
X63246000Y-68326000D03*
X59181668Y-65913332D03*
X58674000Y-72136000D03*
X52705000Y-70104000D03*
X67056000Y-57277000D03*
X49657000Y-43180000D03*
X56007000Y-40894000D03*
X60452000Y-38608000D03*
X50927000Y-34925000D03*
X50165000Y-34925000D03*
X49403000Y-34925000D03*
X48514000Y-69342000D03*
X76479400Y-35687000D03*
X86588600Y-39166800D03*
X85648800Y-35229800D03*
X132461000Y-75755500D03*
X40894000Y-69850000D03*
X40894000Y-70612000D03*
X40894000Y-71374000D03*
X40640000Y-62865000D03*
X40640000Y-63627000D03*
X39878000Y-62865000D03*
X39941500Y-69024500D03*
X133159500Y-61849000D03*
X133985000Y-60071000D03*
X123380500Y-19304000D03*
%TO.N,PRI_HI*%
X116065300Y-52133500D03*
X110286800Y-68961000D03*
X108191300Y-68897500D03*
X96951800Y-67437000D03*
X120079800Y-20242500D03*
X88823800Y-54165500D03*
X72504300Y-53213000D03*
X97459800Y-65532000D03*
X99872800Y-48768000D03*
X113879600Y-70118000D03*
X116001800Y-65405000D03*
X61849000Y-42037000D03*
X59512200Y-42291000D03*
X80441800Y-40106600D03*
X87782400Y-40132000D03*
X87198200Y-44907200D03*
X65024000Y-62738000D03*
X66548000Y-62738000D03*
X65786000Y-63500000D03*
X65024000Y-64262000D03*
X66548000Y-64262000D03*
%TO.N,/MCU/RST*%
X95961200Y-49225200D03*
X136969500Y-75692000D03*
%TO.N,+3V3*%
X64312800Y-39116000D03*
X89966800Y-39370000D03*
X53685440Y-57749440D03*
X60198000Y-59499500D03*
X60198000Y-60388500D03*
X60198000Y-58610500D03*
X89128600Y-39344600D03*
X63220600Y-39293800D03*
X91186000Y-53086000D03*
%TO.N,+12V*%
X35941000Y-49911000D03*
X35941000Y-51435000D03*
X37058600Y-50698400D03*
X38227000Y-49911000D03*
X38227000Y-51435000D03*
X40513000Y-49911000D03*
X40513000Y-51435000D03*
X39370000Y-50673000D03*
X52324000Y-28956000D03*
X53086000Y-28956000D03*
X53848000Y-28956000D03*
X75692000Y-29591000D03*
X76454000Y-29591000D03*
X77216000Y-29591000D03*
X87122000Y-52959000D03*
X73914000Y-32639000D03*
%TO.N,+5V*%
X40845740Y-57927240D03*
X46992540Y-58536840D03*
X49784000Y-56769000D03*
X55753000Y-51054000D03*
%TO.N,/Power/MOS_G*%
X54737000Y-69850000D03*
X50165000Y-64516000D03*
%TO.N,/MCU/J_TMS*%
X101752400Y-48869600D03*
X130911600Y-47904400D03*
%TO.N,/MCU/J_TCK*%
X97231200Y-51511200D03*
%TO.N,/MCU/J_TDO*%
X96063820Y-50190400D03*
%TO.N,/MCU/J_TDI*%
X96621600Y-50850800D03*
X133248400Y-48869600D03*
%TO.N,/MCU/USB_FT*%
X103886000Y-57200800D03*
X121615200Y-61468000D03*
X100076000Y-60452000D03*
%TO.N,/MCU/USB_LED*%
X122859800Y-59309000D03*
X104038400Y-53695600D03*
%TO.N,BAT_CHG*%
X46609000Y-67945000D03*
X96647000Y-56896000D03*
X41338500Y-67500500D03*
%TO.N,M_12V*%
X101206300Y-62220000D03*
X94233804Y-62781501D03*
%TO.N,M_5V0*%
X95046800Y-63406501D03*
X101904800Y-62845000D03*
%TO.N,M_3V3*%
X94919800Y-62103000D03*
X101904800Y-61595000D03*
%TO.N,M_TMP*%
X101142800Y-63470000D03*
X94221300Y-64031501D03*
%TO.N,RFM_MISO*%
X118541800Y-43815000D03*
X117017800Y-42164000D03*
%TO.N,CAN1_STB*%
X93049108Y-45558692D03*
X105003600Y-46634400D03*
%TO.N,/MCU/USB_N*%
X125603000Y-58972000D03*
X102501033Y-53642227D03*
%TO.N,/MCU/USB_P*%
X125603000Y-58122000D03*
X101899991Y-53041185D03*
%TO.N,CAN1_FLGB*%
X92227400Y-54483000D03*
X96647000Y-54610000D03*
%TO.N,CAN1_DIS*%
X60477400Y-39827200D03*
X73126600Y-39217600D03*
X93827600Y-45339000D03*
X105943400Y-46532800D03*
%TO.N,CAN1_PGD*%
X96621600Y-53670200D03*
X93827600Y-53035200D03*
X72440800Y-41706800D03*
X59613800Y-40487600D03*
%TO.N,CAN2_DIS*%
X98066842Y-39728158D03*
X81737200Y-37541200D03*
%TO.N,CAN2_PGD*%
X98234500Y-42989500D03*
X86766400Y-37909499D03*
%TD*%
D21*
%TO.N,/MCU/RST*%
X131826000Y-45770800D02*
X134569200Y-45770800D01*
X95961200Y-49225200D02*
X97383600Y-47802800D01*
X129794000Y-47802800D02*
X131826000Y-45770800D01*
X97383600Y-47802800D02*
X129794000Y-47802800D01*
X136235201Y-44945799D02*
X135394201Y-44945799D01*
X135382000Y-74104500D02*
X135382000Y-67716400D01*
X137007600Y-45718198D02*
X136235201Y-44945799D01*
X130403600Y-62738000D02*
X130403600Y-57871402D01*
X136969500Y-75692000D02*
X135382000Y-74104500D01*
X135382000Y-67716400D02*
X130403600Y-62738000D01*
X135394201Y-44945799D02*
X134569200Y-45770800D01*
X130403600Y-57871402D02*
X137007600Y-51267402D01*
X137007600Y-51267402D02*
X137007600Y-45718198D01*
%TO.N,+3V3*%
X58962341Y-57374841D02*
X60198000Y-58610500D01*
X53660040Y-57774840D02*
X54060039Y-57374841D01*
X54060039Y-57374841D02*
X58962341Y-57374841D01*
X91186000Y-53086000D02*
X91186000Y-41402000D01*
X91186000Y-41402000D02*
X89128600Y-39344600D01*
%TO.N,+12V*%
X75854399Y-41691399D02*
X75854399Y-37500399D01*
X87122000Y-52959000D02*
X75854399Y-41691399D01*
X75854399Y-37500399D02*
X73914000Y-35560000D01*
X73914000Y-35560000D02*
X73914000Y-32639000D01*
%TO.N,+5V*%
X45982941Y-57527241D02*
X46992540Y-58536840D01*
X41245739Y-57527241D02*
X45982941Y-57527241D01*
X40845740Y-57927240D02*
X41245739Y-57527241D01*
X50038000Y-56769000D02*
X49784000Y-56769000D01*
X55753000Y-51054000D02*
X50038000Y-56769000D01*
D22*
%TO.N,/Power/MOS_G*%
X54737000Y-69850000D02*
X50165000Y-65278000D01*
X50165000Y-65278000D02*
X50165000Y-64516000D01*
D21*
%TO.N,/MCU/J_TMS*%
X101752400Y-48869600D02*
X102311200Y-48310800D01*
X102311200Y-48310800D02*
X130505200Y-48310800D01*
X130505200Y-48310800D02*
X130911600Y-47904400D01*
%TO.N,/MCU/J_TCK*%
X134481980Y-49668020D02*
X134569200Y-49580800D01*
X103239980Y-49668020D02*
X134481980Y-49668020D01*
X97655464Y-51511200D02*
X98145600Y-51021064D01*
X97231200Y-51511200D02*
X97655464Y-51511200D01*
X98145600Y-51003200D02*
X98188189Y-50960611D01*
X98145600Y-51021064D02*
X98145600Y-51003200D01*
X98188189Y-50960611D02*
X101947389Y-50960611D01*
X101947389Y-50960611D02*
X103239980Y-49668020D01*
%TO.N,/MCU/J_TDO*%
X134502999Y-48244599D02*
X134569200Y-48310800D01*
X96063820Y-50190400D02*
X96759619Y-49494601D01*
X96759619Y-49494601D02*
X102092599Y-49494601D01*
X102092599Y-49494601D02*
X102819200Y-48768000D01*
X131739801Y-48244599D02*
X134502999Y-48244599D01*
X102819200Y-48768000D02*
X131216400Y-48768000D01*
X131216400Y-48768000D02*
X131739801Y-48244599D01*
%TO.N,/MCU/J_TDI*%
X101713009Y-50510601D02*
X103005600Y-49218010D01*
X97622199Y-50510601D02*
X101713009Y-50510601D01*
X103005600Y-49218010D02*
X132899990Y-49218010D01*
X97282000Y-50850800D02*
X97622199Y-50510601D01*
X96621600Y-50850800D02*
X97282000Y-50850800D01*
X132899990Y-49218010D02*
X133248400Y-48869600D01*
%TO.N,/MCU/USB_FT*%
X121513600Y-61366400D02*
X121615200Y-61468000D01*
X100634800Y-60452000D02*
X103886000Y-57200800D01*
X100076000Y-60452000D02*
X100634800Y-60452000D01*
X103886000Y-57200800D02*
X104990046Y-57200800D01*
X104990046Y-57200800D02*
X109118400Y-61329154D01*
X109118400Y-61329154D02*
X113575246Y-61329154D01*
X113714092Y-61468000D02*
X121615200Y-61468000D01*
X113575246Y-61329154D02*
X113714092Y-61468000D01*
%TO.N,/MCU/USB_LED*%
X104038400Y-54410649D02*
X109620241Y-59992490D01*
X109620241Y-59992490D02*
X122176310Y-59992490D01*
X122176310Y-59992490D02*
X122859800Y-59309000D01*
X104038400Y-53695600D02*
X104038400Y-54410649D01*
%TO.N,BAT_CHG*%
X46609000Y-68369264D02*
X49105736Y-70866000D01*
X46609000Y-67945000D02*
X46609000Y-68369264D01*
X49105736Y-70866000D02*
X82296000Y-70866000D01*
X82296000Y-70866000D02*
X96266000Y-56896000D01*
X96266000Y-56896000D02*
X96647000Y-56896000D01*
X41783000Y-67945000D02*
X46609000Y-67945000D01*
X41338500Y-67500500D02*
X41783000Y-67945000D01*
%TO.N,M_12V*%
X95166301Y-62781501D02*
X95902792Y-62045010D01*
X94233804Y-62781501D02*
X95166301Y-62781501D01*
X101031310Y-62045010D02*
X101206300Y-62220000D01*
X95902792Y-62045010D02*
X101031310Y-62045010D01*
%TO.N,M_5V0*%
X95046800Y-63406501D02*
X95265275Y-63406501D01*
X95265275Y-63406501D02*
X95826776Y-62845000D01*
X95826776Y-62845000D02*
X101904800Y-62845000D01*
%TO.N,M_3V3*%
X94919800Y-62103000D02*
X95427800Y-61595000D01*
X95427800Y-61595000D02*
X101904800Y-61595000D01*
%TO.N,M_TMP*%
X95453001Y-64031502D02*
X96189493Y-63295010D01*
X100967810Y-63295010D02*
X101142800Y-63470000D01*
X96189493Y-63295010D02*
X100967810Y-63295010D01*
X94221300Y-64031501D02*
X95453001Y-64031502D01*
%TO.N,RFM_MISO*%
X118541800Y-43815000D02*
X118541800Y-43688000D01*
X118541800Y-43688000D02*
X117017800Y-42164000D01*
%TO.N,CAN1_STB*%
X93049108Y-45558692D02*
X93845416Y-46355000D01*
X93845416Y-46355000D02*
X104724200Y-46355000D01*
X104724200Y-46355000D02*
X105003600Y-46634400D01*
D23*
%TO.N,/MCU/USB_N*%
X125603000Y-58972000D02*
X125403000Y-58772000D01*
X125403000Y-58772000D02*
X124811300Y-58772000D01*
X124811300Y-58772000D02*
X123668300Y-57629000D01*
X123668300Y-57629000D02*
X110650800Y-57629000D01*
X110650800Y-57629000D02*
X105951800Y-52930000D01*
X102501033Y-53359384D02*
X102501033Y-53642227D01*
X105951800Y-52930000D02*
X102930417Y-52930000D01*
X102930417Y-52930000D02*
X102501033Y-53359384D01*
%TO.N,/MCU/USB_P*%
X125603000Y-58122000D02*
X125403000Y-58322000D01*
X125403000Y-58322000D02*
X124997700Y-58322000D01*
X124997700Y-58322000D02*
X123854700Y-57179000D01*
X123854700Y-57179000D02*
X110837200Y-57179000D01*
X110837200Y-57179000D02*
X106138200Y-52480000D01*
X106138200Y-52480000D02*
X102744019Y-52480000D01*
X102744019Y-52480000D02*
X102182834Y-53041185D01*
X102182834Y-53041185D02*
X101899991Y-53041185D01*
D21*
%TO.N,CAN1_FLGB*%
X92227400Y-54483000D02*
X96520000Y-54483000D01*
X96520000Y-54483000D02*
X96647000Y-54610000D01*
%TO.N,CAN1_DIS*%
X60477400Y-39827200D02*
X62516590Y-37788010D01*
X62516590Y-37788010D02*
X71697010Y-37788010D01*
X71697010Y-37788010D02*
X73126600Y-39217600D01*
X93827600Y-45339000D02*
X94386400Y-45897800D01*
X94386400Y-45897800D02*
X105308400Y-45897800D01*
X105308400Y-45897800D02*
X105943400Y-46532800D01*
%TO.N,CAN1_PGD*%
X96621600Y-53670200D02*
X95986600Y-53035200D01*
X95986600Y-53035200D02*
X93827600Y-53035200D01*
X72440800Y-41706800D02*
X69164200Y-38430200D01*
X69164200Y-38430200D02*
X62865000Y-38430200D01*
X62865000Y-38430200D02*
X60807600Y-40487600D01*
X60807600Y-40487600D02*
X59613800Y-40487600D01*
%TO.N,CAN2_DIS*%
X98066842Y-39728158D02*
X95623183Y-37284499D01*
X95623183Y-37284499D02*
X81993901Y-37284499D01*
X81993901Y-37284499D02*
X81737200Y-37541200D01*
%TO.N,CAN2_PGD*%
X98234500Y-42989500D02*
X98234500Y-42735500D01*
X98234500Y-42735500D02*
X94107000Y-38608000D01*
X94107000Y-38608000D02*
X87464901Y-38608000D01*
X87464901Y-38608000D02*
X86766400Y-37909499D01*
%TD*%
D24*
%TO.N,GND*%
G36*
X132115312Y-18461179D02*
G01*
X132021161Y-18555330D01*
X131601467Y-19183446D01*
X131312377Y-19881372D01*
X131165000Y-20622285D01*
X131165000Y-21377715D01*
X131312377Y-22118628D01*
X131601467Y-22816554D01*
X132021161Y-23444670D01*
X132555330Y-23978839D01*
X133183446Y-24398533D01*
X133881372Y-24687623D01*
X134622285Y-24835000D01*
X135377715Y-24835000D01*
X136118628Y-24687623D01*
X136816554Y-24398533D01*
X137444670Y-23978839D01*
X137896600Y-23526909D01*
X137896600Y-38860194D01*
X136091394Y-40665400D01*
X109171006Y-40665400D01*
X106603800Y-38098194D01*
X106603800Y-20982206D01*
X107435595Y-20150411D01*
X119144800Y-20150411D01*
X119144800Y-20334589D01*
X119180732Y-20515229D01*
X119251214Y-20685389D01*
X119353538Y-20838528D01*
X119483772Y-20968762D01*
X119636911Y-21071086D01*
X119807071Y-21141568D01*
X119987711Y-21177500D01*
X120171889Y-21177500D01*
X120352529Y-21141568D01*
X120522689Y-21071086D01*
X120675828Y-20968762D01*
X120806062Y-20838528D01*
X120908386Y-20685389D01*
X120978868Y-20515229D01*
X121014800Y-20334589D01*
X121014800Y-20150411D01*
X120978868Y-19969771D01*
X120908386Y-19799611D01*
X120806062Y-19646472D01*
X120675828Y-19516238D01*
X120522689Y-19413914D01*
X120352529Y-19343432D01*
X120171889Y-19307500D01*
X119987711Y-19307500D01*
X119807071Y-19343432D01*
X119636911Y-19413914D01*
X119483772Y-19516238D01*
X119353538Y-19646472D01*
X119251214Y-19799611D01*
X119180732Y-19969771D01*
X119144800Y-20150411D01*
X107435595Y-20150411D01*
X109170900Y-18415106D01*
X132115312Y-18461179D01*
G37*
X132115312Y-18461179D02*
X132021161Y-18555330D01*
X131601467Y-19183446D01*
X131312377Y-19881372D01*
X131165000Y-20622285D01*
X131165000Y-21377715D01*
X131312377Y-22118628D01*
X131601467Y-22816554D01*
X132021161Y-23444670D01*
X132555330Y-23978839D01*
X133183446Y-24398533D01*
X133881372Y-24687623D01*
X134622285Y-24835000D01*
X135377715Y-24835000D01*
X136118628Y-24687623D01*
X136816554Y-24398533D01*
X137444670Y-23978839D01*
X137896600Y-23526909D01*
X137896600Y-38860194D01*
X136091394Y-40665400D01*
X109171006Y-40665400D01*
X106603800Y-38098194D01*
X106603800Y-20982206D01*
X107435595Y-20150411D01*
X119144800Y-20150411D01*
X119144800Y-20334589D01*
X119180732Y-20515229D01*
X119251214Y-20685389D01*
X119353538Y-20838528D01*
X119483772Y-20968762D01*
X119636911Y-21071086D01*
X119807071Y-21141568D01*
X119987711Y-21177500D01*
X120171889Y-21177500D01*
X120352529Y-21141568D01*
X120522689Y-21071086D01*
X120675828Y-20968762D01*
X120806062Y-20838528D01*
X120908386Y-20685389D01*
X120978868Y-20515229D01*
X121014800Y-20334589D01*
X121014800Y-20150411D01*
X120978868Y-19969771D01*
X120908386Y-19799611D01*
X120806062Y-19646472D01*
X120675828Y-19516238D01*
X120522689Y-19413914D01*
X120352529Y-19343432D01*
X120171889Y-19307500D01*
X119987711Y-19307500D01*
X119807071Y-19343432D01*
X119636911Y-19413914D01*
X119483772Y-19516238D01*
X119353538Y-19646472D01*
X119251214Y-19799611D01*
X119180732Y-19969771D01*
X119144800Y-20150411D01*
X107435595Y-20150411D01*
X109170900Y-18415106D01*
X132115312Y-18461179D01*
%TD*%
M02*
