%TF.GenerationSoftware,KiCad,Pcbnew,5.1.6-c6e7f7d~86~ubuntu18.04.1*%
%TF.CreationDate,2020-05-26T14:20:14+02:00*%
%TF.ProjectId,moeder_milda_v01,6d6f6564-6572-45f6-9d69-6c64615f7630,rev?*%
%TF.SameCoordinates,Original*%
%TF.FileFunction,Paste,Top*%
%TF.FilePolarity,Positive*%
%FSLAX46Y46*%
G04 Gerber Fmt 4.6, Leading zero omitted, Abs format (unit mm)*
G04 Created by KiCad (PCBNEW 5.1.6-c6e7f7d~86~ubuntu18.04.1) date 2020-05-26 14:20:14*
%MOMM*%
%LPD*%
G01*
G04 APERTURE LIST*
%ADD10R,1.900000X1.000000*%
%ADD11R,1.900000X1.800000*%
%ADD12R,1.300000X1.650000*%
%ADD13R,1.550000X1.425000*%
%ADD14R,1.380000X0.450000*%
%ADD15R,0.800000X1.900000*%
%ADD16R,1.000000X1.000000*%
%ADD17R,0.850000X0.300000*%
%ADD18R,3.600000X1.500000*%
%ADD19R,5.080000X2.290000*%
%ADD20R,5.080000X2.420000*%
%ADD21R,1.200000X0.900000*%
%ADD22R,7.340000X6.350000*%
%ADD23R,3.300000X4.500000*%
%ADD24R,0.900000X1.200000*%
%ADD25R,1.900000X0.800000*%
%ADD26R,1.300000X1.550000*%
%ADD27R,0.500000X0.375000*%
%ADD28R,0.650000X0.300000*%
%ADD29R,1.000000X2.000000*%
%ADD30R,0.650000X1.060000*%
%ADD31R,1.800000X1.200000*%
G04 APERTURE END LIST*
D10*
%TO.C,J1*%
X138487000Y-59981500D03*
D11*
X138487000Y-62681500D03*
D12*
X138487000Y-58156500D03*
X138487000Y-64906500D03*
D13*
X135912000Y-59044000D03*
X135912000Y-64019000D03*
D14*
X135827000Y-60231500D03*
X135827000Y-60881500D03*
X135827000Y-61531500D03*
X135827000Y-62181500D03*
X135827000Y-62831500D03*
%TD*%
%TO.C,C36*%
G36*
G01*
X42476000Y-63621499D02*
X42476000Y-64521501D01*
G75*
G02*
X42226001Y-64771500I-249999J0D01*
G01*
X41575999Y-64771500D01*
G75*
G02*
X41326000Y-64521501I0J249999D01*
G01*
X41326000Y-63621499D01*
G75*
G02*
X41575999Y-63371500I249999J0D01*
G01*
X42226001Y-63371500D01*
G75*
G02*
X42476000Y-63621499I0J-249999D01*
G01*
G37*
G36*
G01*
X44526000Y-63621499D02*
X44526000Y-64521501D01*
G75*
G02*
X44276001Y-64771500I-249999J0D01*
G01*
X43625999Y-64771500D01*
G75*
G02*
X43376000Y-64521501I0J249999D01*
G01*
X43376000Y-63621499D01*
G75*
G02*
X43625999Y-63371500I249999J0D01*
G01*
X44276001Y-63371500D01*
G75*
G02*
X44526000Y-63621499I0J-249999D01*
G01*
G37*
%TD*%
%TO.C,C34*%
G36*
G01*
X42539500Y-70225499D02*
X42539500Y-71125501D01*
G75*
G02*
X42289501Y-71375500I-249999J0D01*
G01*
X41639499Y-71375500D01*
G75*
G02*
X41389500Y-71125501I0J249999D01*
G01*
X41389500Y-70225499D01*
G75*
G02*
X41639499Y-69975500I249999J0D01*
G01*
X42289501Y-69975500D01*
G75*
G02*
X42539500Y-70225499I0J-249999D01*
G01*
G37*
G36*
G01*
X44589500Y-70225499D02*
X44589500Y-71125501D01*
G75*
G02*
X44339501Y-71375500I-249999J0D01*
G01*
X43689499Y-71375500D01*
G75*
G02*
X43439500Y-71125501I0J249999D01*
G01*
X43439500Y-70225499D01*
G75*
G02*
X43689499Y-69975500I249999J0D01*
G01*
X44339501Y-69975500D01*
G75*
G02*
X44589500Y-70225499I0J-249999D01*
G01*
G37*
%TD*%
%TO.C,R19*%
G36*
G01*
X54034700Y-38712600D02*
X53559700Y-38712600D01*
G75*
G02*
X53322200Y-38475100I0J237500D01*
G01*
X53322200Y-37900100D01*
G75*
G02*
X53559700Y-37662600I237500J0D01*
G01*
X54034700Y-37662600D01*
G75*
G02*
X54272200Y-37900100I0J-237500D01*
G01*
X54272200Y-38475100D01*
G75*
G02*
X54034700Y-38712600I-237500J0D01*
G01*
G37*
G36*
G01*
X54034700Y-36962600D02*
X53559700Y-36962600D01*
G75*
G02*
X53322200Y-36725100I0J237500D01*
G01*
X53322200Y-36150100D01*
G75*
G02*
X53559700Y-35912600I237500J0D01*
G01*
X54034700Y-35912600D01*
G75*
G02*
X54272200Y-36150100I0J-237500D01*
G01*
X54272200Y-36725100D01*
G75*
G02*
X54034700Y-36962600I-237500J0D01*
G01*
G37*
%TD*%
D15*
%TO.C,Q5*%
X52959000Y-45696000D03*
X52009000Y-42696000D03*
X53909000Y-42696000D03*
%TD*%
%TO.C,R28*%
G36*
G01*
X55769500Y-43530000D02*
X56244500Y-43530000D01*
G75*
G02*
X56482000Y-43767500I0J-237500D01*
G01*
X56482000Y-44342500D01*
G75*
G02*
X56244500Y-44580000I-237500J0D01*
G01*
X55769500Y-44580000D01*
G75*
G02*
X55532000Y-44342500I0J237500D01*
G01*
X55532000Y-43767500D01*
G75*
G02*
X55769500Y-43530000I237500J0D01*
G01*
G37*
G36*
G01*
X55769500Y-41780000D02*
X56244500Y-41780000D01*
G75*
G02*
X56482000Y-42017500I0J-237500D01*
G01*
X56482000Y-42592500D01*
G75*
G02*
X56244500Y-42830000I-237500J0D01*
G01*
X55769500Y-42830000D01*
G75*
G02*
X55532000Y-42592500I0J237500D01*
G01*
X55532000Y-42017500D01*
G75*
G02*
X55769500Y-41780000I237500J0D01*
G01*
G37*
%TD*%
%TO.C,R29*%
G36*
G01*
X50148500Y-44862000D02*
X49673500Y-44862000D01*
G75*
G02*
X49436000Y-44624500I0J237500D01*
G01*
X49436000Y-44049500D01*
G75*
G02*
X49673500Y-43812000I237500J0D01*
G01*
X50148500Y-43812000D01*
G75*
G02*
X50386000Y-44049500I0J-237500D01*
G01*
X50386000Y-44624500D01*
G75*
G02*
X50148500Y-44862000I-237500J0D01*
G01*
G37*
G36*
G01*
X50148500Y-46612000D02*
X49673500Y-46612000D01*
G75*
G02*
X49436000Y-46374500I0J237500D01*
G01*
X49436000Y-45799500D01*
G75*
G02*
X49673500Y-45562000I237500J0D01*
G01*
X50148500Y-45562000D01*
G75*
G02*
X50386000Y-45799500I0J-237500D01*
G01*
X50386000Y-46374500D01*
G75*
G02*
X50148500Y-46612000I-237500J0D01*
G01*
G37*
%TD*%
D16*
%TO.C,D10*%
X51963000Y-48387000D03*
X54463000Y-48387000D03*
%TD*%
%TO.C,F1*%
G36*
G01*
X37405000Y-48072000D02*
X36255000Y-48072000D01*
G75*
G02*
X36005000Y-47822000I0J250000D01*
G01*
X36005000Y-46722000D01*
G75*
G02*
X36255000Y-46472000I250000J0D01*
G01*
X37405000Y-46472000D01*
G75*
G02*
X37655000Y-46722000I0J-250000D01*
G01*
X37655000Y-47822000D01*
G75*
G02*
X37405000Y-48072000I-250000J0D01*
G01*
G37*
G36*
G01*
X37405000Y-45222000D02*
X36255000Y-45222000D01*
G75*
G02*
X36005000Y-44972000I0J250000D01*
G01*
X36005000Y-43872000D01*
G75*
G02*
X36255000Y-43622000I250000J0D01*
G01*
X37405000Y-43622000D01*
G75*
G02*
X37655000Y-43872000I0J-250000D01*
G01*
X37655000Y-44972000D01*
G75*
G02*
X37405000Y-45222000I-250000J0D01*
G01*
G37*
%TD*%
%TO.C,R14*%
G36*
G01*
X88121500Y-52301600D02*
X87646500Y-52301600D01*
G75*
G02*
X87409000Y-52064100I0J237500D01*
G01*
X87409000Y-51489100D01*
G75*
G02*
X87646500Y-51251600I237500J0D01*
G01*
X88121500Y-51251600D01*
G75*
G02*
X88359000Y-51489100I0J-237500D01*
G01*
X88359000Y-52064100D01*
G75*
G02*
X88121500Y-52301600I-237500J0D01*
G01*
G37*
G36*
G01*
X88121500Y-50551600D02*
X87646500Y-50551600D01*
G75*
G02*
X87409000Y-50314100I0J237500D01*
G01*
X87409000Y-49739100D01*
G75*
G02*
X87646500Y-49501600I237500J0D01*
G01*
X88121500Y-49501600D01*
G75*
G02*
X88359000Y-49739100I0J-237500D01*
G01*
X88359000Y-50314100D01*
G75*
G02*
X88121500Y-50551600I-237500J0D01*
G01*
G37*
%TD*%
%TO.C,R13*%
G36*
G01*
X75505300Y-49859680D02*
X75980300Y-49859680D01*
G75*
G02*
X76217800Y-50097180I0J-237500D01*
G01*
X76217800Y-50672180D01*
G75*
G02*
X75980300Y-50909680I-237500J0D01*
G01*
X75505300Y-50909680D01*
G75*
G02*
X75267800Y-50672180I0J237500D01*
G01*
X75267800Y-50097180D01*
G75*
G02*
X75505300Y-49859680I237500J0D01*
G01*
G37*
G36*
G01*
X75505300Y-48109680D02*
X75980300Y-48109680D01*
G75*
G02*
X76217800Y-48347180I0J-237500D01*
G01*
X76217800Y-48922180D01*
G75*
G02*
X75980300Y-49159680I-237500J0D01*
G01*
X75505300Y-49159680D01*
G75*
G02*
X75267800Y-48922180I0J237500D01*
G01*
X75267800Y-48347180D01*
G75*
G02*
X75505300Y-48109680I237500J0D01*
G01*
G37*
%TD*%
D17*
%TO.C,U14*%
X54284840Y-55589740D03*
X54284840Y-56089740D03*
X54284840Y-56589740D03*
X54284840Y-57089740D03*
X56184840Y-57089740D03*
X56184840Y-56589740D03*
X56184840Y-56089740D03*
X56184840Y-55589740D03*
%TD*%
%TO.C,U8*%
X41470540Y-55805640D03*
X41470540Y-56305640D03*
X41470540Y-56805640D03*
X41470540Y-57305640D03*
X43370540Y-57305640D03*
X43370540Y-56805640D03*
X43370540Y-56305640D03*
X43370540Y-55805640D03*
%TD*%
D18*
%TO.C,L2*%
X59514740Y-53709840D03*
X59514740Y-56759840D03*
%TD*%
%TO.C,L1*%
X46687740Y-53760640D03*
X46687740Y-56810640D03*
%TD*%
%TO.C,C32*%
G36*
G01*
X51536440Y-55879640D02*
X52786440Y-55879640D01*
G75*
G02*
X53036440Y-56129640I0J-250000D01*
G01*
X53036440Y-57054640D01*
G75*
G02*
X52786440Y-57304640I-250000J0D01*
G01*
X51536440Y-57304640D01*
G75*
G02*
X51286440Y-57054640I0J250000D01*
G01*
X51286440Y-56129640D01*
G75*
G02*
X51536440Y-55879640I250000J0D01*
G01*
G37*
G36*
G01*
X51536440Y-58854640D02*
X52786440Y-58854640D01*
G75*
G02*
X53036440Y-59104640I0J-250000D01*
G01*
X53036440Y-60029640D01*
G75*
G02*
X52786440Y-60279640I-250000J0D01*
G01*
X51536440Y-60279640D01*
G75*
G02*
X51286440Y-60029640I0J250000D01*
G01*
X51286440Y-59104640D01*
G75*
G02*
X51536440Y-58854640I250000J0D01*
G01*
G37*
%TD*%
%TO.C,C31*%
G36*
G01*
X59289040Y-58642940D02*
X59289040Y-60792940D01*
G75*
G02*
X59039040Y-61042940I-250000J0D01*
G01*
X58114040Y-61042940D01*
G75*
G02*
X57864040Y-60792940I0J250000D01*
G01*
X57864040Y-58642940D01*
G75*
G02*
X58114040Y-58392940I250000J0D01*
G01*
X59039040Y-58392940D01*
G75*
G02*
X59289040Y-58642940I0J-250000D01*
G01*
G37*
G36*
G01*
X56314040Y-58642940D02*
X56314040Y-60792940D01*
G75*
G02*
X56064040Y-61042940I-250000J0D01*
G01*
X55139040Y-61042940D01*
G75*
G02*
X54889040Y-60792940I0J250000D01*
G01*
X54889040Y-58642940D01*
G75*
G02*
X55139040Y-58392940I250000J0D01*
G01*
X56064040Y-58392940D01*
G75*
G02*
X56314040Y-58642940I0J-250000D01*
G01*
G37*
%TD*%
%TO.C,C30*%
G36*
G01*
X52031540Y-54183440D02*
X52031540Y-52933440D01*
G75*
G02*
X52281540Y-52683440I250000J0D01*
G01*
X53206540Y-52683440D01*
G75*
G02*
X53456540Y-52933440I0J-250000D01*
G01*
X53456540Y-54183440D01*
G75*
G02*
X53206540Y-54433440I-250000J0D01*
G01*
X52281540Y-54433440D01*
G75*
G02*
X52031540Y-54183440I0J250000D01*
G01*
G37*
G36*
G01*
X55006540Y-54183440D02*
X55006540Y-52933440D01*
G75*
G02*
X55256540Y-52683440I250000J0D01*
G01*
X56181540Y-52683440D01*
G75*
G02*
X56431540Y-52933440I0J-250000D01*
G01*
X56431540Y-54183440D01*
G75*
G02*
X56181540Y-54433440I-250000J0D01*
G01*
X55256540Y-54433440D01*
G75*
G02*
X55006540Y-54183440I0J250000D01*
G01*
G37*
%TD*%
%TO.C,C29*%
G36*
G01*
X38645940Y-56133640D02*
X39895940Y-56133640D01*
G75*
G02*
X40145940Y-56383640I0J-250000D01*
G01*
X40145940Y-57308640D01*
G75*
G02*
X39895940Y-57558640I-250000J0D01*
G01*
X38645940Y-57558640D01*
G75*
G02*
X38395940Y-57308640I0J250000D01*
G01*
X38395940Y-56383640D01*
G75*
G02*
X38645940Y-56133640I250000J0D01*
G01*
G37*
G36*
G01*
X38645940Y-59108640D02*
X39895940Y-59108640D01*
G75*
G02*
X40145940Y-59358640I0J-250000D01*
G01*
X40145940Y-60283640D01*
G75*
G02*
X39895940Y-60533640I-250000J0D01*
G01*
X38645940Y-60533640D01*
G75*
G02*
X38395940Y-60283640I0J250000D01*
G01*
X38395940Y-59358640D01*
G75*
G02*
X38645940Y-59108640I250000J0D01*
G01*
G37*
%TD*%
%TO.C,C28*%
G36*
G01*
X39407740Y-54285040D02*
X39407740Y-53035040D01*
G75*
G02*
X39657740Y-52785040I250000J0D01*
G01*
X40582740Y-52785040D01*
G75*
G02*
X40832740Y-53035040I0J-250000D01*
G01*
X40832740Y-54285040D01*
G75*
G02*
X40582740Y-54535040I-250000J0D01*
G01*
X39657740Y-54535040D01*
G75*
G02*
X39407740Y-54285040I0J250000D01*
G01*
G37*
G36*
G01*
X42382740Y-54285040D02*
X42382740Y-53035040D01*
G75*
G02*
X42632740Y-52785040I250000J0D01*
G01*
X43557740Y-52785040D01*
G75*
G02*
X43807740Y-53035040I0J-250000D01*
G01*
X43807740Y-54285040D01*
G75*
G02*
X43557740Y-54535040I-250000J0D01*
G01*
X42632740Y-54535040D01*
G75*
G02*
X42382740Y-54285040I0J250000D01*
G01*
G37*
%TD*%
%TO.C,C27*%
G36*
G01*
X46347740Y-58782640D02*
X46347740Y-60932640D01*
G75*
G02*
X46097740Y-61182640I-250000J0D01*
G01*
X45172740Y-61182640D01*
G75*
G02*
X44922740Y-60932640I0J250000D01*
G01*
X44922740Y-58782640D01*
G75*
G02*
X45172740Y-58532640I250000J0D01*
G01*
X46097740Y-58532640D01*
G75*
G02*
X46347740Y-58782640I0J-250000D01*
G01*
G37*
G36*
G01*
X43372740Y-58782640D02*
X43372740Y-60932640D01*
G75*
G02*
X43122740Y-61182640I-250000J0D01*
G01*
X42197740Y-61182640D01*
G75*
G02*
X41947740Y-60932640I0J250000D01*
G01*
X41947740Y-58782640D01*
G75*
G02*
X42197740Y-58532640I250000J0D01*
G01*
X43122740Y-58532640D01*
G75*
G02*
X43372740Y-58782640I0J-250000D01*
G01*
G37*
%TD*%
%TO.C,U13*%
G36*
G01*
X79201600Y-30706200D02*
X79201600Y-30406200D01*
G75*
G02*
X79351600Y-30256200I150000J0D01*
G01*
X81001600Y-30256200D01*
G75*
G02*
X81151600Y-30406200I0J-150000D01*
G01*
X81151600Y-30706200D01*
G75*
G02*
X81001600Y-30856200I-150000J0D01*
G01*
X79351600Y-30856200D01*
G75*
G02*
X79201600Y-30706200I0J150000D01*
G01*
G37*
G36*
G01*
X79201600Y-31976200D02*
X79201600Y-31676200D01*
G75*
G02*
X79351600Y-31526200I150000J0D01*
G01*
X81001600Y-31526200D01*
G75*
G02*
X81151600Y-31676200I0J-150000D01*
G01*
X81151600Y-31976200D01*
G75*
G02*
X81001600Y-32126200I-150000J0D01*
G01*
X79351600Y-32126200D01*
G75*
G02*
X79201600Y-31976200I0J150000D01*
G01*
G37*
G36*
G01*
X79201600Y-33246200D02*
X79201600Y-32946200D01*
G75*
G02*
X79351600Y-32796200I150000J0D01*
G01*
X81001600Y-32796200D01*
G75*
G02*
X81151600Y-32946200I0J-150000D01*
G01*
X81151600Y-33246200D01*
G75*
G02*
X81001600Y-33396200I-150000J0D01*
G01*
X79351600Y-33396200D01*
G75*
G02*
X79201600Y-33246200I0J150000D01*
G01*
G37*
G36*
G01*
X79201600Y-34516200D02*
X79201600Y-34216200D01*
G75*
G02*
X79351600Y-34066200I150000J0D01*
G01*
X81001600Y-34066200D01*
G75*
G02*
X81151600Y-34216200I0J-150000D01*
G01*
X81151600Y-34516200D01*
G75*
G02*
X81001600Y-34666200I-150000J0D01*
G01*
X79351600Y-34666200D01*
G75*
G02*
X79201600Y-34516200I0J150000D01*
G01*
G37*
G36*
G01*
X84151600Y-34516200D02*
X84151600Y-34216200D01*
G75*
G02*
X84301600Y-34066200I150000J0D01*
G01*
X85951600Y-34066200D01*
G75*
G02*
X86101600Y-34216200I0J-150000D01*
G01*
X86101600Y-34516200D01*
G75*
G02*
X85951600Y-34666200I-150000J0D01*
G01*
X84301600Y-34666200D01*
G75*
G02*
X84151600Y-34516200I0J150000D01*
G01*
G37*
G36*
G01*
X84151600Y-33246200D02*
X84151600Y-32946200D01*
G75*
G02*
X84301600Y-32796200I150000J0D01*
G01*
X85951600Y-32796200D01*
G75*
G02*
X86101600Y-32946200I0J-150000D01*
G01*
X86101600Y-33246200D01*
G75*
G02*
X85951600Y-33396200I-150000J0D01*
G01*
X84301600Y-33396200D01*
G75*
G02*
X84151600Y-33246200I0J150000D01*
G01*
G37*
G36*
G01*
X84151600Y-31976200D02*
X84151600Y-31676200D01*
G75*
G02*
X84301600Y-31526200I150000J0D01*
G01*
X85951600Y-31526200D01*
G75*
G02*
X86101600Y-31676200I0J-150000D01*
G01*
X86101600Y-31976200D01*
G75*
G02*
X85951600Y-32126200I-150000J0D01*
G01*
X84301600Y-32126200D01*
G75*
G02*
X84151600Y-31976200I0J150000D01*
G01*
G37*
G36*
G01*
X84151600Y-30706200D02*
X84151600Y-30406200D01*
G75*
G02*
X84301600Y-30256200I150000J0D01*
G01*
X85951600Y-30256200D01*
G75*
G02*
X86101600Y-30406200I0J-150000D01*
G01*
X86101600Y-30706200D01*
G75*
G02*
X85951600Y-30856200I-150000J0D01*
G01*
X84301600Y-30856200D01*
G75*
G02*
X84151600Y-30706200I0J150000D01*
G01*
G37*
%TD*%
%TO.C,U9*%
G36*
G01*
X52531600Y-30680800D02*
X52531600Y-30380800D01*
G75*
G02*
X52681600Y-30230800I150000J0D01*
G01*
X54331600Y-30230800D01*
G75*
G02*
X54481600Y-30380800I0J-150000D01*
G01*
X54481600Y-30680800D01*
G75*
G02*
X54331600Y-30830800I-150000J0D01*
G01*
X52681600Y-30830800D01*
G75*
G02*
X52531600Y-30680800I0J150000D01*
G01*
G37*
G36*
G01*
X52531600Y-31950800D02*
X52531600Y-31650800D01*
G75*
G02*
X52681600Y-31500800I150000J0D01*
G01*
X54331600Y-31500800D01*
G75*
G02*
X54481600Y-31650800I0J-150000D01*
G01*
X54481600Y-31950800D01*
G75*
G02*
X54331600Y-32100800I-150000J0D01*
G01*
X52681600Y-32100800D01*
G75*
G02*
X52531600Y-31950800I0J150000D01*
G01*
G37*
G36*
G01*
X52531600Y-33220800D02*
X52531600Y-32920800D01*
G75*
G02*
X52681600Y-32770800I150000J0D01*
G01*
X54331600Y-32770800D01*
G75*
G02*
X54481600Y-32920800I0J-150000D01*
G01*
X54481600Y-33220800D01*
G75*
G02*
X54331600Y-33370800I-150000J0D01*
G01*
X52681600Y-33370800D01*
G75*
G02*
X52531600Y-33220800I0J150000D01*
G01*
G37*
G36*
G01*
X52531600Y-34490800D02*
X52531600Y-34190800D01*
G75*
G02*
X52681600Y-34040800I150000J0D01*
G01*
X54331600Y-34040800D01*
G75*
G02*
X54481600Y-34190800I0J-150000D01*
G01*
X54481600Y-34490800D01*
G75*
G02*
X54331600Y-34640800I-150000J0D01*
G01*
X52681600Y-34640800D01*
G75*
G02*
X52531600Y-34490800I0J150000D01*
G01*
G37*
G36*
G01*
X57481600Y-34490800D02*
X57481600Y-34190800D01*
G75*
G02*
X57631600Y-34040800I150000J0D01*
G01*
X59281600Y-34040800D01*
G75*
G02*
X59431600Y-34190800I0J-150000D01*
G01*
X59431600Y-34490800D01*
G75*
G02*
X59281600Y-34640800I-150000J0D01*
G01*
X57631600Y-34640800D01*
G75*
G02*
X57481600Y-34490800I0J150000D01*
G01*
G37*
G36*
G01*
X57481600Y-33220800D02*
X57481600Y-32920800D01*
G75*
G02*
X57631600Y-32770800I150000J0D01*
G01*
X59281600Y-32770800D01*
G75*
G02*
X59431600Y-32920800I0J-150000D01*
G01*
X59431600Y-33220800D01*
G75*
G02*
X59281600Y-33370800I-150000J0D01*
G01*
X57631600Y-33370800D01*
G75*
G02*
X57481600Y-33220800I0J150000D01*
G01*
G37*
G36*
G01*
X57481600Y-31950800D02*
X57481600Y-31650800D01*
G75*
G02*
X57631600Y-31500800I150000J0D01*
G01*
X59281600Y-31500800D01*
G75*
G02*
X59431600Y-31650800I0J-150000D01*
G01*
X59431600Y-31950800D01*
G75*
G02*
X59281600Y-32100800I-150000J0D01*
G01*
X57631600Y-32100800D01*
G75*
G02*
X57481600Y-31950800I0J150000D01*
G01*
G37*
G36*
G01*
X57481600Y-30680800D02*
X57481600Y-30380800D01*
G75*
G02*
X57631600Y-30230800I150000J0D01*
G01*
X59281600Y-30230800D01*
G75*
G02*
X59431600Y-30380800I0J-150000D01*
G01*
X59431600Y-30680800D01*
G75*
G02*
X59281600Y-30830800I-150000J0D01*
G01*
X57631600Y-30830800D01*
G75*
G02*
X57481600Y-30680800I0J150000D01*
G01*
G37*
%TD*%
%TO.C,R32*%
G36*
G01*
X83359800Y-38680400D02*
X83359800Y-38205400D01*
G75*
G02*
X83597300Y-37967900I237500J0D01*
G01*
X84172300Y-37967900D01*
G75*
G02*
X84409800Y-38205400I0J-237500D01*
G01*
X84409800Y-38680400D01*
G75*
G02*
X84172300Y-38917900I-237500J0D01*
G01*
X83597300Y-38917900D01*
G75*
G02*
X83359800Y-38680400I0J237500D01*
G01*
G37*
G36*
G01*
X85109800Y-38680400D02*
X85109800Y-38205400D01*
G75*
G02*
X85347300Y-37967900I237500J0D01*
G01*
X85922300Y-37967900D01*
G75*
G02*
X86159800Y-38205400I0J-237500D01*
G01*
X86159800Y-38680400D01*
G75*
G02*
X85922300Y-38917900I-237500J0D01*
G01*
X85347300Y-38917900D01*
G75*
G02*
X85109800Y-38680400I0J237500D01*
G01*
G37*
%TD*%
%TO.C,R30*%
G36*
G01*
X86158500Y-36313100D02*
X86158500Y-36788100D01*
G75*
G02*
X85921000Y-37025600I-237500J0D01*
G01*
X85346000Y-37025600D01*
G75*
G02*
X85108500Y-36788100I0J237500D01*
G01*
X85108500Y-36313100D01*
G75*
G02*
X85346000Y-36075600I237500J0D01*
G01*
X85921000Y-36075600D01*
G75*
G02*
X86158500Y-36313100I0J-237500D01*
G01*
G37*
G36*
G01*
X84408500Y-36313100D02*
X84408500Y-36788100D01*
G75*
G02*
X84171000Y-37025600I-237500J0D01*
G01*
X83596000Y-37025600D01*
G75*
G02*
X83358500Y-36788100I0J237500D01*
G01*
X83358500Y-36313100D01*
G75*
G02*
X83596000Y-36075600I237500J0D01*
G01*
X84171000Y-36075600D01*
G75*
G02*
X84408500Y-36313100I0J-237500D01*
G01*
G37*
%TD*%
%TO.C,R27*%
G36*
G01*
X78330600Y-36813500D02*
X78330600Y-36338500D01*
G75*
G02*
X78568100Y-36101000I237500J0D01*
G01*
X79143100Y-36101000D01*
G75*
G02*
X79380600Y-36338500I0J-237500D01*
G01*
X79380600Y-36813500D01*
G75*
G02*
X79143100Y-37051000I-237500J0D01*
G01*
X78568100Y-37051000D01*
G75*
G02*
X78330600Y-36813500I0J237500D01*
G01*
G37*
G36*
G01*
X80080600Y-36813500D02*
X80080600Y-36338500D01*
G75*
G02*
X80318100Y-36101000I237500J0D01*
G01*
X80893100Y-36101000D01*
G75*
G02*
X81130600Y-36338500I0J-237500D01*
G01*
X81130600Y-36813500D01*
G75*
G02*
X80893100Y-37051000I-237500J0D01*
G01*
X80318100Y-37051000D01*
G75*
G02*
X80080600Y-36813500I0J237500D01*
G01*
G37*
%TD*%
%TO.C,R25*%
G36*
G01*
X87740500Y-34940700D02*
X87265500Y-34940700D01*
G75*
G02*
X87028000Y-34703200I0J237500D01*
G01*
X87028000Y-34128200D01*
G75*
G02*
X87265500Y-33890700I237500J0D01*
G01*
X87740500Y-33890700D01*
G75*
G02*
X87978000Y-34128200I0J-237500D01*
G01*
X87978000Y-34703200D01*
G75*
G02*
X87740500Y-34940700I-237500J0D01*
G01*
G37*
G36*
G01*
X87740500Y-33190700D02*
X87265500Y-33190700D01*
G75*
G02*
X87028000Y-32953200I0J237500D01*
G01*
X87028000Y-32378200D01*
G75*
G02*
X87265500Y-32140700I237500J0D01*
G01*
X87740500Y-32140700D01*
G75*
G02*
X87978000Y-32378200I0J-237500D01*
G01*
X87978000Y-32953200D01*
G75*
G02*
X87740500Y-33190700I-237500J0D01*
G01*
G37*
%TD*%
%TO.C,R24*%
G36*
G01*
X56766000Y-38794700D02*
X56766000Y-38319700D01*
G75*
G02*
X57003500Y-38082200I237500J0D01*
G01*
X57578500Y-38082200D01*
G75*
G02*
X57816000Y-38319700I0J-237500D01*
G01*
X57816000Y-38794700D01*
G75*
G02*
X57578500Y-39032200I-237500J0D01*
G01*
X57003500Y-39032200D01*
G75*
G02*
X56766000Y-38794700I0J237500D01*
G01*
G37*
G36*
G01*
X58516000Y-38794700D02*
X58516000Y-38319700D01*
G75*
G02*
X58753500Y-38082200I237500J0D01*
G01*
X59328500Y-38082200D01*
G75*
G02*
X59566000Y-38319700I0J-237500D01*
G01*
X59566000Y-38794700D01*
G75*
G02*
X59328500Y-39032200I-237500J0D01*
G01*
X58753500Y-39032200D01*
G75*
G02*
X58516000Y-38794700I0J237500D01*
G01*
G37*
%TD*%
%TO.C,R21*%
G36*
G01*
X59515200Y-36313100D02*
X59515200Y-36788100D01*
G75*
G02*
X59277700Y-37025600I-237500J0D01*
G01*
X58702700Y-37025600D01*
G75*
G02*
X58465200Y-36788100I0J237500D01*
G01*
X58465200Y-36313100D01*
G75*
G02*
X58702700Y-36075600I237500J0D01*
G01*
X59277700Y-36075600D01*
G75*
G02*
X59515200Y-36313100I0J-237500D01*
G01*
G37*
G36*
G01*
X57765200Y-36313100D02*
X57765200Y-36788100D01*
G75*
G02*
X57527700Y-37025600I-237500J0D01*
G01*
X56952700Y-37025600D01*
G75*
G02*
X56715200Y-36788100I0J237500D01*
G01*
X56715200Y-36313100D01*
G75*
G02*
X56952700Y-36075600I237500J0D01*
G01*
X57527700Y-36075600D01*
G75*
G02*
X57765200Y-36313100I0J-237500D01*
G01*
G37*
%TD*%
%TO.C,R18*%
G36*
G01*
X61057800Y-34864500D02*
X60582800Y-34864500D01*
G75*
G02*
X60345300Y-34627000I0J237500D01*
G01*
X60345300Y-34052000D01*
G75*
G02*
X60582800Y-33814500I237500J0D01*
G01*
X61057800Y-33814500D01*
G75*
G02*
X61295300Y-34052000I0J-237500D01*
G01*
X61295300Y-34627000D01*
G75*
G02*
X61057800Y-34864500I-237500J0D01*
G01*
G37*
G36*
G01*
X61057800Y-33114500D02*
X60582800Y-33114500D01*
G75*
G02*
X60345300Y-32877000I0J237500D01*
G01*
X60345300Y-32302000D01*
G75*
G02*
X60582800Y-32064500I237500J0D01*
G01*
X61057800Y-32064500D01*
G75*
G02*
X61295300Y-32302000I0J-237500D01*
G01*
X61295300Y-32877000D01*
G75*
G02*
X61057800Y-33114500I-237500J0D01*
G01*
G37*
%TD*%
%TO.C,C37*%
G36*
G01*
X75379000Y-30439000D02*
X77529000Y-30439000D01*
G75*
G02*
X77779000Y-30689000I0J-250000D01*
G01*
X77779000Y-31614000D01*
G75*
G02*
X77529000Y-31864000I-250000J0D01*
G01*
X75379000Y-31864000D01*
G75*
G02*
X75129000Y-31614000I0J250000D01*
G01*
X75129000Y-30689000D01*
G75*
G02*
X75379000Y-30439000I250000J0D01*
G01*
G37*
G36*
G01*
X75379000Y-33414000D02*
X77529000Y-33414000D01*
G75*
G02*
X77779000Y-33664000I0J-250000D01*
G01*
X77779000Y-34589000D01*
G75*
G02*
X77529000Y-34839000I-250000J0D01*
G01*
X75379000Y-34839000D01*
G75*
G02*
X75129000Y-34589000I0J250000D01*
G01*
X75129000Y-33664000D01*
G75*
G02*
X75379000Y-33414000I250000J0D01*
G01*
G37*
%TD*%
%TO.C,C33*%
G36*
G01*
X48836000Y-29677000D02*
X50986000Y-29677000D01*
G75*
G02*
X51236000Y-29927000I0J-250000D01*
G01*
X51236000Y-30852000D01*
G75*
G02*
X50986000Y-31102000I-250000J0D01*
G01*
X48836000Y-31102000D01*
G75*
G02*
X48586000Y-30852000I0J250000D01*
G01*
X48586000Y-29927000D01*
G75*
G02*
X48836000Y-29677000I250000J0D01*
G01*
G37*
G36*
G01*
X48836000Y-32652000D02*
X50986000Y-32652000D01*
G75*
G02*
X51236000Y-32902000I0J-250000D01*
G01*
X51236000Y-33827000D01*
G75*
G02*
X50986000Y-34077000I-250000J0D01*
G01*
X48836000Y-34077000D01*
G75*
G02*
X48586000Y-33827000I0J250000D01*
G01*
X48586000Y-32902000D01*
G75*
G02*
X48836000Y-32652000I250000J0D01*
G01*
G37*
%TD*%
D19*
%TO.C,AE1*%
X135527200Y-31699200D03*
D20*
X135527200Y-36079200D03*
X135527200Y-27319200D03*
%TD*%
D21*
%TO.C,D13*%
X64262000Y-60552600D03*
X64262000Y-57252600D03*
%TD*%
%TO.C,C54*%
G36*
G01*
X132553700Y-64081200D02*
X133028700Y-64081200D01*
G75*
G02*
X133266200Y-64318700I0J-237500D01*
G01*
X133266200Y-64893700D01*
G75*
G02*
X133028700Y-65131200I-237500J0D01*
G01*
X132553700Y-65131200D01*
G75*
G02*
X132316200Y-64893700I0J237500D01*
G01*
X132316200Y-64318700D01*
G75*
G02*
X132553700Y-64081200I237500J0D01*
G01*
G37*
G36*
G01*
X132553700Y-65831200D02*
X133028700Y-65831200D01*
G75*
G02*
X133266200Y-66068700I0J-237500D01*
G01*
X133266200Y-66643700D01*
G75*
G02*
X133028700Y-66881200I-237500J0D01*
G01*
X132553700Y-66881200D01*
G75*
G02*
X132316200Y-66643700I0J237500D01*
G01*
X132316200Y-66068700D01*
G75*
G02*
X132553700Y-65831200I237500J0D01*
G01*
G37*
%TD*%
D22*
%TO.C,BT1*%
X123581800Y-85407500D03*
X44921800Y-85407500D03*
%TD*%
%TO.C,C1*%
G36*
G01*
X110938300Y-69593000D02*
X111413300Y-69593000D01*
G75*
G02*
X111650800Y-69830500I0J-237500D01*
G01*
X111650800Y-70405500D01*
G75*
G02*
X111413300Y-70643000I-237500J0D01*
G01*
X110938300Y-70643000D01*
G75*
G02*
X110700800Y-70405500I0J237500D01*
G01*
X110700800Y-69830500D01*
G75*
G02*
X110938300Y-69593000I237500J0D01*
G01*
G37*
G36*
G01*
X110938300Y-71343000D02*
X111413300Y-71343000D01*
G75*
G02*
X111650800Y-71580500I0J-237500D01*
G01*
X111650800Y-72155500D01*
G75*
G02*
X111413300Y-72393000I-237500J0D01*
G01*
X110938300Y-72393000D01*
G75*
G02*
X110700800Y-72155500I0J237500D01*
G01*
X110700800Y-71580500D01*
G75*
G02*
X110938300Y-71343000I237500J0D01*
G01*
G37*
%TD*%
%TO.C,C2*%
G36*
G01*
X99856300Y-46386000D02*
X99381300Y-46386000D01*
G75*
G02*
X99143800Y-46148500I0J237500D01*
G01*
X99143800Y-45573500D01*
G75*
G02*
X99381300Y-45336000I237500J0D01*
G01*
X99856300Y-45336000D01*
G75*
G02*
X100093800Y-45573500I0J-237500D01*
G01*
X100093800Y-46148500D01*
G75*
G02*
X99856300Y-46386000I-237500J0D01*
G01*
G37*
G36*
G01*
X99856300Y-48136000D02*
X99381300Y-48136000D01*
G75*
G02*
X99143800Y-47898500I0J237500D01*
G01*
X99143800Y-47323500D01*
G75*
G02*
X99381300Y-47086000I237500J0D01*
G01*
X99856300Y-47086000D01*
G75*
G02*
X100093800Y-47323500I0J-237500D01*
G01*
X100093800Y-47898500D01*
G75*
G02*
X99856300Y-48136000I-237500J0D01*
G01*
G37*
%TD*%
%TO.C,C3*%
G36*
G01*
X96065800Y-65421500D02*
X96065800Y-65896500D01*
G75*
G02*
X95828300Y-66134000I-237500J0D01*
G01*
X95253300Y-66134000D01*
G75*
G02*
X95015800Y-65896500I0J237500D01*
G01*
X95015800Y-65421500D01*
G75*
G02*
X95253300Y-65184000I237500J0D01*
G01*
X95828300Y-65184000D01*
G75*
G02*
X96065800Y-65421500I0J-237500D01*
G01*
G37*
G36*
G01*
X94315800Y-65421500D02*
X94315800Y-65896500D01*
G75*
G02*
X94078300Y-66134000I-237500J0D01*
G01*
X93503300Y-66134000D01*
G75*
G02*
X93265800Y-65896500I0J237500D01*
G01*
X93265800Y-65421500D01*
G75*
G02*
X93503300Y-65184000I237500J0D01*
G01*
X94078300Y-65184000D01*
G75*
G02*
X94315800Y-65421500I0J-237500D01*
G01*
G37*
%TD*%
%TO.C,C4*%
G36*
G01*
X118129800Y-51672500D02*
X118129800Y-51197500D01*
G75*
G02*
X118367300Y-50960000I237500J0D01*
G01*
X118942300Y-50960000D01*
G75*
G02*
X119179800Y-51197500I0J-237500D01*
G01*
X119179800Y-51672500D01*
G75*
G02*
X118942300Y-51910000I-237500J0D01*
G01*
X118367300Y-51910000D01*
G75*
G02*
X118129800Y-51672500I0J237500D01*
G01*
G37*
G36*
G01*
X116379800Y-51672500D02*
X116379800Y-51197500D01*
G75*
G02*
X116617300Y-50960000I237500J0D01*
G01*
X117192300Y-50960000D01*
G75*
G02*
X117429800Y-51197500I0J-237500D01*
G01*
X117429800Y-51672500D01*
G75*
G02*
X117192300Y-51910000I-237500J0D01*
G01*
X116617300Y-51910000D01*
G75*
G02*
X116379800Y-51672500I0J237500D01*
G01*
G37*
%TD*%
%TO.C,C5*%
G36*
G01*
X116506800Y-65642500D02*
X116506800Y-65167500D01*
G75*
G02*
X116744300Y-64930000I237500J0D01*
G01*
X117319300Y-64930000D01*
G75*
G02*
X117556800Y-65167500I0J-237500D01*
G01*
X117556800Y-65642500D01*
G75*
G02*
X117319300Y-65880000I-237500J0D01*
G01*
X116744300Y-65880000D01*
G75*
G02*
X116506800Y-65642500I0J237500D01*
G01*
G37*
G36*
G01*
X118256800Y-65642500D02*
X118256800Y-65167500D01*
G75*
G02*
X118494300Y-64930000I237500J0D01*
G01*
X119069300Y-64930000D01*
G75*
G02*
X119306800Y-65167500I0J-237500D01*
G01*
X119306800Y-65642500D01*
G75*
G02*
X119069300Y-65880000I-237500J0D01*
G01*
X118494300Y-65880000D01*
G75*
G02*
X118256800Y-65642500I0J237500D01*
G01*
G37*
%TD*%
%TO.C,C6*%
G36*
G01*
X109160300Y-71343000D02*
X109635300Y-71343000D01*
G75*
G02*
X109872800Y-71580500I0J-237500D01*
G01*
X109872800Y-72155500D01*
G75*
G02*
X109635300Y-72393000I-237500J0D01*
G01*
X109160300Y-72393000D01*
G75*
G02*
X108922800Y-72155500I0J237500D01*
G01*
X108922800Y-71580500D01*
G75*
G02*
X109160300Y-71343000I237500J0D01*
G01*
G37*
G36*
G01*
X109160300Y-69593000D02*
X109635300Y-69593000D01*
G75*
G02*
X109872800Y-69830500I0J-237500D01*
G01*
X109872800Y-70405500D01*
G75*
G02*
X109635300Y-70643000I-237500J0D01*
G01*
X109160300Y-70643000D01*
G75*
G02*
X108922800Y-70405500I0J237500D01*
G01*
X108922800Y-69830500D01*
G75*
G02*
X109160300Y-69593000I237500J0D01*
G01*
G37*
%TD*%
%TO.C,C7*%
G36*
G01*
X96065800Y-67199500D02*
X96065800Y-67674500D01*
G75*
G02*
X95828300Y-67912000I-237500J0D01*
G01*
X95253300Y-67912000D01*
G75*
G02*
X95015800Y-67674500I0J237500D01*
G01*
X95015800Y-67199500D01*
G75*
G02*
X95253300Y-66962000I237500J0D01*
G01*
X95828300Y-66962000D01*
G75*
G02*
X96065800Y-67199500I0J-237500D01*
G01*
G37*
G36*
G01*
X94315800Y-67199500D02*
X94315800Y-67674500D01*
G75*
G02*
X94078300Y-67912000I-237500J0D01*
G01*
X93503300Y-67912000D01*
G75*
G02*
X93265800Y-67674500I0J237500D01*
G01*
X93265800Y-67199500D01*
G75*
G02*
X93503300Y-66962000I237500J0D01*
G01*
X94078300Y-66962000D01*
G75*
G02*
X94315800Y-67199500I0J-237500D01*
G01*
G37*
%TD*%
%TO.C,C8*%
G36*
G01*
X112716300Y-71329000D02*
X113191300Y-71329000D01*
G75*
G02*
X113428800Y-71566500I0J-237500D01*
G01*
X113428800Y-72141500D01*
G75*
G02*
X113191300Y-72379000I-237500J0D01*
G01*
X112716300Y-72379000D01*
G75*
G02*
X112478800Y-72141500I0J237500D01*
G01*
X112478800Y-71566500D01*
G75*
G02*
X112716300Y-71329000I237500J0D01*
G01*
G37*
G36*
G01*
X112716300Y-69579000D02*
X113191300Y-69579000D01*
G75*
G02*
X113428800Y-69816500I0J-237500D01*
G01*
X113428800Y-70391500D01*
G75*
G02*
X113191300Y-70629000I-237500J0D01*
G01*
X112716300Y-70629000D01*
G75*
G02*
X112478800Y-70391500I0J237500D01*
G01*
X112478800Y-69816500D01*
G75*
G02*
X112716300Y-69579000I237500J0D01*
G01*
G37*
%TD*%
%TO.C,C9*%
G36*
G01*
X118356800Y-49726001D02*
X118356800Y-48825999D01*
G75*
G02*
X118606799Y-48576000I249999J0D01*
G01*
X119256801Y-48576000D01*
G75*
G02*
X119506800Y-48825999I0J-249999D01*
G01*
X119506800Y-49726001D01*
G75*
G02*
X119256801Y-49976000I-249999J0D01*
G01*
X118606799Y-49976000D01*
G75*
G02*
X118356800Y-49726001I0J249999D01*
G01*
G37*
G36*
G01*
X116306800Y-49726001D02*
X116306800Y-48825999D01*
G75*
G02*
X116556799Y-48576000I249999J0D01*
G01*
X117206801Y-48576000D01*
G75*
G02*
X117456800Y-48825999I0J-249999D01*
G01*
X117456800Y-49726001D01*
G75*
G02*
X117206801Y-49976000I-249999J0D01*
G01*
X116556799Y-49976000D01*
G75*
G02*
X116306800Y-49726001I0J249999D01*
G01*
G37*
%TD*%
%TO.C,C10*%
G36*
G01*
X114494300Y-71343000D02*
X114969300Y-71343000D01*
G75*
G02*
X115206800Y-71580500I0J-237500D01*
G01*
X115206800Y-72155500D01*
G75*
G02*
X114969300Y-72393000I-237500J0D01*
G01*
X114494300Y-72393000D01*
G75*
G02*
X114256800Y-72155500I0J237500D01*
G01*
X114256800Y-71580500D01*
G75*
G02*
X114494300Y-71343000I237500J0D01*
G01*
G37*
G36*
G01*
X114494300Y-69593000D02*
X114969300Y-69593000D01*
G75*
G02*
X115206800Y-69830500I0J-237500D01*
G01*
X115206800Y-70405500D01*
G75*
G02*
X114969300Y-70643000I-237500J0D01*
G01*
X114494300Y-70643000D01*
G75*
G02*
X114256800Y-70405500I0J237500D01*
G01*
X114256800Y-69830500D01*
G75*
G02*
X114494300Y-69593000I237500J0D01*
G01*
G37*
%TD*%
%TO.C,C11*%
G36*
G01*
X118129800Y-53577500D02*
X118129800Y-53102500D01*
G75*
G02*
X118367300Y-52865000I237500J0D01*
G01*
X118942300Y-52865000D01*
G75*
G02*
X119179800Y-53102500I0J-237500D01*
G01*
X119179800Y-53577500D01*
G75*
G02*
X118942300Y-53815000I-237500J0D01*
G01*
X118367300Y-53815000D01*
G75*
G02*
X118129800Y-53577500I0J237500D01*
G01*
G37*
G36*
G01*
X116379800Y-53577500D02*
X116379800Y-53102500D01*
G75*
G02*
X116617300Y-52865000I237500J0D01*
G01*
X117192300Y-52865000D01*
G75*
G02*
X117429800Y-53102500I0J-237500D01*
G01*
X117429800Y-53577500D01*
G75*
G02*
X117192300Y-53815000I-237500J0D01*
G01*
X116617300Y-53815000D01*
G75*
G02*
X116379800Y-53577500I0J237500D01*
G01*
G37*
%TD*%
%TO.C,C12*%
G36*
G01*
X101761300Y-48136000D02*
X101286300Y-48136000D01*
G75*
G02*
X101048800Y-47898500I0J237500D01*
G01*
X101048800Y-47323500D01*
G75*
G02*
X101286300Y-47086000I237500J0D01*
G01*
X101761300Y-47086000D01*
G75*
G02*
X101998800Y-47323500I0J-237500D01*
G01*
X101998800Y-47898500D01*
G75*
G02*
X101761300Y-48136000I-237500J0D01*
G01*
G37*
G36*
G01*
X101761300Y-46386000D02*
X101286300Y-46386000D01*
G75*
G02*
X101048800Y-46148500I0J237500D01*
G01*
X101048800Y-45573500D01*
G75*
G02*
X101286300Y-45336000I237500J0D01*
G01*
X101761300Y-45336000D01*
G75*
G02*
X101998800Y-45573500I0J-237500D01*
G01*
X101998800Y-46148500D01*
G75*
G02*
X101761300Y-46386000I-237500J0D01*
G01*
G37*
%TD*%
%TO.C,C13*%
G36*
G01*
X129086600Y-76411600D02*
X129561600Y-76411600D01*
G75*
G02*
X129799100Y-76649100I0J-237500D01*
G01*
X129799100Y-77224100D01*
G75*
G02*
X129561600Y-77461600I-237500J0D01*
G01*
X129086600Y-77461600D01*
G75*
G02*
X128849100Y-77224100I0J237500D01*
G01*
X128849100Y-76649100D01*
G75*
G02*
X129086600Y-76411600I237500J0D01*
G01*
G37*
G36*
G01*
X129086600Y-78161600D02*
X129561600Y-78161600D01*
G75*
G02*
X129799100Y-78399100I0J-237500D01*
G01*
X129799100Y-78974100D01*
G75*
G02*
X129561600Y-79211600I-237500J0D01*
G01*
X129086600Y-79211600D01*
G75*
G02*
X128849100Y-78974100I0J237500D01*
G01*
X128849100Y-78399100D01*
G75*
G02*
X129086600Y-78161600I237500J0D01*
G01*
G37*
%TD*%
%TO.C,C14*%
G36*
G01*
X106747300Y-71343000D02*
X107222300Y-71343000D01*
G75*
G02*
X107459800Y-71580500I0J-237500D01*
G01*
X107459800Y-72155500D01*
G75*
G02*
X107222300Y-72393000I-237500J0D01*
G01*
X106747300Y-72393000D01*
G75*
G02*
X106509800Y-72155500I0J237500D01*
G01*
X106509800Y-71580500D01*
G75*
G02*
X106747300Y-71343000I237500J0D01*
G01*
G37*
G36*
G01*
X106747300Y-69593000D02*
X107222300Y-69593000D01*
G75*
G02*
X107459800Y-69830500I0J-237500D01*
G01*
X107459800Y-70405500D01*
G75*
G02*
X107222300Y-70643000I-237500J0D01*
G01*
X106747300Y-70643000D01*
G75*
G02*
X106509800Y-70405500I0J237500D01*
G01*
X106509800Y-69830500D01*
G75*
G02*
X106747300Y-69593000I237500J0D01*
G01*
G37*
%TD*%
%TO.C,C15*%
G36*
G01*
X98586300Y-72139000D02*
X98111300Y-72139000D01*
G75*
G02*
X97873800Y-71901500I0J237500D01*
G01*
X97873800Y-71326500D01*
G75*
G02*
X98111300Y-71089000I237500J0D01*
G01*
X98586300Y-71089000D01*
G75*
G02*
X98823800Y-71326500I0J-237500D01*
G01*
X98823800Y-71901500D01*
G75*
G02*
X98586300Y-72139000I-237500J0D01*
G01*
G37*
G36*
G01*
X98586300Y-70389000D02*
X98111300Y-70389000D01*
G75*
G02*
X97873800Y-70151500I0J237500D01*
G01*
X97873800Y-69576500D01*
G75*
G02*
X98111300Y-69339000I237500J0D01*
G01*
X98586300Y-69339000D01*
G75*
G02*
X98823800Y-69576500I0J-237500D01*
G01*
X98823800Y-70151500D01*
G75*
G02*
X98586300Y-70389000I-237500J0D01*
G01*
G37*
%TD*%
%TO.C,C16*%
G36*
G01*
X121304800Y-19541500D02*
X121304800Y-19066500D01*
G75*
G02*
X121542300Y-18829000I237500J0D01*
G01*
X122117300Y-18829000D01*
G75*
G02*
X122354800Y-19066500I0J-237500D01*
G01*
X122354800Y-19541500D01*
G75*
G02*
X122117300Y-19779000I-237500J0D01*
G01*
X121542300Y-19779000D01*
G75*
G02*
X121304800Y-19541500I0J237500D01*
G01*
G37*
G36*
G01*
X119554800Y-19541500D02*
X119554800Y-19066500D01*
G75*
G02*
X119792300Y-18829000I237500J0D01*
G01*
X120367300Y-18829000D01*
G75*
G02*
X120604800Y-19066500I0J-237500D01*
G01*
X120604800Y-19541500D01*
G75*
G02*
X120367300Y-19779000I-237500J0D01*
G01*
X119792300Y-19779000D01*
G75*
G02*
X119554800Y-19541500I0J237500D01*
G01*
G37*
%TD*%
%TO.C,C17*%
G36*
G01*
X87646500Y-47289200D02*
X88121500Y-47289200D01*
G75*
G02*
X88359000Y-47526700I0J-237500D01*
G01*
X88359000Y-48101700D01*
G75*
G02*
X88121500Y-48339200I-237500J0D01*
G01*
X87646500Y-48339200D01*
G75*
G02*
X87409000Y-48101700I0J237500D01*
G01*
X87409000Y-47526700D01*
G75*
G02*
X87646500Y-47289200I237500J0D01*
G01*
G37*
G36*
G01*
X87646500Y-45539200D02*
X88121500Y-45539200D01*
G75*
G02*
X88359000Y-45776700I0J-237500D01*
G01*
X88359000Y-46351700D01*
G75*
G02*
X88121500Y-46589200I-237500J0D01*
G01*
X87646500Y-46589200D01*
G75*
G02*
X87409000Y-46351700I0J237500D01*
G01*
X87409000Y-45776700D01*
G75*
G02*
X87646500Y-45539200I237500J0D01*
G01*
G37*
%TD*%
%TO.C,C18*%
G36*
G01*
X87595700Y-54124400D02*
X88070700Y-54124400D01*
G75*
G02*
X88308200Y-54361900I0J-237500D01*
G01*
X88308200Y-54936900D01*
G75*
G02*
X88070700Y-55174400I-237500J0D01*
G01*
X87595700Y-55174400D01*
G75*
G02*
X87358200Y-54936900I0J237500D01*
G01*
X87358200Y-54361900D01*
G75*
G02*
X87595700Y-54124400I237500J0D01*
G01*
G37*
G36*
G01*
X87595700Y-55874400D02*
X88070700Y-55874400D01*
G75*
G02*
X88308200Y-56111900I0J-237500D01*
G01*
X88308200Y-56686900D01*
G75*
G02*
X88070700Y-56924400I-237500J0D01*
G01*
X87595700Y-56924400D01*
G75*
G02*
X87358200Y-56686900I0J237500D01*
G01*
X87358200Y-56111900D01*
G75*
G02*
X87595700Y-55874400I237500J0D01*
G01*
G37*
%TD*%
%TO.C,C19*%
G36*
G01*
X77537300Y-58008000D02*
X78012300Y-58008000D01*
G75*
G02*
X78249800Y-58245500I0J-237500D01*
G01*
X78249800Y-58820500D01*
G75*
G02*
X78012300Y-59058000I-237500J0D01*
G01*
X77537300Y-59058000D01*
G75*
G02*
X77299800Y-58820500I0J237500D01*
G01*
X77299800Y-58245500D01*
G75*
G02*
X77537300Y-58008000I237500J0D01*
G01*
G37*
G36*
G01*
X77537300Y-56258000D02*
X78012300Y-56258000D01*
G75*
G02*
X78249800Y-56495500I0J-237500D01*
G01*
X78249800Y-57070500D01*
G75*
G02*
X78012300Y-57308000I-237500J0D01*
G01*
X77537300Y-57308000D01*
G75*
G02*
X77299800Y-57070500I0J237500D01*
G01*
X77299800Y-56495500D01*
G75*
G02*
X77537300Y-56258000I237500J0D01*
G01*
G37*
%TD*%
%TO.C,C20*%
G36*
G01*
X89454980Y-58005520D02*
X89929980Y-58005520D01*
G75*
G02*
X90167480Y-58243020I0J-237500D01*
G01*
X90167480Y-58818020D01*
G75*
G02*
X89929980Y-59055520I-237500J0D01*
G01*
X89454980Y-59055520D01*
G75*
G02*
X89217480Y-58818020I0J237500D01*
G01*
X89217480Y-58243020D01*
G75*
G02*
X89454980Y-58005520I237500J0D01*
G01*
G37*
G36*
G01*
X89454980Y-59755520D02*
X89929980Y-59755520D01*
G75*
G02*
X90167480Y-59993020I0J-237500D01*
G01*
X90167480Y-60568020D01*
G75*
G02*
X89929980Y-60805520I-237500J0D01*
G01*
X89454980Y-60805520D01*
G75*
G02*
X89217480Y-60568020I0J237500D01*
G01*
X89217480Y-59993020D01*
G75*
G02*
X89454980Y-59755520I237500J0D01*
G01*
G37*
%TD*%
%TO.C,C21*%
G36*
G01*
X77760820Y-49859680D02*
X78235820Y-49859680D01*
G75*
G02*
X78473320Y-50097180I0J-237500D01*
G01*
X78473320Y-50672180D01*
G75*
G02*
X78235820Y-50909680I-237500J0D01*
G01*
X77760820Y-50909680D01*
G75*
G02*
X77523320Y-50672180I0J237500D01*
G01*
X77523320Y-50097180D01*
G75*
G02*
X77760820Y-49859680I237500J0D01*
G01*
G37*
G36*
G01*
X77760820Y-48109680D02*
X78235820Y-48109680D01*
G75*
G02*
X78473320Y-48347180I0J-237500D01*
G01*
X78473320Y-48922180D01*
G75*
G02*
X78235820Y-49159680I-237500J0D01*
G01*
X77760820Y-49159680D01*
G75*
G02*
X77523320Y-48922180I0J237500D01*
G01*
X77523320Y-48347180D01*
G75*
G02*
X77760820Y-48109680I237500J0D01*
G01*
G37*
%TD*%
%TO.C,C22*%
G36*
G01*
X89678500Y-49501600D02*
X90153500Y-49501600D01*
G75*
G02*
X90391000Y-49739100I0J-237500D01*
G01*
X90391000Y-50314100D01*
G75*
G02*
X90153500Y-50551600I-237500J0D01*
G01*
X89678500Y-50551600D01*
G75*
G02*
X89441000Y-50314100I0J237500D01*
G01*
X89441000Y-49739100D01*
G75*
G02*
X89678500Y-49501600I237500J0D01*
G01*
G37*
G36*
G01*
X89678500Y-51251600D02*
X90153500Y-51251600D01*
G75*
G02*
X90391000Y-51489100I0J-237500D01*
G01*
X90391000Y-52064100D01*
G75*
G02*
X90153500Y-52301600I-237500J0D01*
G01*
X89678500Y-52301600D01*
G75*
G02*
X89441000Y-52064100I0J237500D01*
G01*
X89441000Y-51489100D01*
G75*
G02*
X89678500Y-51251600I237500J0D01*
G01*
G37*
%TD*%
%TO.C,C23*%
G36*
G01*
X69122300Y-33178000D02*
X68647300Y-33178000D01*
G75*
G02*
X68409800Y-32940500I0J237500D01*
G01*
X68409800Y-32365500D01*
G75*
G02*
X68647300Y-32128000I237500J0D01*
G01*
X69122300Y-32128000D01*
G75*
G02*
X69359800Y-32365500I0J-237500D01*
G01*
X69359800Y-32940500D01*
G75*
G02*
X69122300Y-33178000I-237500J0D01*
G01*
G37*
G36*
G01*
X69122300Y-34928000D02*
X68647300Y-34928000D01*
G75*
G02*
X68409800Y-34690500I0J237500D01*
G01*
X68409800Y-34115500D01*
G75*
G02*
X68647300Y-33878000I237500J0D01*
G01*
X69122300Y-33878000D01*
G75*
G02*
X69359800Y-34115500I0J-237500D01*
G01*
X69359800Y-34690500D01*
G75*
G02*
X69122300Y-34928000I-237500J0D01*
G01*
G37*
%TD*%
%TO.C,C24*%
G36*
G01*
X95030300Y-34928000D02*
X94555300Y-34928000D01*
G75*
G02*
X94317800Y-34690500I0J237500D01*
G01*
X94317800Y-34115500D01*
G75*
G02*
X94555300Y-33878000I237500J0D01*
G01*
X95030300Y-33878000D01*
G75*
G02*
X95267800Y-34115500I0J-237500D01*
G01*
X95267800Y-34690500D01*
G75*
G02*
X95030300Y-34928000I-237500J0D01*
G01*
G37*
G36*
G01*
X95030300Y-33178000D02*
X94555300Y-33178000D01*
G75*
G02*
X94317800Y-32940500I0J237500D01*
G01*
X94317800Y-32365500D01*
G75*
G02*
X94555300Y-32128000I237500J0D01*
G01*
X95030300Y-32128000D01*
G75*
G02*
X95267800Y-32365500I0J-237500D01*
G01*
X95267800Y-32940500D01*
G75*
G02*
X95030300Y-33178000I-237500J0D01*
G01*
G37*
%TD*%
%TO.C,C25*%
G36*
G01*
X51113000Y-24498000D02*
X48963000Y-24498000D01*
G75*
G02*
X48713000Y-24248000I0J250000D01*
G01*
X48713000Y-23323000D01*
G75*
G02*
X48963000Y-23073000I250000J0D01*
G01*
X51113000Y-23073000D01*
G75*
G02*
X51363000Y-23323000I0J-250000D01*
G01*
X51363000Y-24248000D01*
G75*
G02*
X51113000Y-24498000I-250000J0D01*
G01*
G37*
G36*
G01*
X51113000Y-27473000D02*
X48963000Y-27473000D01*
G75*
G02*
X48713000Y-27223000I0J250000D01*
G01*
X48713000Y-26298000D01*
G75*
G02*
X48963000Y-26048000I250000J0D01*
G01*
X51113000Y-26048000D01*
G75*
G02*
X51363000Y-26298000I0J-250000D01*
G01*
X51363000Y-27223000D01*
G75*
G02*
X51113000Y-27473000I-250000J0D01*
G01*
G37*
%TD*%
%TO.C,C26*%
G36*
G01*
X53196500Y-26800000D02*
X52721500Y-26800000D01*
G75*
G02*
X52484000Y-26562500I0J237500D01*
G01*
X52484000Y-25987500D01*
G75*
G02*
X52721500Y-25750000I237500J0D01*
G01*
X53196500Y-25750000D01*
G75*
G02*
X53434000Y-25987500I0J-237500D01*
G01*
X53434000Y-26562500D01*
G75*
G02*
X53196500Y-26800000I-237500J0D01*
G01*
G37*
G36*
G01*
X53196500Y-25050000D02*
X52721500Y-25050000D01*
G75*
G02*
X52484000Y-24812500I0J237500D01*
G01*
X52484000Y-24237500D01*
G75*
G02*
X52721500Y-24000000I237500J0D01*
G01*
X53196500Y-24000000D01*
G75*
G02*
X53434000Y-24237500I0J-237500D01*
G01*
X53434000Y-24812500D01*
G75*
G02*
X53196500Y-25050000I-237500J0D01*
G01*
G37*
%TD*%
%TO.C,C43*%
G36*
G01*
X50924000Y-73122800D02*
X50924000Y-72647800D01*
G75*
G02*
X51161500Y-72410300I237500J0D01*
G01*
X51736500Y-72410300D01*
G75*
G02*
X51974000Y-72647800I0J-237500D01*
G01*
X51974000Y-73122800D01*
G75*
G02*
X51736500Y-73360300I-237500J0D01*
G01*
X51161500Y-73360300D01*
G75*
G02*
X50924000Y-73122800I0J237500D01*
G01*
G37*
G36*
G01*
X52674000Y-73122800D02*
X52674000Y-72647800D01*
G75*
G02*
X52911500Y-72410300I237500J0D01*
G01*
X53486500Y-72410300D01*
G75*
G02*
X53724000Y-72647800I0J-237500D01*
G01*
X53724000Y-73122800D01*
G75*
G02*
X53486500Y-73360300I-237500J0D01*
G01*
X52911500Y-73360300D01*
G75*
G02*
X52674000Y-73122800I0J237500D01*
G01*
G37*
%TD*%
%TO.C,C44*%
G36*
G01*
X49165500Y-68041000D02*
X49640500Y-68041000D01*
G75*
G02*
X49878000Y-68278500I0J-237500D01*
G01*
X49878000Y-68853500D01*
G75*
G02*
X49640500Y-69091000I-237500J0D01*
G01*
X49165500Y-69091000D01*
G75*
G02*
X48928000Y-68853500I0J237500D01*
G01*
X48928000Y-68278500D01*
G75*
G02*
X49165500Y-68041000I237500J0D01*
G01*
G37*
G36*
G01*
X49165500Y-66291000D02*
X49640500Y-66291000D01*
G75*
G02*
X49878000Y-66528500I0J-237500D01*
G01*
X49878000Y-67103500D01*
G75*
G02*
X49640500Y-67341000I-237500J0D01*
G01*
X49165500Y-67341000D01*
G75*
G02*
X48928000Y-67103500I0J237500D01*
G01*
X48928000Y-66528500D01*
G75*
G02*
X49165500Y-66291000I237500J0D01*
G01*
G37*
%TD*%
%TO.C,C47*%
G36*
G01*
X59883500Y-66767700D02*
X59883500Y-67242700D01*
G75*
G02*
X59646000Y-67480200I-237500J0D01*
G01*
X59071000Y-67480200D01*
G75*
G02*
X58833500Y-67242700I0J237500D01*
G01*
X58833500Y-66767700D01*
G75*
G02*
X59071000Y-66530200I237500J0D01*
G01*
X59646000Y-66530200D01*
G75*
G02*
X59883500Y-66767700I0J-237500D01*
G01*
G37*
G36*
G01*
X58133500Y-66767700D02*
X58133500Y-67242700D01*
G75*
G02*
X57896000Y-67480200I-237500J0D01*
G01*
X57321000Y-67480200D01*
G75*
G02*
X57083500Y-67242700I0J237500D01*
G01*
X57083500Y-66767700D01*
G75*
G02*
X57321000Y-66530200I237500J0D01*
G01*
X57896000Y-66530200D01*
G75*
G02*
X58133500Y-66767700I0J-237500D01*
G01*
G37*
%TD*%
%TO.C,C48*%
G36*
G01*
X67293500Y-59213000D02*
X66818500Y-59213000D01*
G75*
G02*
X66581000Y-58975500I0J237500D01*
G01*
X66581000Y-58400500D01*
G75*
G02*
X66818500Y-58163000I237500J0D01*
G01*
X67293500Y-58163000D01*
G75*
G02*
X67531000Y-58400500I0J-237500D01*
G01*
X67531000Y-58975500D01*
G75*
G02*
X67293500Y-59213000I-237500J0D01*
G01*
G37*
G36*
G01*
X67293500Y-60963000D02*
X66818500Y-60963000D01*
G75*
G02*
X66581000Y-60725500I0J237500D01*
G01*
X66581000Y-60150500D01*
G75*
G02*
X66818500Y-59913000I237500J0D01*
G01*
X67293500Y-59913000D01*
G75*
G02*
X67531000Y-60150500I0J-237500D01*
G01*
X67531000Y-60725500D01*
G75*
G02*
X67293500Y-60963000I-237500J0D01*
G01*
G37*
%TD*%
%TO.C,C49*%
G36*
G01*
X55432500Y-73110100D02*
X55432500Y-72635100D01*
G75*
G02*
X55670000Y-72397600I237500J0D01*
G01*
X56245000Y-72397600D01*
G75*
G02*
X56482500Y-72635100I0J-237500D01*
G01*
X56482500Y-73110100D01*
G75*
G02*
X56245000Y-73347600I-237500J0D01*
G01*
X55670000Y-73347600D01*
G75*
G02*
X55432500Y-73110100I0J237500D01*
G01*
G37*
G36*
G01*
X57182500Y-73110100D02*
X57182500Y-72635100D01*
G75*
G02*
X57420000Y-72397600I237500J0D01*
G01*
X57995000Y-72397600D01*
G75*
G02*
X58232500Y-72635100I0J-237500D01*
G01*
X58232500Y-73110100D01*
G75*
G02*
X57995000Y-73347600I-237500J0D01*
G01*
X57420000Y-73347600D01*
G75*
G02*
X57182500Y-73110100I0J237500D01*
G01*
G37*
%TD*%
%TO.C,C50*%
G36*
G01*
X64914000Y-29226500D02*
X64914000Y-29701500D01*
G75*
G02*
X64676500Y-29939000I-237500J0D01*
G01*
X64101500Y-29939000D01*
G75*
G02*
X63864000Y-29701500I0J237500D01*
G01*
X63864000Y-29226500D01*
G75*
G02*
X64101500Y-28989000I237500J0D01*
G01*
X64676500Y-28989000D01*
G75*
G02*
X64914000Y-29226500I0J-237500D01*
G01*
G37*
G36*
G01*
X63164000Y-29226500D02*
X63164000Y-29701500D01*
G75*
G02*
X62926500Y-29939000I-237500J0D01*
G01*
X62351500Y-29939000D01*
G75*
G02*
X62114000Y-29701500I0J237500D01*
G01*
X62114000Y-29226500D01*
G75*
G02*
X62351500Y-28989000I237500J0D01*
G01*
X62926500Y-28989000D01*
G75*
G02*
X63164000Y-29226500I0J-237500D01*
G01*
G37*
%TD*%
%TO.C,C51*%
G36*
G01*
X88550000Y-29290000D02*
X88550000Y-29765000D01*
G75*
G02*
X88312500Y-30002500I-237500J0D01*
G01*
X87737500Y-30002500D01*
G75*
G02*
X87500000Y-29765000I0J237500D01*
G01*
X87500000Y-29290000D01*
G75*
G02*
X87737500Y-29052500I237500J0D01*
G01*
X88312500Y-29052500D01*
G75*
G02*
X88550000Y-29290000I0J-237500D01*
G01*
G37*
G36*
G01*
X90300000Y-29290000D02*
X90300000Y-29765000D01*
G75*
G02*
X90062500Y-30002500I-237500J0D01*
G01*
X89487500Y-30002500D01*
G75*
G02*
X89250000Y-29765000I0J237500D01*
G01*
X89250000Y-29290000D01*
G75*
G02*
X89487500Y-29052500I237500J0D01*
G01*
X90062500Y-29052500D01*
G75*
G02*
X90300000Y-29290000I0J-237500D01*
G01*
G37*
%TD*%
D15*
%TO.C,D5*%
X67934800Y-29948000D03*
X69834800Y-29948000D03*
X68884800Y-26948000D03*
%TD*%
%TO.C,D6*%
X94792800Y-26948000D03*
X95742800Y-29948000D03*
X93842800Y-29948000D03*
%TD*%
D23*
%TO.C,D7*%
X44704000Y-38272000D03*
X44704000Y-47072000D03*
%TD*%
D24*
%TO.C,D14*%
X57532000Y-64643000D03*
X60832000Y-64643000D03*
%TD*%
D25*
%TO.C,Q7*%
X54865400Y-65303400D03*
X51865400Y-66253400D03*
X51865400Y-64353400D03*
%TD*%
%TO.C,R1*%
G36*
G01*
X132290300Y-69770000D02*
X132290300Y-69295000D01*
G75*
G02*
X132527800Y-69057500I237500J0D01*
G01*
X133102800Y-69057500D01*
G75*
G02*
X133340300Y-69295000I0J-237500D01*
G01*
X133340300Y-69770000D01*
G75*
G02*
X133102800Y-70007500I-237500J0D01*
G01*
X132527800Y-70007500D01*
G75*
G02*
X132290300Y-69770000I0J237500D01*
G01*
G37*
G36*
G01*
X130540300Y-69770000D02*
X130540300Y-69295000D01*
G75*
G02*
X130777800Y-69057500I237500J0D01*
G01*
X131352800Y-69057500D01*
G75*
G02*
X131590300Y-69295000I0J-237500D01*
G01*
X131590300Y-69770000D01*
G75*
G02*
X131352800Y-70007500I-237500J0D01*
G01*
X130777800Y-70007500D01*
G75*
G02*
X130540300Y-69770000I0J237500D01*
G01*
G37*
%TD*%
%TO.C,R2*%
G36*
G01*
X130540300Y-73897500D02*
X130540300Y-73422500D01*
G75*
G02*
X130777800Y-73185000I237500J0D01*
G01*
X131352800Y-73185000D01*
G75*
G02*
X131590300Y-73422500I0J-237500D01*
G01*
X131590300Y-73897500D01*
G75*
G02*
X131352800Y-74135000I-237500J0D01*
G01*
X130777800Y-74135000D01*
G75*
G02*
X130540300Y-73897500I0J237500D01*
G01*
G37*
G36*
G01*
X132290300Y-73897500D02*
X132290300Y-73422500D01*
G75*
G02*
X132527800Y-73185000I237500J0D01*
G01*
X133102800Y-73185000D01*
G75*
G02*
X133340300Y-73422500I0J-237500D01*
G01*
X133340300Y-73897500D01*
G75*
G02*
X133102800Y-74135000I-237500J0D01*
G01*
X132527800Y-74135000D01*
G75*
G02*
X132290300Y-73897500I0J237500D01*
G01*
G37*
%TD*%
%TO.C,R3*%
G36*
G01*
X130540300Y-71802000D02*
X130540300Y-71327000D01*
G75*
G02*
X130777800Y-71089500I237500J0D01*
G01*
X131352800Y-71089500D01*
G75*
G02*
X131590300Y-71327000I0J-237500D01*
G01*
X131590300Y-71802000D01*
G75*
G02*
X131352800Y-72039500I-237500J0D01*
G01*
X130777800Y-72039500D01*
G75*
G02*
X130540300Y-71802000I0J237500D01*
G01*
G37*
G36*
G01*
X132290300Y-71802000D02*
X132290300Y-71327000D01*
G75*
G02*
X132527800Y-71089500I237500J0D01*
G01*
X133102800Y-71089500D01*
G75*
G02*
X133340300Y-71327000I0J-237500D01*
G01*
X133340300Y-71802000D01*
G75*
G02*
X133102800Y-72039500I-237500J0D01*
G01*
X132527800Y-72039500D01*
G75*
G02*
X132290300Y-71802000I0J237500D01*
G01*
G37*
%TD*%
%TO.C,R4*%
G36*
G01*
X103666300Y-48136000D02*
X103191300Y-48136000D01*
G75*
G02*
X102953800Y-47898500I0J237500D01*
G01*
X102953800Y-47323500D01*
G75*
G02*
X103191300Y-47086000I237500J0D01*
G01*
X103666300Y-47086000D01*
G75*
G02*
X103903800Y-47323500I0J-237500D01*
G01*
X103903800Y-47898500D01*
G75*
G02*
X103666300Y-48136000I-237500J0D01*
G01*
G37*
G36*
G01*
X103666300Y-46386000D02*
X103191300Y-46386000D01*
G75*
G02*
X102953800Y-46148500I0J237500D01*
G01*
X102953800Y-45573500D01*
G75*
G02*
X103191300Y-45336000I237500J0D01*
G01*
X103666300Y-45336000D01*
G75*
G02*
X103903800Y-45573500I0J-237500D01*
G01*
X103903800Y-46148500D01*
G75*
G02*
X103666300Y-46386000I-237500J0D01*
G01*
G37*
%TD*%
%TO.C,R5*%
G36*
G01*
X129545600Y-64227700D02*
X129545600Y-64702700D01*
G75*
G02*
X129308100Y-64940200I-237500J0D01*
G01*
X128733100Y-64940200D01*
G75*
G02*
X128495600Y-64702700I0J237500D01*
G01*
X128495600Y-64227700D01*
G75*
G02*
X128733100Y-63990200I237500J0D01*
G01*
X129308100Y-63990200D01*
G75*
G02*
X129545600Y-64227700I0J-237500D01*
G01*
G37*
G36*
G01*
X131295600Y-64227700D02*
X131295600Y-64702700D01*
G75*
G02*
X131058100Y-64940200I-237500J0D01*
G01*
X130483100Y-64940200D01*
G75*
G02*
X130245600Y-64702700I0J237500D01*
G01*
X130245600Y-64227700D01*
G75*
G02*
X130483100Y-63990200I237500J0D01*
G01*
X131058100Y-63990200D01*
G75*
G02*
X131295600Y-64227700I0J-237500D01*
G01*
G37*
%TD*%
%TO.C,R6*%
G36*
G01*
X130235500Y-55165000D02*
X130235500Y-54690000D01*
G75*
G02*
X130473000Y-54452500I237500J0D01*
G01*
X131048000Y-54452500D01*
G75*
G02*
X131285500Y-54690000I0J-237500D01*
G01*
X131285500Y-55165000D01*
G75*
G02*
X131048000Y-55402500I-237500J0D01*
G01*
X130473000Y-55402500D01*
G75*
G02*
X130235500Y-55165000I0J237500D01*
G01*
G37*
G36*
G01*
X131985500Y-55165000D02*
X131985500Y-54690000D01*
G75*
G02*
X132223000Y-54452500I237500J0D01*
G01*
X132798000Y-54452500D01*
G75*
G02*
X133035500Y-54690000I0J-237500D01*
G01*
X133035500Y-55165000D01*
G75*
G02*
X132798000Y-55402500I-237500J0D01*
G01*
X132223000Y-55402500D01*
G75*
G02*
X131985500Y-55165000I0J237500D01*
G01*
G37*
%TD*%
%TO.C,R7*%
G36*
G01*
X128507000Y-66531500D02*
X128507000Y-66056500D01*
G75*
G02*
X128744500Y-65819000I237500J0D01*
G01*
X129319500Y-65819000D01*
G75*
G02*
X129557000Y-66056500I0J-237500D01*
G01*
X129557000Y-66531500D01*
G75*
G02*
X129319500Y-66769000I-237500J0D01*
G01*
X128744500Y-66769000D01*
G75*
G02*
X128507000Y-66531500I0J237500D01*
G01*
G37*
G36*
G01*
X130257000Y-66531500D02*
X130257000Y-66056500D01*
G75*
G02*
X130494500Y-65819000I237500J0D01*
G01*
X131069500Y-65819000D01*
G75*
G02*
X131307000Y-66056500I0J-237500D01*
G01*
X131307000Y-66531500D01*
G75*
G02*
X131069500Y-66769000I-237500J0D01*
G01*
X130494500Y-66769000D01*
G75*
G02*
X130257000Y-66531500I0J237500D01*
G01*
G37*
%TD*%
%TO.C,R8*%
G36*
G01*
X97824300Y-46386000D02*
X97349300Y-46386000D01*
G75*
G02*
X97111800Y-46148500I0J237500D01*
G01*
X97111800Y-45573500D01*
G75*
G02*
X97349300Y-45336000I237500J0D01*
G01*
X97824300Y-45336000D01*
G75*
G02*
X98061800Y-45573500I0J-237500D01*
G01*
X98061800Y-46148500D01*
G75*
G02*
X97824300Y-46386000I-237500J0D01*
G01*
G37*
G36*
G01*
X97824300Y-48136000D02*
X97349300Y-48136000D01*
G75*
G02*
X97111800Y-47898500I0J237500D01*
G01*
X97111800Y-47323500D01*
G75*
G02*
X97349300Y-47086000I237500J0D01*
G01*
X97824300Y-47086000D01*
G75*
G02*
X98061800Y-47323500I0J-237500D01*
G01*
X98061800Y-47898500D01*
G75*
G02*
X97824300Y-48136000I-237500J0D01*
G01*
G37*
%TD*%
%TO.C,R9*%
G36*
G01*
X75479900Y-58018160D02*
X75954900Y-58018160D01*
G75*
G02*
X76192400Y-58255660I0J-237500D01*
G01*
X76192400Y-58830660D01*
G75*
G02*
X75954900Y-59068160I-237500J0D01*
G01*
X75479900Y-59068160D01*
G75*
G02*
X75242400Y-58830660I0J237500D01*
G01*
X75242400Y-58255660D01*
G75*
G02*
X75479900Y-58018160I237500J0D01*
G01*
G37*
G36*
G01*
X75479900Y-56268160D02*
X75954900Y-56268160D01*
G75*
G02*
X76192400Y-56505660I0J-237500D01*
G01*
X76192400Y-57080660D01*
G75*
G02*
X75954900Y-57318160I-237500J0D01*
G01*
X75479900Y-57318160D01*
G75*
G02*
X75242400Y-57080660I0J237500D01*
G01*
X75242400Y-56505660D01*
G75*
G02*
X75479900Y-56268160I237500J0D01*
G01*
G37*
%TD*%
%TO.C,R10*%
G36*
G01*
X89566740Y-54149800D02*
X90041740Y-54149800D01*
G75*
G02*
X90279240Y-54387300I0J-237500D01*
G01*
X90279240Y-54962300D01*
G75*
G02*
X90041740Y-55199800I-237500J0D01*
G01*
X89566740Y-55199800D01*
G75*
G02*
X89329240Y-54962300I0J237500D01*
G01*
X89329240Y-54387300D01*
G75*
G02*
X89566740Y-54149800I237500J0D01*
G01*
G37*
G36*
G01*
X89566740Y-55899800D02*
X90041740Y-55899800D01*
G75*
G02*
X90279240Y-56137300I0J-237500D01*
G01*
X90279240Y-56712300D01*
G75*
G02*
X90041740Y-56949800I-237500J0D01*
G01*
X89566740Y-56949800D01*
G75*
G02*
X89329240Y-56712300I0J237500D01*
G01*
X89329240Y-56137300D01*
G75*
G02*
X89566740Y-55899800I237500J0D01*
G01*
G37*
%TD*%
%TO.C,R11*%
G36*
G01*
X87631260Y-59740280D02*
X88106260Y-59740280D01*
G75*
G02*
X88343760Y-59977780I0J-237500D01*
G01*
X88343760Y-60552780D01*
G75*
G02*
X88106260Y-60790280I-237500J0D01*
G01*
X87631260Y-60790280D01*
G75*
G02*
X87393760Y-60552780I0J237500D01*
G01*
X87393760Y-59977780D01*
G75*
G02*
X87631260Y-59740280I237500J0D01*
G01*
G37*
G36*
G01*
X87631260Y-57990280D02*
X88106260Y-57990280D01*
G75*
G02*
X88343760Y-58227780I0J-237500D01*
G01*
X88343760Y-58802780D01*
G75*
G02*
X88106260Y-59040280I-237500J0D01*
G01*
X87631260Y-59040280D01*
G75*
G02*
X87393760Y-58802780I0J237500D01*
G01*
X87393760Y-58227780D01*
G75*
G02*
X87631260Y-57990280I237500J0D01*
G01*
G37*
%TD*%
%TO.C,R12*%
G36*
G01*
X75422300Y-47037000D02*
X75422300Y-46562000D01*
G75*
G02*
X75659800Y-46324500I237500J0D01*
G01*
X76234800Y-46324500D01*
G75*
G02*
X76472300Y-46562000I0J-237500D01*
G01*
X76472300Y-47037000D01*
G75*
G02*
X76234800Y-47274500I-237500J0D01*
G01*
X75659800Y-47274500D01*
G75*
G02*
X75422300Y-47037000I0J237500D01*
G01*
G37*
G36*
G01*
X77172300Y-47037000D02*
X77172300Y-46562000D01*
G75*
G02*
X77409800Y-46324500I237500J0D01*
G01*
X77984800Y-46324500D01*
G75*
G02*
X78222300Y-46562000I0J-237500D01*
G01*
X78222300Y-47037000D01*
G75*
G02*
X77984800Y-47274500I-237500J0D01*
G01*
X77409800Y-47274500D01*
G75*
G02*
X77172300Y-47037000I0J237500D01*
G01*
G37*
%TD*%
%TO.C,R15*%
G36*
G01*
X86350300Y-51578500D02*
X86350300Y-52053500D01*
G75*
G02*
X86112800Y-52291000I-237500J0D01*
G01*
X85537800Y-52291000D01*
G75*
G02*
X85300300Y-52053500I0J237500D01*
G01*
X85300300Y-51578500D01*
G75*
G02*
X85537800Y-51341000I237500J0D01*
G01*
X86112800Y-51341000D01*
G75*
G02*
X86350300Y-51578500I0J-237500D01*
G01*
G37*
G36*
G01*
X84600300Y-51578500D02*
X84600300Y-52053500D01*
G75*
G02*
X84362800Y-52291000I-237500J0D01*
G01*
X83787800Y-52291000D01*
G75*
G02*
X83550300Y-52053500I0J237500D01*
G01*
X83550300Y-51578500D01*
G75*
G02*
X83787800Y-51341000I237500J0D01*
G01*
X84362800Y-51341000D01*
G75*
G02*
X84600300Y-51578500I0J-237500D01*
G01*
G37*
%TD*%
%TO.C,R16*%
G36*
G01*
X64837300Y-42006000D02*
X65312300Y-42006000D01*
G75*
G02*
X65549800Y-42243500I0J-237500D01*
G01*
X65549800Y-42818500D01*
G75*
G02*
X65312300Y-43056000I-237500J0D01*
G01*
X64837300Y-43056000D01*
G75*
G02*
X64599800Y-42818500I0J237500D01*
G01*
X64599800Y-42243500D01*
G75*
G02*
X64837300Y-42006000I237500J0D01*
G01*
G37*
G36*
G01*
X64837300Y-40256000D02*
X65312300Y-40256000D01*
G75*
G02*
X65549800Y-40493500I0J-237500D01*
G01*
X65549800Y-41068500D01*
G75*
G02*
X65312300Y-41306000I-237500J0D01*
G01*
X64837300Y-41306000D01*
G75*
G02*
X64599800Y-41068500I0J237500D01*
G01*
X64599800Y-40493500D01*
G75*
G02*
X64837300Y-40256000I237500J0D01*
G01*
G37*
%TD*%
%TO.C,R17*%
G36*
G01*
X66615300Y-32128000D02*
X67090300Y-32128000D01*
G75*
G02*
X67327800Y-32365500I0J-237500D01*
G01*
X67327800Y-32940500D01*
G75*
G02*
X67090300Y-33178000I-237500J0D01*
G01*
X66615300Y-33178000D01*
G75*
G02*
X66377800Y-32940500I0J237500D01*
G01*
X66377800Y-32365500D01*
G75*
G02*
X66615300Y-32128000I237500J0D01*
G01*
G37*
G36*
G01*
X66615300Y-33878000D02*
X67090300Y-33878000D01*
G75*
G02*
X67327800Y-34115500I0J-237500D01*
G01*
X67327800Y-34690500D01*
G75*
G02*
X67090300Y-34928000I-237500J0D01*
G01*
X66615300Y-34928000D01*
G75*
G02*
X66377800Y-34690500I0J237500D01*
G01*
X66377800Y-34115500D01*
G75*
G02*
X66615300Y-33878000I237500J0D01*
G01*
G37*
%TD*%
%TO.C,R20*%
G36*
G01*
X71154300Y-34928000D02*
X70679300Y-34928000D01*
G75*
G02*
X70441800Y-34690500I0J237500D01*
G01*
X70441800Y-34115500D01*
G75*
G02*
X70679300Y-33878000I237500J0D01*
G01*
X71154300Y-33878000D01*
G75*
G02*
X71391800Y-34115500I0J-237500D01*
G01*
X71391800Y-34690500D01*
G75*
G02*
X71154300Y-34928000I-237500J0D01*
G01*
G37*
G36*
G01*
X71154300Y-33178000D02*
X70679300Y-33178000D01*
G75*
G02*
X70441800Y-32940500I0J237500D01*
G01*
X70441800Y-32365500D01*
G75*
G02*
X70679300Y-32128000I237500J0D01*
G01*
X71154300Y-32128000D01*
G75*
G02*
X71391800Y-32365500I0J-237500D01*
G01*
X71391800Y-32940500D01*
G75*
G02*
X71154300Y-33178000I-237500J0D01*
G01*
G37*
%TD*%
%TO.C,R22*%
G36*
G01*
X90745300Y-40256000D02*
X91220300Y-40256000D01*
G75*
G02*
X91457800Y-40493500I0J-237500D01*
G01*
X91457800Y-41068500D01*
G75*
G02*
X91220300Y-41306000I-237500J0D01*
G01*
X90745300Y-41306000D01*
G75*
G02*
X90507800Y-41068500I0J237500D01*
G01*
X90507800Y-40493500D01*
G75*
G02*
X90745300Y-40256000I237500J0D01*
G01*
G37*
G36*
G01*
X90745300Y-42006000D02*
X91220300Y-42006000D01*
G75*
G02*
X91457800Y-42243500I0J-237500D01*
G01*
X91457800Y-42818500D01*
G75*
G02*
X91220300Y-43056000I-237500J0D01*
G01*
X90745300Y-43056000D01*
G75*
G02*
X90507800Y-42818500I0J237500D01*
G01*
X90507800Y-42243500D01*
G75*
G02*
X90745300Y-42006000I237500J0D01*
G01*
G37*
%TD*%
%TO.C,R23*%
G36*
G01*
X92523300Y-32128000D02*
X92998300Y-32128000D01*
G75*
G02*
X93235800Y-32365500I0J-237500D01*
G01*
X93235800Y-32940500D01*
G75*
G02*
X92998300Y-33178000I-237500J0D01*
G01*
X92523300Y-33178000D01*
G75*
G02*
X92285800Y-32940500I0J237500D01*
G01*
X92285800Y-32365500D01*
G75*
G02*
X92523300Y-32128000I237500J0D01*
G01*
G37*
G36*
G01*
X92523300Y-33878000D02*
X92998300Y-33878000D01*
G75*
G02*
X93235800Y-34115500I0J-237500D01*
G01*
X93235800Y-34690500D01*
G75*
G02*
X92998300Y-34928000I-237500J0D01*
G01*
X92523300Y-34928000D01*
G75*
G02*
X92285800Y-34690500I0J237500D01*
G01*
X92285800Y-34115500D01*
G75*
G02*
X92523300Y-33878000I237500J0D01*
G01*
G37*
%TD*%
%TO.C,R26*%
G36*
G01*
X97062300Y-34928000D02*
X96587300Y-34928000D01*
G75*
G02*
X96349800Y-34690500I0J237500D01*
G01*
X96349800Y-34115500D01*
G75*
G02*
X96587300Y-33878000I237500J0D01*
G01*
X97062300Y-33878000D01*
G75*
G02*
X97299800Y-34115500I0J-237500D01*
G01*
X97299800Y-34690500D01*
G75*
G02*
X97062300Y-34928000I-237500J0D01*
G01*
G37*
G36*
G01*
X97062300Y-33178000D02*
X96587300Y-33178000D01*
G75*
G02*
X96349800Y-32940500I0J237500D01*
G01*
X96349800Y-32365500D01*
G75*
G02*
X96587300Y-32128000I237500J0D01*
G01*
X97062300Y-32128000D01*
G75*
G02*
X97299800Y-32365500I0J-237500D01*
G01*
X97299800Y-32940500D01*
G75*
G02*
X97062300Y-33178000I-237500J0D01*
G01*
G37*
%TD*%
%TO.C,R31*%
G36*
G01*
X46148000Y-65055000D02*
X45673000Y-65055000D01*
G75*
G02*
X45435500Y-64817500I0J237500D01*
G01*
X45435500Y-64242500D01*
G75*
G02*
X45673000Y-64005000I237500J0D01*
G01*
X46148000Y-64005000D01*
G75*
G02*
X46385500Y-64242500I0J-237500D01*
G01*
X46385500Y-64817500D01*
G75*
G02*
X46148000Y-65055000I-237500J0D01*
G01*
G37*
G36*
G01*
X46148000Y-66805000D02*
X45673000Y-66805000D01*
G75*
G02*
X45435500Y-66567500I0J237500D01*
G01*
X45435500Y-65992500D01*
G75*
G02*
X45673000Y-65755000I237500J0D01*
G01*
X46148000Y-65755000D01*
G75*
G02*
X46385500Y-65992500I0J-237500D01*
G01*
X46385500Y-66567500D01*
G75*
G02*
X46148000Y-66805000I-237500J0D01*
G01*
G37*
%TD*%
%TO.C,R33*%
G36*
G01*
X39704000Y-67406000D02*
X40179000Y-67406000D01*
G75*
G02*
X40416500Y-67643500I0J-237500D01*
G01*
X40416500Y-68218500D01*
G75*
G02*
X40179000Y-68456000I-237500J0D01*
G01*
X39704000Y-68456000D01*
G75*
G02*
X39466500Y-68218500I0J237500D01*
G01*
X39466500Y-67643500D01*
G75*
G02*
X39704000Y-67406000I237500J0D01*
G01*
G37*
G36*
G01*
X39704000Y-65656000D02*
X40179000Y-65656000D01*
G75*
G02*
X40416500Y-65893500I0J-237500D01*
G01*
X40416500Y-66468500D01*
G75*
G02*
X40179000Y-66706000I-237500J0D01*
G01*
X39704000Y-66706000D01*
G75*
G02*
X39466500Y-66468500I0J237500D01*
G01*
X39466500Y-65893500D01*
G75*
G02*
X39704000Y-65656000I237500J0D01*
G01*
G37*
%TD*%
%TO.C,R35*%
G36*
G01*
X61718200Y-71592900D02*
X61243200Y-71592900D01*
G75*
G02*
X61005700Y-71355400I0J237500D01*
G01*
X61005700Y-70780400D01*
G75*
G02*
X61243200Y-70542900I237500J0D01*
G01*
X61718200Y-70542900D01*
G75*
G02*
X61955700Y-70780400I0J-237500D01*
G01*
X61955700Y-71355400D01*
G75*
G02*
X61718200Y-71592900I-237500J0D01*
G01*
G37*
G36*
G01*
X61718200Y-69842900D02*
X61243200Y-69842900D01*
G75*
G02*
X61005700Y-69605400I0J237500D01*
G01*
X61005700Y-69030400D01*
G75*
G02*
X61243200Y-68792900I237500J0D01*
G01*
X61718200Y-68792900D01*
G75*
G02*
X61955700Y-69030400I0J-237500D01*
G01*
X61955700Y-69605400D01*
G75*
G02*
X61718200Y-69842900I-237500J0D01*
G01*
G37*
%TD*%
%TO.C,R36*%
G36*
G01*
X60893500Y-67217300D02*
X60893500Y-66742300D01*
G75*
G02*
X61131000Y-66504800I237500J0D01*
G01*
X61706000Y-66504800D01*
G75*
G02*
X61943500Y-66742300I0J-237500D01*
G01*
X61943500Y-67217300D01*
G75*
G02*
X61706000Y-67454800I-237500J0D01*
G01*
X61131000Y-67454800D01*
G75*
G02*
X60893500Y-67217300I0J237500D01*
G01*
G37*
G36*
G01*
X62643500Y-67217300D02*
X62643500Y-66742300D01*
G75*
G02*
X62881000Y-66504800I237500J0D01*
G01*
X63456000Y-66504800D01*
G75*
G02*
X63693500Y-66742300I0J-237500D01*
G01*
X63693500Y-67217300D01*
G75*
G02*
X63456000Y-67454800I-237500J0D01*
G01*
X62881000Y-67454800D01*
G75*
G02*
X62643500Y-67217300I0J237500D01*
G01*
G37*
%TD*%
%TO.C,R37*%
G36*
G01*
X60865500Y-73135500D02*
X60865500Y-72660500D01*
G75*
G02*
X61103000Y-72423000I237500J0D01*
G01*
X61678000Y-72423000D01*
G75*
G02*
X61915500Y-72660500I0J-237500D01*
G01*
X61915500Y-73135500D01*
G75*
G02*
X61678000Y-73373000I-237500J0D01*
G01*
X61103000Y-73373000D01*
G75*
G02*
X60865500Y-73135500I0J237500D01*
G01*
G37*
G36*
G01*
X59115500Y-73135500D02*
X59115500Y-72660500D01*
G75*
G02*
X59353000Y-72423000I237500J0D01*
G01*
X59928000Y-72423000D01*
G75*
G02*
X60165500Y-72660500I0J-237500D01*
G01*
X60165500Y-73135500D01*
G75*
G02*
X59928000Y-73373000I-237500J0D01*
G01*
X59353000Y-73373000D01*
G75*
G02*
X59115500Y-73135500I0J237500D01*
G01*
G37*
%TD*%
%TO.C,R38*%
G36*
G01*
X55939700Y-71123000D02*
X55464700Y-71123000D01*
G75*
G02*
X55227200Y-70885500I0J237500D01*
G01*
X55227200Y-70310500D01*
G75*
G02*
X55464700Y-70073000I237500J0D01*
G01*
X55939700Y-70073000D01*
G75*
G02*
X56177200Y-70310500I0J-237500D01*
G01*
X56177200Y-70885500D01*
G75*
G02*
X55939700Y-71123000I-237500J0D01*
G01*
G37*
G36*
G01*
X55939700Y-69373000D02*
X55464700Y-69373000D01*
G75*
G02*
X55227200Y-69135500I0J237500D01*
G01*
X55227200Y-68560500D01*
G75*
G02*
X55464700Y-68323000I237500J0D01*
G01*
X55939700Y-68323000D01*
G75*
G02*
X56177200Y-68560500I0J-237500D01*
G01*
X56177200Y-69135500D01*
G75*
G02*
X55939700Y-69373000I-237500J0D01*
G01*
G37*
%TD*%
%TO.C,R39*%
G36*
G01*
X63008500Y-70542900D02*
X63483500Y-70542900D01*
G75*
G02*
X63721000Y-70780400I0J-237500D01*
G01*
X63721000Y-71355400D01*
G75*
G02*
X63483500Y-71592900I-237500J0D01*
G01*
X63008500Y-71592900D01*
G75*
G02*
X62771000Y-71355400I0J237500D01*
G01*
X62771000Y-70780400D01*
G75*
G02*
X63008500Y-70542900I237500J0D01*
G01*
G37*
G36*
G01*
X63008500Y-68792900D02*
X63483500Y-68792900D01*
G75*
G02*
X63721000Y-69030400I0J-237500D01*
G01*
X63721000Y-69605400D01*
G75*
G02*
X63483500Y-69842900I-237500J0D01*
G01*
X63008500Y-69842900D01*
G75*
G02*
X62771000Y-69605400I0J237500D01*
G01*
X62771000Y-69030400D01*
G75*
G02*
X63008500Y-68792900I237500J0D01*
G01*
G37*
%TD*%
D26*
%TO.C,SW1*%
X132433500Y-85077200D03*
X132433500Y-77127200D03*
X136933500Y-85077200D03*
X136933500Y-77127200D03*
%TD*%
%TO.C,TH1*%
G36*
G01*
X74759300Y-54593500D02*
X74759300Y-54118500D01*
G75*
G02*
X74996800Y-53881000I237500J0D01*
G01*
X75571800Y-53881000D01*
G75*
G02*
X75809300Y-54118500I0J-237500D01*
G01*
X75809300Y-54593500D01*
G75*
G02*
X75571800Y-54831000I-237500J0D01*
G01*
X74996800Y-54831000D01*
G75*
G02*
X74759300Y-54593500I0J237500D01*
G01*
G37*
G36*
G01*
X73009300Y-54593500D02*
X73009300Y-54118500D01*
G75*
G02*
X73246800Y-53881000I237500J0D01*
G01*
X73821800Y-53881000D01*
G75*
G02*
X74059300Y-54118500I0J-237500D01*
G01*
X74059300Y-54593500D01*
G75*
G02*
X73821800Y-54831000I-237500J0D01*
G01*
X73246800Y-54831000D01*
G75*
G02*
X73009300Y-54593500I0J237500D01*
G01*
G37*
%TD*%
%TO.C,U1*%
G36*
G01*
X99018800Y-64570000D02*
X97568800Y-64570000D01*
G75*
G02*
X97493800Y-64495000I0J75000D01*
G01*
X97493800Y-64345000D01*
G75*
G02*
X97568800Y-64270000I75000J0D01*
G01*
X99018800Y-64270000D01*
G75*
G02*
X99093800Y-64345000I0J-75000D01*
G01*
X99093800Y-64495000D01*
G75*
G02*
X99018800Y-64570000I-75000J0D01*
G01*
G37*
G36*
G01*
X99018800Y-64070000D02*
X97568800Y-64070000D01*
G75*
G02*
X97493800Y-63995000I0J75000D01*
G01*
X97493800Y-63845000D01*
G75*
G02*
X97568800Y-63770000I75000J0D01*
G01*
X99018800Y-63770000D01*
G75*
G02*
X99093800Y-63845000I0J-75000D01*
G01*
X99093800Y-63995000D01*
G75*
G02*
X99018800Y-64070000I-75000J0D01*
G01*
G37*
G36*
G01*
X99018800Y-63570000D02*
X97568800Y-63570000D01*
G75*
G02*
X97493800Y-63495000I0J75000D01*
G01*
X97493800Y-63345000D01*
G75*
G02*
X97568800Y-63270000I75000J0D01*
G01*
X99018800Y-63270000D01*
G75*
G02*
X99093800Y-63345000I0J-75000D01*
G01*
X99093800Y-63495000D01*
G75*
G02*
X99018800Y-63570000I-75000J0D01*
G01*
G37*
G36*
G01*
X99018800Y-63070000D02*
X97568800Y-63070000D01*
G75*
G02*
X97493800Y-62995000I0J75000D01*
G01*
X97493800Y-62845000D01*
G75*
G02*
X97568800Y-62770000I75000J0D01*
G01*
X99018800Y-62770000D01*
G75*
G02*
X99093800Y-62845000I0J-75000D01*
G01*
X99093800Y-62995000D01*
G75*
G02*
X99018800Y-63070000I-75000J0D01*
G01*
G37*
G36*
G01*
X99018800Y-62570000D02*
X97568800Y-62570000D01*
G75*
G02*
X97493800Y-62495000I0J75000D01*
G01*
X97493800Y-62345000D01*
G75*
G02*
X97568800Y-62270000I75000J0D01*
G01*
X99018800Y-62270000D01*
G75*
G02*
X99093800Y-62345000I0J-75000D01*
G01*
X99093800Y-62495000D01*
G75*
G02*
X99018800Y-62570000I-75000J0D01*
G01*
G37*
G36*
G01*
X99018800Y-62070000D02*
X97568800Y-62070000D01*
G75*
G02*
X97493800Y-61995000I0J75000D01*
G01*
X97493800Y-61845000D01*
G75*
G02*
X97568800Y-61770000I75000J0D01*
G01*
X99018800Y-61770000D01*
G75*
G02*
X99093800Y-61845000I0J-75000D01*
G01*
X99093800Y-61995000D01*
G75*
G02*
X99018800Y-62070000I-75000J0D01*
G01*
G37*
G36*
G01*
X99018800Y-61570000D02*
X97568800Y-61570000D01*
G75*
G02*
X97493800Y-61495000I0J75000D01*
G01*
X97493800Y-61345000D01*
G75*
G02*
X97568800Y-61270000I75000J0D01*
G01*
X99018800Y-61270000D01*
G75*
G02*
X99093800Y-61345000I0J-75000D01*
G01*
X99093800Y-61495000D01*
G75*
G02*
X99018800Y-61570000I-75000J0D01*
G01*
G37*
G36*
G01*
X99018800Y-61070000D02*
X97568800Y-61070000D01*
G75*
G02*
X97493800Y-60995000I0J75000D01*
G01*
X97493800Y-60845000D01*
G75*
G02*
X97568800Y-60770000I75000J0D01*
G01*
X99018800Y-60770000D01*
G75*
G02*
X99093800Y-60845000I0J-75000D01*
G01*
X99093800Y-60995000D01*
G75*
G02*
X99018800Y-61070000I-75000J0D01*
G01*
G37*
G36*
G01*
X99018800Y-60570000D02*
X97568800Y-60570000D01*
G75*
G02*
X97493800Y-60495000I0J75000D01*
G01*
X97493800Y-60345000D01*
G75*
G02*
X97568800Y-60270000I75000J0D01*
G01*
X99018800Y-60270000D01*
G75*
G02*
X99093800Y-60345000I0J-75000D01*
G01*
X99093800Y-60495000D01*
G75*
G02*
X99018800Y-60570000I-75000J0D01*
G01*
G37*
G36*
G01*
X99018800Y-60070000D02*
X97568800Y-60070000D01*
G75*
G02*
X97493800Y-59995000I0J75000D01*
G01*
X97493800Y-59845000D01*
G75*
G02*
X97568800Y-59770000I75000J0D01*
G01*
X99018800Y-59770000D01*
G75*
G02*
X99093800Y-59845000I0J-75000D01*
G01*
X99093800Y-59995000D01*
G75*
G02*
X99018800Y-60070000I-75000J0D01*
G01*
G37*
G36*
G01*
X99018800Y-59570000D02*
X97568800Y-59570000D01*
G75*
G02*
X97493800Y-59495000I0J75000D01*
G01*
X97493800Y-59345000D01*
G75*
G02*
X97568800Y-59270000I75000J0D01*
G01*
X99018800Y-59270000D01*
G75*
G02*
X99093800Y-59345000I0J-75000D01*
G01*
X99093800Y-59495000D01*
G75*
G02*
X99018800Y-59570000I-75000J0D01*
G01*
G37*
G36*
G01*
X99018800Y-59070000D02*
X97568800Y-59070000D01*
G75*
G02*
X97493800Y-58995000I0J75000D01*
G01*
X97493800Y-58845000D01*
G75*
G02*
X97568800Y-58770000I75000J0D01*
G01*
X99018800Y-58770000D01*
G75*
G02*
X99093800Y-58845000I0J-75000D01*
G01*
X99093800Y-58995000D01*
G75*
G02*
X99018800Y-59070000I-75000J0D01*
G01*
G37*
G36*
G01*
X99018800Y-58570000D02*
X97568800Y-58570000D01*
G75*
G02*
X97493800Y-58495000I0J75000D01*
G01*
X97493800Y-58345000D01*
G75*
G02*
X97568800Y-58270000I75000J0D01*
G01*
X99018800Y-58270000D01*
G75*
G02*
X99093800Y-58345000I0J-75000D01*
G01*
X99093800Y-58495000D01*
G75*
G02*
X99018800Y-58570000I-75000J0D01*
G01*
G37*
G36*
G01*
X99018800Y-58070000D02*
X97568800Y-58070000D01*
G75*
G02*
X97493800Y-57995000I0J75000D01*
G01*
X97493800Y-57845000D01*
G75*
G02*
X97568800Y-57770000I75000J0D01*
G01*
X99018800Y-57770000D01*
G75*
G02*
X99093800Y-57845000I0J-75000D01*
G01*
X99093800Y-57995000D01*
G75*
G02*
X99018800Y-58070000I-75000J0D01*
G01*
G37*
G36*
G01*
X99018800Y-57570000D02*
X97568800Y-57570000D01*
G75*
G02*
X97493800Y-57495000I0J75000D01*
G01*
X97493800Y-57345000D01*
G75*
G02*
X97568800Y-57270000I75000J0D01*
G01*
X99018800Y-57270000D01*
G75*
G02*
X99093800Y-57345000I0J-75000D01*
G01*
X99093800Y-57495000D01*
G75*
G02*
X99018800Y-57570000I-75000J0D01*
G01*
G37*
G36*
G01*
X99018800Y-57070000D02*
X97568800Y-57070000D01*
G75*
G02*
X97493800Y-56995000I0J75000D01*
G01*
X97493800Y-56845000D01*
G75*
G02*
X97568800Y-56770000I75000J0D01*
G01*
X99018800Y-56770000D01*
G75*
G02*
X99093800Y-56845000I0J-75000D01*
G01*
X99093800Y-56995000D01*
G75*
G02*
X99018800Y-57070000I-75000J0D01*
G01*
G37*
G36*
G01*
X99018800Y-56570000D02*
X97568800Y-56570000D01*
G75*
G02*
X97493800Y-56495000I0J75000D01*
G01*
X97493800Y-56345000D01*
G75*
G02*
X97568800Y-56270000I75000J0D01*
G01*
X99018800Y-56270000D01*
G75*
G02*
X99093800Y-56345000I0J-75000D01*
G01*
X99093800Y-56495000D01*
G75*
G02*
X99018800Y-56570000I-75000J0D01*
G01*
G37*
G36*
G01*
X99018800Y-56070000D02*
X97568800Y-56070000D01*
G75*
G02*
X97493800Y-55995000I0J75000D01*
G01*
X97493800Y-55845000D01*
G75*
G02*
X97568800Y-55770000I75000J0D01*
G01*
X99018800Y-55770000D01*
G75*
G02*
X99093800Y-55845000I0J-75000D01*
G01*
X99093800Y-55995000D01*
G75*
G02*
X99018800Y-56070000I-75000J0D01*
G01*
G37*
G36*
G01*
X99018800Y-55570000D02*
X97568800Y-55570000D01*
G75*
G02*
X97493800Y-55495000I0J75000D01*
G01*
X97493800Y-55345000D01*
G75*
G02*
X97568800Y-55270000I75000J0D01*
G01*
X99018800Y-55270000D01*
G75*
G02*
X99093800Y-55345000I0J-75000D01*
G01*
X99093800Y-55495000D01*
G75*
G02*
X99018800Y-55570000I-75000J0D01*
G01*
G37*
G36*
G01*
X99018800Y-55070000D02*
X97568800Y-55070000D01*
G75*
G02*
X97493800Y-54995000I0J75000D01*
G01*
X97493800Y-54845000D01*
G75*
G02*
X97568800Y-54770000I75000J0D01*
G01*
X99018800Y-54770000D01*
G75*
G02*
X99093800Y-54845000I0J-75000D01*
G01*
X99093800Y-54995000D01*
G75*
G02*
X99018800Y-55070000I-75000J0D01*
G01*
G37*
G36*
G01*
X99018800Y-54570000D02*
X97568800Y-54570000D01*
G75*
G02*
X97493800Y-54495000I0J75000D01*
G01*
X97493800Y-54345000D01*
G75*
G02*
X97568800Y-54270000I75000J0D01*
G01*
X99018800Y-54270000D01*
G75*
G02*
X99093800Y-54345000I0J-75000D01*
G01*
X99093800Y-54495000D01*
G75*
G02*
X99018800Y-54570000I-75000J0D01*
G01*
G37*
G36*
G01*
X99018800Y-54070000D02*
X97568800Y-54070000D01*
G75*
G02*
X97493800Y-53995000I0J75000D01*
G01*
X97493800Y-53845000D01*
G75*
G02*
X97568800Y-53770000I75000J0D01*
G01*
X99018800Y-53770000D01*
G75*
G02*
X99093800Y-53845000I0J-75000D01*
G01*
X99093800Y-53995000D01*
G75*
G02*
X99018800Y-54070000I-75000J0D01*
G01*
G37*
G36*
G01*
X99018800Y-53570000D02*
X97568800Y-53570000D01*
G75*
G02*
X97493800Y-53495000I0J75000D01*
G01*
X97493800Y-53345000D01*
G75*
G02*
X97568800Y-53270000I75000J0D01*
G01*
X99018800Y-53270000D01*
G75*
G02*
X99093800Y-53345000I0J-75000D01*
G01*
X99093800Y-53495000D01*
G75*
G02*
X99018800Y-53570000I-75000J0D01*
G01*
G37*
G36*
G01*
X99018800Y-53070000D02*
X97568800Y-53070000D01*
G75*
G02*
X97493800Y-52995000I0J75000D01*
G01*
X97493800Y-52845000D01*
G75*
G02*
X97568800Y-52770000I75000J0D01*
G01*
X99018800Y-52770000D01*
G75*
G02*
X99093800Y-52845000I0J-75000D01*
G01*
X99093800Y-52995000D01*
G75*
G02*
X99018800Y-53070000I-75000J0D01*
G01*
G37*
G36*
G01*
X99018800Y-52570000D02*
X97568800Y-52570000D01*
G75*
G02*
X97493800Y-52495000I0J75000D01*
G01*
X97493800Y-52345000D01*
G75*
G02*
X97568800Y-52270000I75000J0D01*
G01*
X99018800Y-52270000D01*
G75*
G02*
X99093800Y-52345000I0J-75000D01*
G01*
X99093800Y-52495000D01*
G75*
G02*
X99018800Y-52570000I-75000J0D01*
G01*
G37*
G36*
G01*
X100043800Y-51545000D02*
X99893800Y-51545000D01*
G75*
G02*
X99818800Y-51470000I0J75000D01*
G01*
X99818800Y-50020000D01*
G75*
G02*
X99893800Y-49945000I75000J0D01*
G01*
X100043800Y-49945000D01*
G75*
G02*
X100118800Y-50020000I0J-75000D01*
G01*
X100118800Y-51470000D01*
G75*
G02*
X100043800Y-51545000I-75000J0D01*
G01*
G37*
G36*
G01*
X100543800Y-51545000D02*
X100393800Y-51545000D01*
G75*
G02*
X100318800Y-51470000I0J75000D01*
G01*
X100318800Y-50020000D01*
G75*
G02*
X100393800Y-49945000I75000J0D01*
G01*
X100543800Y-49945000D01*
G75*
G02*
X100618800Y-50020000I0J-75000D01*
G01*
X100618800Y-51470000D01*
G75*
G02*
X100543800Y-51545000I-75000J0D01*
G01*
G37*
G36*
G01*
X101043800Y-51545000D02*
X100893800Y-51545000D01*
G75*
G02*
X100818800Y-51470000I0J75000D01*
G01*
X100818800Y-50020000D01*
G75*
G02*
X100893800Y-49945000I75000J0D01*
G01*
X101043800Y-49945000D01*
G75*
G02*
X101118800Y-50020000I0J-75000D01*
G01*
X101118800Y-51470000D01*
G75*
G02*
X101043800Y-51545000I-75000J0D01*
G01*
G37*
G36*
G01*
X101543800Y-51545000D02*
X101393800Y-51545000D01*
G75*
G02*
X101318800Y-51470000I0J75000D01*
G01*
X101318800Y-50020000D01*
G75*
G02*
X101393800Y-49945000I75000J0D01*
G01*
X101543800Y-49945000D01*
G75*
G02*
X101618800Y-50020000I0J-75000D01*
G01*
X101618800Y-51470000D01*
G75*
G02*
X101543800Y-51545000I-75000J0D01*
G01*
G37*
G36*
G01*
X102043800Y-51545000D02*
X101893800Y-51545000D01*
G75*
G02*
X101818800Y-51470000I0J75000D01*
G01*
X101818800Y-50020000D01*
G75*
G02*
X101893800Y-49945000I75000J0D01*
G01*
X102043800Y-49945000D01*
G75*
G02*
X102118800Y-50020000I0J-75000D01*
G01*
X102118800Y-51470000D01*
G75*
G02*
X102043800Y-51545000I-75000J0D01*
G01*
G37*
G36*
G01*
X102543800Y-51545000D02*
X102393800Y-51545000D01*
G75*
G02*
X102318800Y-51470000I0J75000D01*
G01*
X102318800Y-50020000D01*
G75*
G02*
X102393800Y-49945000I75000J0D01*
G01*
X102543800Y-49945000D01*
G75*
G02*
X102618800Y-50020000I0J-75000D01*
G01*
X102618800Y-51470000D01*
G75*
G02*
X102543800Y-51545000I-75000J0D01*
G01*
G37*
G36*
G01*
X103043800Y-51545000D02*
X102893800Y-51545000D01*
G75*
G02*
X102818800Y-51470000I0J75000D01*
G01*
X102818800Y-50020000D01*
G75*
G02*
X102893800Y-49945000I75000J0D01*
G01*
X103043800Y-49945000D01*
G75*
G02*
X103118800Y-50020000I0J-75000D01*
G01*
X103118800Y-51470000D01*
G75*
G02*
X103043800Y-51545000I-75000J0D01*
G01*
G37*
G36*
G01*
X103543800Y-51545000D02*
X103393800Y-51545000D01*
G75*
G02*
X103318800Y-51470000I0J75000D01*
G01*
X103318800Y-50020000D01*
G75*
G02*
X103393800Y-49945000I75000J0D01*
G01*
X103543800Y-49945000D01*
G75*
G02*
X103618800Y-50020000I0J-75000D01*
G01*
X103618800Y-51470000D01*
G75*
G02*
X103543800Y-51545000I-75000J0D01*
G01*
G37*
G36*
G01*
X104043800Y-51545000D02*
X103893800Y-51545000D01*
G75*
G02*
X103818800Y-51470000I0J75000D01*
G01*
X103818800Y-50020000D01*
G75*
G02*
X103893800Y-49945000I75000J0D01*
G01*
X104043800Y-49945000D01*
G75*
G02*
X104118800Y-50020000I0J-75000D01*
G01*
X104118800Y-51470000D01*
G75*
G02*
X104043800Y-51545000I-75000J0D01*
G01*
G37*
G36*
G01*
X104543800Y-51545000D02*
X104393800Y-51545000D01*
G75*
G02*
X104318800Y-51470000I0J75000D01*
G01*
X104318800Y-50020000D01*
G75*
G02*
X104393800Y-49945000I75000J0D01*
G01*
X104543800Y-49945000D01*
G75*
G02*
X104618800Y-50020000I0J-75000D01*
G01*
X104618800Y-51470000D01*
G75*
G02*
X104543800Y-51545000I-75000J0D01*
G01*
G37*
G36*
G01*
X105043800Y-51545000D02*
X104893800Y-51545000D01*
G75*
G02*
X104818800Y-51470000I0J75000D01*
G01*
X104818800Y-50020000D01*
G75*
G02*
X104893800Y-49945000I75000J0D01*
G01*
X105043800Y-49945000D01*
G75*
G02*
X105118800Y-50020000I0J-75000D01*
G01*
X105118800Y-51470000D01*
G75*
G02*
X105043800Y-51545000I-75000J0D01*
G01*
G37*
G36*
G01*
X105543800Y-51545000D02*
X105393800Y-51545000D01*
G75*
G02*
X105318800Y-51470000I0J75000D01*
G01*
X105318800Y-50020000D01*
G75*
G02*
X105393800Y-49945000I75000J0D01*
G01*
X105543800Y-49945000D01*
G75*
G02*
X105618800Y-50020000I0J-75000D01*
G01*
X105618800Y-51470000D01*
G75*
G02*
X105543800Y-51545000I-75000J0D01*
G01*
G37*
G36*
G01*
X106043800Y-51545000D02*
X105893800Y-51545000D01*
G75*
G02*
X105818800Y-51470000I0J75000D01*
G01*
X105818800Y-50020000D01*
G75*
G02*
X105893800Y-49945000I75000J0D01*
G01*
X106043800Y-49945000D01*
G75*
G02*
X106118800Y-50020000I0J-75000D01*
G01*
X106118800Y-51470000D01*
G75*
G02*
X106043800Y-51545000I-75000J0D01*
G01*
G37*
G36*
G01*
X106543800Y-51545000D02*
X106393800Y-51545000D01*
G75*
G02*
X106318800Y-51470000I0J75000D01*
G01*
X106318800Y-50020000D01*
G75*
G02*
X106393800Y-49945000I75000J0D01*
G01*
X106543800Y-49945000D01*
G75*
G02*
X106618800Y-50020000I0J-75000D01*
G01*
X106618800Y-51470000D01*
G75*
G02*
X106543800Y-51545000I-75000J0D01*
G01*
G37*
G36*
G01*
X107043800Y-51545000D02*
X106893800Y-51545000D01*
G75*
G02*
X106818800Y-51470000I0J75000D01*
G01*
X106818800Y-50020000D01*
G75*
G02*
X106893800Y-49945000I75000J0D01*
G01*
X107043800Y-49945000D01*
G75*
G02*
X107118800Y-50020000I0J-75000D01*
G01*
X107118800Y-51470000D01*
G75*
G02*
X107043800Y-51545000I-75000J0D01*
G01*
G37*
G36*
G01*
X107543800Y-51545000D02*
X107393800Y-51545000D01*
G75*
G02*
X107318800Y-51470000I0J75000D01*
G01*
X107318800Y-50020000D01*
G75*
G02*
X107393800Y-49945000I75000J0D01*
G01*
X107543800Y-49945000D01*
G75*
G02*
X107618800Y-50020000I0J-75000D01*
G01*
X107618800Y-51470000D01*
G75*
G02*
X107543800Y-51545000I-75000J0D01*
G01*
G37*
G36*
G01*
X108043800Y-51545000D02*
X107893800Y-51545000D01*
G75*
G02*
X107818800Y-51470000I0J75000D01*
G01*
X107818800Y-50020000D01*
G75*
G02*
X107893800Y-49945000I75000J0D01*
G01*
X108043800Y-49945000D01*
G75*
G02*
X108118800Y-50020000I0J-75000D01*
G01*
X108118800Y-51470000D01*
G75*
G02*
X108043800Y-51545000I-75000J0D01*
G01*
G37*
G36*
G01*
X108543800Y-51545000D02*
X108393800Y-51545000D01*
G75*
G02*
X108318800Y-51470000I0J75000D01*
G01*
X108318800Y-50020000D01*
G75*
G02*
X108393800Y-49945000I75000J0D01*
G01*
X108543800Y-49945000D01*
G75*
G02*
X108618800Y-50020000I0J-75000D01*
G01*
X108618800Y-51470000D01*
G75*
G02*
X108543800Y-51545000I-75000J0D01*
G01*
G37*
G36*
G01*
X109043800Y-51545000D02*
X108893800Y-51545000D01*
G75*
G02*
X108818800Y-51470000I0J75000D01*
G01*
X108818800Y-50020000D01*
G75*
G02*
X108893800Y-49945000I75000J0D01*
G01*
X109043800Y-49945000D01*
G75*
G02*
X109118800Y-50020000I0J-75000D01*
G01*
X109118800Y-51470000D01*
G75*
G02*
X109043800Y-51545000I-75000J0D01*
G01*
G37*
G36*
G01*
X109543800Y-51545000D02*
X109393800Y-51545000D01*
G75*
G02*
X109318800Y-51470000I0J75000D01*
G01*
X109318800Y-50020000D01*
G75*
G02*
X109393800Y-49945000I75000J0D01*
G01*
X109543800Y-49945000D01*
G75*
G02*
X109618800Y-50020000I0J-75000D01*
G01*
X109618800Y-51470000D01*
G75*
G02*
X109543800Y-51545000I-75000J0D01*
G01*
G37*
G36*
G01*
X110043800Y-51545000D02*
X109893800Y-51545000D01*
G75*
G02*
X109818800Y-51470000I0J75000D01*
G01*
X109818800Y-50020000D01*
G75*
G02*
X109893800Y-49945000I75000J0D01*
G01*
X110043800Y-49945000D01*
G75*
G02*
X110118800Y-50020000I0J-75000D01*
G01*
X110118800Y-51470000D01*
G75*
G02*
X110043800Y-51545000I-75000J0D01*
G01*
G37*
G36*
G01*
X110543800Y-51545000D02*
X110393800Y-51545000D01*
G75*
G02*
X110318800Y-51470000I0J75000D01*
G01*
X110318800Y-50020000D01*
G75*
G02*
X110393800Y-49945000I75000J0D01*
G01*
X110543800Y-49945000D01*
G75*
G02*
X110618800Y-50020000I0J-75000D01*
G01*
X110618800Y-51470000D01*
G75*
G02*
X110543800Y-51545000I-75000J0D01*
G01*
G37*
G36*
G01*
X111043800Y-51545000D02*
X110893800Y-51545000D01*
G75*
G02*
X110818800Y-51470000I0J75000D01*
G01*
X110818800Y-50020000D01*
G75*
G02*
X110893800Y-49945000I75000J0D01*
G01*
X111043800Y-49945000D01*
G75*
G02*
X111118800Y-50020000I0J-75000D01*
G01*
X111118800Y-51470000D01*
G75*
G02*
X111043800Y-51545000I-75000J0D01*
G01*
G37*
G36*
G01*
X111543800Y-51545000D02*
X111393800Y-51545000D01*
G75*
G02*
X111318800Y-51470000I0J75000D01*
G01*
X111318800Y-50020000D01*
G75*
G02*
X111393800Y-49945000I75000J0D01*
G01*
X111543800Y-49945000D01*
G75*
G02*
X111618800Y-50020000I0J-75000D01*
G01*
X111618800Y-51470000D01*
G75*
G02*
X111543800Y-51545000I-75000J0D01*
G01*
G37*
G36*
G01*
X112043800Y-51545000D02*
X111893800Y-51545000D01*
G75*
G02*
X111818800Y-51470000I0J75000D01*
G01*
X111818800Y-50020000D01*
G75*
G02*
X111893800Y-49945000I75000J0D01*
G01*
X112043800Y-49945000D01*
G75*
G02*
X112118800Y-50020000I0J-75000D01*
G01*
X112118800Y-51470000D01*
G75*
G02*
X112043800Y-51545000I-75000J0D01*
G01*
G37*
G36*
G01*
X114368800Y-52570000D02*
X112918800Y-52570000D01*
G75*
G02*
X112843800Y-52495000I0J75000D01*
G01*
X112843800Y-52345000D01*
G75*
G02*
X112918800Y-52270000I75000J0D01*
G01*
X114368800Y-52270000D01*
G75*
G02*
X114443800Y-52345000I0J-75000D01*
G01*
X114443800Y-52495000D01*
G75*
G02*
X114368800Y-52570000I-75000J0D01*
G01*
G37*
G36*
G01*
X114368800Y-53070000D02*
X112918800Y-53070000D01*
G75*
G02*
X112843800Y-52995000I0J75000D01*
G01*
X112843800Y-52845000D01*
G75*
G02*
X112918800Y-52770000I75000J0D01*
G01*
X114368800Y-52770000D01*
G75*
G02*
X114443800Y-52845000I0J-75000D01*
G01*
X114443800Y-52995000D01*
G75*
G02*
X114368800Y-53070000I-75000J0D01*
G01*
G37*
G36*
G01*
X114368800Y-53570000D02*
X112918800Y-53570000D01*
G75*
G02*
X112843800Y-53495000I0J75000D01*
G01*
X112843800Y-53345000D01*
G75*
G02*
X112918800Y-53270000I75000J0D01*
G01*
X114368800Y-53270000D01*
G75*
G02*
X114443800Y-53345000I0J-75000D01*
G01*
X114443800Y-53495000D01*
G75*
G02*
X114368800Y-53570000I-75000J0D01*
G01*
G37*
G36*
G01*
X114368800Y-54070000D02*
X112918800Y-54070000D01*
G75*
G02*
X112843800Y-53995000I0J75000D01*
G01*
X112843800Y-53845000D01*
G75*
G02*
X112918800Y-53770000I75000J0D01*
G01*
X114368800Y-53770000D01*
G75*
G02*
X114443800Y-53845000I0J-75000D01*
G01*
X114443800Y-53995000D01*
G75*
G02*
X114368800Y-54070000I-75000J0D01*
G01*
G37*
G36*
G01*
X114368800Y-54570000D02*
X112918800Y-54570000D01*
G75*
G02*
X112843800Y-54495000I0J75000D01*
G01*
X112843800Y-54345000D01*
G75*
G02*
X112918800Y-54270000I75000J0D01*
G01*
X114368800Y-54270000D01*
G75*
G02*
X114443800Y-54345000I0J-75000D01*
G01*
X114443800Y-54495000D01*
G75*
G02*
X114368800Y-54570000I-75000J0D01*
G01*
G37*
G36*
G01*
X114368800Y-55070000D02*
X112918800Y-55070000D01*
G75*
G02*
X112843800Y-54995000I0J75000D01*
G01*
X112843800Y-54845000D01*
G75*
G02*
X112918800Y-54770000I75000J0D01*
G01*
X114368800Y-54770000D01*
G75*
G02*
X114443800Y-54845000I0J-75000D01*
G01*
X114443800Y-54995000D01*
G75*
G02*
X114368800Y-55070000I-75000J0D01*
G01*
G37*
G36*
G01*
X114368800Y-55570000D02*
X112918800Y-55570000D01*
G75*
G02*
X112843800Y-55495000I0J75000D01*
G01*
X112843800Y-55345000D01*
G75*
G02*
X112918800Y-55270000I75000J0D01*
G01*
X114368800Y-55270000D01*
G75*
G02*
X114443800Y-55345000I0J-75000D01*
G01*
X114443800Y-55495000D01*
G75*
G02*
X114368800Y-55570000I-75000J0D01*
G01*
G37*
G36*
G01*
X114368800Y-56070000D02*
X112918800Y-56070000D01*
G75*
G02*
X112843800Y-55995000I0J75000D01*
G01*
X112843800Y-55845000D01*
G75*
G02*
X112918800Y-55770000I75000J0D01*
G01*
X114368800Y-55770000D01*
G75*
G02*
X114443800Y-55845000I0J-75000D01*
G01*
X114443800Y-55995000D01*
G75*
G02*
X114368800Y-56070000I-75000J0D01*
G01*
G37*
G36*
G01*
X114368800Y-56570000D02*
X112918800Y-56570000D01*
G75*
G02*
X112843800Y-56495000I0J75000D01*
G01*
X112843800Y-56345000D01*
G75*
G02*
X112918800Y-56270000I75000J0D01*
G01*
X114368800Y-56270000D01*
G75*
G02*
X114443800Y-56345000I0J-75000D01*
G01*
X114443800Y-56495000D01*
G75*
G02*
X114368800Y-56570000I-75000J0D01*
G01*
G37*
G36*
G01*
X114368800Y-57070000D02*
X112918800Y-57070000D01*
G75*
G02*
X112843800Y-56995000I0J75000D01*
G01*
X112843800Y-56845000D01*
G75*
G02*
X112918800Y-56770000I75000J0D01*
G01*
X114368800Y-56770000D01*
G75*
G02*
X114443800Y-56845000I0J-75000D01*
G01*
X114443800Y-56995000D01*
G75*
G02*
X114368800Y-57070000I-75000J0D01*
G01*
G37*
G36*
G01*
X114368800Y-57570000D02*
X112918800Y-57570000D01*
G75*
G02*
X112843800Y-57495000I0J75000D01*
G01*
X112843800Y-57345000D01*
G75*
G02*
X112918800Y-57270000I75000J0D01*
G01*
X114368800Y-57270000D01*
G75*
G02*
X114443800Y-57345000I0J-75000D01*
G01*
X114443800Y-57495000D01*
G75*
G02*
X114368800Y-57570000I-75000J0D01*
G01*
G37*
G36*
G01*
X114368800Y-58070000D02*
X112918800Y-58070000D01*
G75*
G02*
X112843800Y-57995000I0J75000D01*
G01*
X112843800Y-57845000D01*
G75*
G02*
X112918800Y-57770000I75000J0D01*
G01*
X114368800Y-57770000D01*
G75*
G02*
X114443800Y-57845000I0J-75000D01*
G01*
X114443800Y-57995000D01*
G75*
G02*
X114368800Y-58070000I-75000J0D01*
G01*
G37*
G36*
G01*
X114368800Y-58570000D02*
X112918800Y-58570000D01*
G75*
G02*
X112843800Y-58495000I0J75000D01*
G01*
X112843800Y-58345000D01*
G75*
G02*
X112918800Y-58270000I75000J0D01*
G01*
X114368800Y-58270000D01*
G75*
G02*
X114443800Y-58345000I0J-75000D01*
G01*
X114443800Y-58495000D01*
G75*
G02*
X114368800Y-58570000I-75000J0D01*
G01*
G37*
G36*
G01*
X114368800Y-59070000D02*
X112918800Y-59070000D01*
G75*
G02*
X112843800Y-58995000I0J75000D01*
G01*
X112843800Y-58845000D01*
G75*
G02*
X112918800Y-58770000I75000J0D01*
G01*
X114368800Y-58770000D01*
G75*
G02*
X114443800Y-58845000I0J-75000D01*
G01*
X114443800Y-58995000D01*
G75*
G02*
X114368800Y-59070000I-75000J0D01*
G01*
G37*
G36*
G01*
X114368800Y-59570000D02*
X112918800Y-59570000D01*
G75*
G02*
X112843800Y-59495000I0J75000D01*
G01*
X112843800Y-59345000D01*
G75*
G02*
X112918800Y-59270000I75000J0D01*
G01*
X114368800Y-59270000D01*
G75*
G02*
X114443800Y-59345000I0J-75000D01*
G01*
X114443800Y-59495000D01*
G75*
G02*
X114368800Y-59570000I-75000J0D01*
G01*
G37*
G36*
G01*
X114368800Y-60070000D02*
X112918800Y-60070000D01*
G75*
G02*
X112843800Y-59995000I0J75000D01*
G01*
X112843800Y-59845000D01*
G75*
G02*
X112918800Y-59770000I75000J0D01*
G01*
X114368800Y-59770000D01*
G75*
G02*
X114443800Y-59845000I0J-75000D01*
G01*
X114443800Y-59995000D01*
G75*
G02*
X114368800Y-60070000I-75000J0D01*
G01*
G37*
G36*
G01*
X114368800Y-60570000D02*
X112918800Y-60570000D01*
G75*
G02*
X112843800Y-60495000I0J75000D01*
G01*
X112843800Y-60345000D01*
G75*
G02*
X112918800Y-60270000I75000J0D01*
G01*
X114368800Y-60270000D01*
G75*
G02*
X114443800Y-60345000I0J-75000D01*
G01*
X114443800Y-60495000D01*
G75*
G02*
X114368800Y-60570000I-75000J0D01*
G01*
G37*
G36*
G01*
X114368800Y-61070000D02*
X112918800Y-61070000D01*
G75*
G02*
X112843800Y-60995000I0J75000D01*
G01*
X112843800Y-60845000D01*
G75*
G02*
X112918800Y-60770000I75000J0D01*
G01*
X114368800Y-60770000D01*
G75*
G02*
X114443800Y-60845000I0J-75000D01*
G01*
X114443800Y-60995000D01*
G75*
G02*
X114368800Y-61070000I-75000J0D01*
G01*
G37*
G36*
G01*
X114368800Y-61570000D02*
X112918800Y-61570000D01*
G75*
G02*
X112843800Y-61495000I0J75000D01*
G01*
X112843800Y-61345000D01*
G75*
G02*
X112918800Y-61270000I75000J0D01*
G01*
X114368800Y-61270000D01*
G75*
G02*
X114443800Y-61345000I0J-75000D01*
G01*
X114443800Y-61495000D01*
G75*
G02*
X114368800Y-61570000I-75000J0D01*
G01*
G37*
G36*
G01*
X114368800Y-62070000D02*
X112918800Y-62070000D01*
G75*
G02*
X112843800Y-61995000I0J75000D01*
G01*
X112843800Y-61845000D01*
G75*
G02*
X112918800Y-61770000I75000J0D01*
G01*
X114368800Y-61770000D01*
G75*
G02*
X114443800Y-61845000I0J-75000D01*
G01*
X114443800Y-61995000D01*
G75*
G02*
X114368800Y-62070000I-75000J0D01*
G01*
G37*
G36*
G01*
X114368800Y-62570000D02*
X112918800Y-62570000D01*
G75*
G02*
X112843800Y-62495000I0J75000D01*
G01*
X112843800Y-62345000D01*
G75*
G02*
X112918800Y-62270000I75000J0D01*
G01*
X114368800Y-62270000D01*
G75*
G02*
X114443800Y-62345000I0J-75000D01*
G01*
X114443800Y-62495000D01*
G75*
G02*
X114368800Y-62570000I-75000J0D01*
G01*
G37*
G36*
G01*
X114368800Y-63070000D02*
X112918800Y-63070000D01*
G75*
G02*
X112843800Y-62995000I0J75000D01*
G01*
X112843800Y-62845000D01*
G75*
G02*
X112918800Y-62770000I75000J0D01*
G01*
X114368800Y-62770000D01*
G75*
G02*
X114443800Y-62845000I0J-75000D01*
G01*
X114443800Y-62995000D01*
G75*
G02*
X114368800Y-63070000I-75000J0D01*
G01*
G37*
G36*
G01*
X114368800Y-63570000D02*
X112918800Y-63570000D01*
G75*
G02*
X112843800Y-63495000I0J75000D01*
G01*
X112843800Y-63345000D01*
G75*
G02*
X112918800Y-63270000I75000J0D01*
G01*
X114368800Y-63270000D01*
G75*
G02*
X114443800Y-63345000I0J-75000D01*
G01*
X114443800Y-63495000D01*
G75*
G02*
X114368800Y-63570000I-75000J0D01*
G01*
G37*
G36*
G01*
X114368800Y-64070000D02*
X112918800Y-64070000D01*
G75*
G02*
X112843800Y-63995000I0J75000D01*
G01*
X112843800Y-63845000D01*
G75*
G02*
X112918800Y-63770000I75000J0D01*
G01*
X114368800Y-63770000D01*
G75*
G02*
X114443800Y-63845000I0J-75000D01*
G01*
X114443800Y-63995000D01*
G75*
G02*
X114368800Y-64070000I-75000J0D01*
G01*
G37*
G36*
G01*
X114368800Y-64570000D02*
X112918800Y-64570000D01*
G75*
G02*
X112843800Y-64495000I0J75000D01*
G01*
X112843800Y-64345000D01*
G75*
G02*
X112918800Y-64270000I75000J0D01*
G01*
X114368800Y-64270000D01*
G75*
G02*
X114443800Y-64345000I0J-75000D01*
G01*
X114443800Y-64495000D01*
G75*
G02*
X114368800Y-64570000I-75000J0D01*
G01*
G37*
G36*
G01*
X112043800Y-66895000D02*
X111893800Y-66895000D01*
G75*
G02*
X111818800Y-66820000I0J75000D01*
G01*
X111818800Y-65370000D01*
G75*
G02*
X111893800Y-65295000I75000J0D01*
G01*
X112043800Y-65295000D01*
G75*
G02*
X112118800Y-65370000I0J-75000D01*
G01*
X112118800Y-66820000D01*
G75*
G02*
X112043800Y-66895000I-75000J0D01*
G01*
G37*
G36*
G01*
X111543800Y-66895000D02*
X111393800Y-66895000D01*
G75*
G02*
X111318800Y-66820000I0J75000D01*
G01*
X111318800Y-65370000D01*
G75*
G02*
X111393800Y-65295000I75000J0D01*
G01*
X111543800Y-65295000D01*
G75*
G02*
X111618800Y-65370000I0J-75000D01*
G01*
X111618800Y-66820000D01*
G75*
G02*
X111543800Y-66895000I-75000J0D01*
G01*
G37*
G36*
G01*
X111043800Y-66895000D02*
X110893800Y-66895000D01*
G75*
G02*
X110818800Y-66820000I0J75000D01*
G01*
X110818800Y-65370000D01*
G75*
G02*
X110893800Y-65295000I75000J0D01*
G01*
X111043800Y-65295000D01*
G75*
G02*
X111118800Y-65370000I0J-75000D01*
G01*
X111118800Y-66820000D01*
G75*
G02*
X111043800Y-66895000I-75000J0D01*
G01*
G37*
G36*
G01*
X110543800Y-66895000D02*
X110393800Y-66895000D01*
G75*
G02*
X110318800Y-66820000I0J75000D01*
G01*
X110318800Y-65370000D01*
G75*
G02*
X110393800Y-65295000I75000J0D01*
G01*
X110543800Y-65295000D01*
G75*
G02*
X110618800Y-65370000I0J-75000D01*
G01*
X110618800Y-66820000D01*
G75*
G02*
X110543800Y-66895000I-75000J0D01*
G01*
G37*
G36*
G01*
X110043800Y-66895000D02*
X109893800Y-66895000D01*
G75*
G02*
X109818800Y-66820000I0J75000D01*
G01*
X109818800Y-65370000D01*
G75*
G02*
X109893800Y-65295000I75000J0D01*
G01*
X110043800Y-65295000D01*
G75*
G02*
X110118800Y-65370000I0J-75000D01*
G01*
X110118800Y-66820000D01*
G75*
G02*
X110043800Y-66895000I-75000J0D01*
G01*
G37*
G36*
G01*
X109543800Y-66895000D02*
X109393800Y-66895000D01*
G75*
G02*
X109318800Y-66820000I0J75000D01*
G01*
X109318800Y-65370000D01*
G75*
G02*
X109393800Y-65295000I75000J0D01*
G01*
X109543800Y-65295000D01*
G75*
G02*
X109618800Y-65370000I0J-75000D01*
G01*
X109618800Y-66820000D01*
G75*
G02*
X109543800Y-66895000I-75000J0D01*
G01*
G37*
G36*
G01*
X109043800Y-66895000D02*
X108893800Y-66895000D01*
G75*
G02*
X108818800Y-66820000I0J75000D01*
G01*
X108818800Y-65370000D01*
G75*
G02*
X108893800Y-65295000I75000J0D01*
G01*
X109043800Y-65295000D01*
G75*
G02*
X109118800Y-65370000I0J-75000D01*
G01*
X109118800Y-66820000D01*
G75*
G02*
X109043800Y-66895000I-75000J0D01*
G01*
G37*
G36*
G01*
X108543800Y-66895000D02*
X108393800Y-66895000D01*
G75*
G02*
X108318800Y-66820000I0J75000D01*
G01*
X108318800Y-65370000D01*
G75*
G02*
X108393800Y-65295000I75000J0D01*
G01*
X108543800Y-65295000D01*
G75*
G02*
X108618800Y-65370000I0J-75000D01*
G01*
X108618800Y-66820000D01*
G75*
G02*
X108543800Y-66895000I-75000J0D01*
G01*
G37*
G36*
G01*
X108043800Y-66895000D02*
X107893800Y-66895000D01*
G75*
G02*
X107818800Y-66820000I0J75000D01*
G01*
X107818800Y-65370000D01*
G75*
G02*
X107893800Y-65295000I75000J0D01*
G01*
X108043800Y-65295000D01*
G75*
G02*
X108118800Y-65370000I0J-75000D01*
G01*
X108118800Y-66820000D01*
G75*
G02*
X108043800Y-66895000I-75000J0D01*
G01*
G37*
G36*
G01*
X107543800Y-66895000D02*
X107393800Y-66895000D01*
G75*
G02*
X107318800Y-66820000I0J75000D01*
G01*
X107318800Y-65370000D01*
G75*
G02*
X107393800Y-65295000I75000J0D01*
G01*
X107543800Y-65295000D01*
G75*
G02*
X107618800Y-65370000I0J-75000D01*
G01*
X107618800Y-66820000D01*
G75*
G02*
X107543800Y-66895000I-75000J0D01*
G01*
G37*
G36*
G01*
X107043800Y-66895000D02*
X106893800Y-66895000D01*
G75*
G02*
X106818800Y-66820000I0J75000D01*
G01*
X106818800Y-65370000D01*
G75*
G02*
X106893800Y-65295000I75000J0D01*
G01*
X107043800Y-65295000D01*
G75*
G02*
X107118800Y-65370000I0J-75000D01*
G01*
X107118800Y-66820000D01*
G75*
G02*
X107043800Y-66895000I-75000J0D01*
G01*
G37*
G36*
G01*
X106543800Y-66895000D02*
X106393800Y-66895000D01*
G75*
G02*
X106318800Y-66820000I0J75000D01*
G01*
X106318800Y-65370000D01*
G75*
G02*
X106393800Y-65295000I75000J0D01*
G01*
X106543800Y-65295000D01*
G75*
G02*
X106618800Y-65370000I0J-75000D01*
G01*
X106618800Y-66820000D01*
G75*
G02*
X106543800Y-66895000I-75000J0D01*
G01*
G37*
G36*
G01*
X106043800Y-66895000D02*
X105893800Y-66895000D01*
G75*
G02*
X105818800Y-66820000I0J75000D01*
G01*
X105818800Y-65370000D01*
G75*
G02*
X105893800Y-65295000I75000J0D01*
G01*
X106043800Y-65295000D01*
G75*
G02*
X106118800Y-65370000I0J-75000D01*
G01*
X106118800Y-66820000D01*
G75*
G02*
X106043800Y-66895000I-75000J0D01*
G01*
G37*
G36*
G01*
X105543800Y-66895000D02*
X105393800Y-66895000D01*
G75*
G02*
X105318800Y-66820000I0J75000D01*
G01*
X105318800Y-65370000D01*
G75*
G02*
X105393800Y-65295000I75000J0D01*
G01*
X105543800Y-65295000D01*
G75*
G02*
X105618800Y-65370000I0J-75000D01*
G01*
X105618800Y-66820000D01*
G75*
G02*
X105543800Y-66895000I-75000J0D01*
G01*
G37*
G36*
G01*
X105043800Y-66895000D02*
X104893800Y-66895000D01*
G75*
G02*
X104818800Y-66820000I0J75000D01*
G01*
X104818800Y-65370000D01*
G75*
G02*
X104893800Y-65295000I75000J0D01*
G01*
X105043800Y-65295000D01*
G75*
G02*
X105118800Y-65370000I0J-75000D01*
G01*
X105118800Y-66820000D01*
G75*
G02*
X105043800Y-66895000I-75000J0D01*
G01*
G37*
G36*
G01*
X104543800Y-66895000D02*
X104393800Y-66895000D01*
G75*
G02*
X104318800Y-66820000I0J75000D01*
G01*
X104318800Y-65370000D01*
G75*
G02*
X104393800Y-65295000I75000J0D01*
G01*
X104543800Y-65295000D01*
G75*
G02*
X104618800Y-65370000I0J-75000D01*
G01*
X104618800Y-66820000D01*
G75*
G02*
X104543800Y-66895000I-75000J0D01*
G01*
G37*
G36*
G01*
X104043800Y-66895000D02*
X103893800Y-66895000D01*
G75*
G02*
X103818800Y-66820000I0J75000D01*
G01*
X103818800Y-65370000D01*
G75*
G02*
X103893800Y-65295000I75000J0D01*
G01*
X104043800Y-65295000D01*
G75*
G02*
X104118800Y-65370000I0J-75000D01*
G01*
X104118800Y-66820000D01*
G75*
G02*
X104043800Y-66895000I-75000J0D01*
G01*
G37*
G36*
G01*
X103543800Y-66895000D02*
X103393800Y-66895000D01*
G75*
G02*
X103318800Y-66820000I0J75000D01*
G01*
X103318800Y-65370000D01*
G75*
G02*
X103393800Y-65295000I75000J0D01*
G01*
X103543800Y-65295000D01*
G75*
G02*
X103618800Y-65370000I0J-75000D01*
G01*
X103618800Y-66820000D01*
G75*
G02*
X103543800Y-66895000I-75000J0D01*
G01*
G37*
G36*
G01*
X103043800Y-66895000D02*
X102893800Y-66895000D01*
G75*
G02*
X102818800Y-66820000I0J75000D01*
G01*
X102818800Y-65370000D01*
G75*
G02*
X102893800Y-65295000I75000J0D01*
G01*
X103043800Y-65295000D01*
G75*
G02*
X103118800Y-65370000I0J-75000D01*
G01*
X103118800Y-66820000D01*
G75*
G02*
X103043800Y-66895000I-75000J0D01*
G01*
G37*
G36*
G01*
X102543800Y-66895000D02*
X102393800Y-66895000D01*
G75*
G02*
X102318800Y-66820000I0J75000D01*
G01*
X102318800Y-65370000D01*
G75*
G02*
X102393800Y-65295000I75000J0D01*
G01*
X102543800Y-65295000D01*
G75*
G02*
X102618800Y-65370000I0J-75000D01*
G01*
X102618800Y-66820000D01*
G75*
G02*
X102543800Y-66895000I-75000J0D01*
G01*
G37*
G36*
G01*
X102043800Y-66895000D02*
X101893800Y-66895000D01*
G75*
G02*
X101818800Y-66820000I0J75000D01*
G01*
X101818800Y-65370000D01*
G75*
G02*
X101893800Y-65295000I75000J0D01*
G01*
X102043800Y-65295000D01*
G75*
G02*
X102118800Y-65370000I0J-75000D01*
G01*
X102118800Y-66820000D01*
G75*
G02*
X102043800Y-66895000I-75000J0D01*
G01*
G37*
G36*
G01*
X101543800Y-66895000D02*
X101393800Y-66895000D01*
G75*
G02*
X101318800Y-66820000I0J75000D01*
G01*
X101318800Y-65370000D01*
G75*
G02*
X101393800Y-65295000I75000J0D01*
G01*
X101543800Y-65295000D01*
G75*
G02*
X101618800Y-65370000I0J-75000D01*
G01*
X101618800Y-66820000D01*
G75*
G02*
X101543800Y-66895000I-75000J0D01*
G01*
G37*
G36*
G01*
X101043800Y-66895000D02*
X100893800Y-66895000D01*
G75*
G02*
X100818800Y-66820000I0J75000D01*
G01*
X100818800Y-65370000D01*
G75*
G02*
X100893800Y-65295000I75000J0D01*
G01*
X101043800Y-65295000D01*
G75*
G02*
X101118800Y-65370000I0J-75000D01*
G01*
X101118800Y-66820000D01*
G75*
G02*
X101043800Y-66895000I-75000J0D01*
G01*
G37*
G36*
G01*
X100543800Y-66895000D02*
X100393800Y-66895000D01*
G75*
G02*
X100318800Y-66820000I0J75000D01*
G01*
X100318800Y-65370000D01*
G75*
G02*
X100393800Y-65295000I75000J0D01*
G01*
X100543800Y-65295000D01*
G75*
G02*
X100618800Y-65370000I0J-75000D01*
G01*
X100618800Y-66820000D01*
G75*
G02*
X100543800Y-66895000I-75000J0D01*
G01*
G37*
G36*
G01*
X100043800Y-66895000D02*
X99893800Y-66895000D01*
G75*
G02*
X99818800Y-66820000I0J75000D01*
G01*
X99818800Y-65370000D01*
G75*
G02*
X99893800Y-65295000I75000J0D01*
G01*
X100043800Y-65295000D01*
G75*
G02*
X100118800Y-65370000I0J-75000D01*
G01*
X100118800Y-66820000D01*
G75*
G02*
X100043800Y-66895000I-75000J0D01*
G01*
G37*
%TD*%
D27*
%TO.C,U2*%
X130531500Y-62386500D03*
X130531500Y-61311500D03*
D28*
X132306500Y-61849000D03*
X130456500Y-61849000D03*
D27*
X132231500Y-61311500D03*
X132231500Y-62386500D03*
%TD*%
D29*
%TO.C,U3*%
X113650000Y-22022800D03*
X115650000Y-22022800D03*
X117650000Y-22022800D03*
X119650000Y-22022800D03*
X121650000Y-22022800D03*
X123650000Y-22022800D03*
X125650000Y-22022800D03*
X127650000Y-22022800D03*
X127650000Y-38022800D03*
X125650000Y-38022800D03*
X123650000Y-38022800D03*
X121650000Y-38022800D03*
X119650000Y-38022800D03*
X117650000Y-38022800D03*
X115650000Y-38022800D03*
X113650000Y-38022800D03*
%TD*%
%TO.C,U4*%
G36*
G01*
X79506400Y-54836200D02*
X79506400Y-54536200D01*
G75*
G02*
X79656400Y-54386200I150000J0D01*
G01*
X81306400Y-54386200D01*
G75*
G02*
X81456400Y-54536200I0J-150000D01*
G01*
X81456400Y-54836200D01*
G75*
G02*
X81306400Y-54986200I-150000J0D01*
G01*
X79656400Y-54986200D01*
G75*
G02*
X79506400Y-54836200I0J150000D01*
G01*
G37*
G36*
G01*
X79506400Y-56106200D02*
X79506400Y-55806200D01*
G75*
G02*
X79656400Y-55656200I150000J0D01*
G01*
X81306400Y-55656200D01*
G75*
G02*
X81456400Y-55806200I0J-150000D01*
G01*
X81456400Y-56106200D01*
G75*
G02*
X81306400Y-56256200I-150000J0D01*
G01*
X79656400Y-56256200D01*
G75*
G02*
X79506400Y-56106200I0J150000D01*
G01*
G37*
G36*
G01*
X79506400Y-57376200D02*
X79506400Y-57076200D01*
G75*
G02*
X79656400Y-56926200I150000J0D01*
G01*
X81306400Y-56926200D01*
G75*
G02*
X81456400Y-57076200I0J-150000D01*
G01*
X81456400Y-57376200D01*
G75*
G02*
X81306400Y-57526200I-150000J0D01*
G01*
X79656400Y-57526200D01*
G75*
G02*
X79506400Y-57376200I0J150000D01*
G01*
G37*
G36*
G01*
X79506400Y-58646200D02*
X79506400Y-58346200D01*
G75*
G02*
X79656400Y-58196200I150000J0D01*
G01*
X81306400Y-58196200D01*
G75*
G02*
X81456400Y-58346200I0J-150000D01*
G01*
X81456400Y-58646200D01*
G75*
G02*
X81306400Y-58796200I-150000J0D01*
G01*
X79656400Y-58796200D01*
G75*
G02*
X79506400Y-58646200I0J150000D01*
G01*
G37*
G36*
G01*
X84456400Y-58646200D02*
X84456400Y-58346200D01*
G75*
G02*
X84606400Y-58196200I150000J0D01*
G01*
X86256400Y-58196200D01*
G75*
G02*
X86406400Y-58346200I0J-150000D01*
G01*
X86406400Y-58646200D01*
G75*
G02*
X86256400Y-58796200I-150000J0D01*
G01*
X84606400Y-58796200D01*
G75*
G02*
X84456400Y-58646200I0J150000D01*
G01*
G37*
G36*
G01*
X84456400Y-57376200D02*
X84456400Y-57076200D01*
G75*
G02*
X84606400Y-56926200I150000J0D01*
G01*
X86256400Y-56926200D01*
G75*
G02*
X86406400Y-57076200I0J-150000D01*
G01*
X86406400Y-57376200D01*
G75*
G02*
X86256400Y-57526200I-150000J0D01*
G01*
X84606400Y-57526200D01*
G75*
G02*
X84456400Y-57376200I0J150000D01*
G01*
G37*
G36*
G01*
X84456400Y-56106200D02*
X84456400Y-55806200D01*
G75*
G02*
X84606400Y-55656200I150000J0D01*
G01*
X86256400Y-55656200D01*
G75*
G02*
X86406400Y-55806200I0J-150000D01*
G01*
X86406400Y-56106200D01*
G75*
G02*
X86256400Y-56256200I-150000J0D01*
G01*
X84606400Y-56256200D01*
G75*
G02*
X84456400Y-56106200I0J150000D01*
G01*
G37*
G36*
G01*
X84456400Y-54836200D02*
X84456400Y-54536200D01*
G75*
G02*
X84606400Y-54386200I150000J0D01*
G01*
X86256400Y-54386200D01*
G75*
G02*
X86406400Y-54536200I0J-150000D01*
G01*
X86406400Y-54836200D01*
G75*
G02*
X86256400Y-54986200I-150000J0D01*
G01*
X84606400Y-54986200D01*
G75*
G02*
X84456400Y-54836200I0J150000D01*
G01*
G37*
%TD*%
%TO.C,U5*%
G36*
G01*
X84456400Y-46200200D02*
X84456400Y-45900200D01*
G75*
G02*
X84606400Y-45750200I150000J0D01*
G01*
X86256400Y-45750200D01*
G75*
G02*
X86406400Y-45900200I0J-150000D01*
G01*
X86406400Y-46200200D01*
G75*
G02*
X86256400Y-46350200I-150000J0D01*
G01*
X84606400Y-46350200D01*
G75*
G02*
X84456400Y-46200200I0J150000D01*
G01*
G37*
G36*
G01*
X84456400Y-47470200D02*
X84456400Y-47170200D01*
G75*
G02*
X84606400Y-47020200I150000J0D01*
G01*
X86256400Y-47020200D01*
G75*
G02*
X86406400Y-47170200I0J-150000D01*
G01*
X86406400Y-47470200D01*
G75*
G02*
X86256400Y-47620200I-150000J0D01*
G01*
X84606400Y-47620200D01*
G75*
G02*
X84456400Y-47470200I0J150000D01*
G01*
G37*
G36*
G01*
X84456400Y-48740200D02*
X84456400Y-48440200D01*
G75*
G02*
X84606400Y-48290200I150000J0D01*
G01*
X86256400Y-48290200D01*
G75*
G02*
X86406400Y-48440200I0J-150000D01*
G01*
X86406400Y-48740200D01*
G75*
G02*
X86256400Y-48890200I-150000J0D01*
G01*
X84606400Y-48890200D01*
G75*
G02*
X84456400Y-48740200I0J150000D01*
G01*
G37*
G36*
G01*
X84456400Y-50010200D02*
X84456400Y-49710200D01*
G75*
G02*
X84606400Y-49560200I150000J0D01*
G01*
X86256400Y-49560200D01*
G75*
G02*
X86406400Y-49710200I0J-150000D01*
G01*
X86406400Y-50010200D01*
G75*
G02*
X86256400Y-50160200I-150000J0D01*
G01*
X84606400Y-50160200D01*
G75*
G02*
X84456400Y-50010200I0J150000D01*
G01*
G37*
G36*
G01*
X79506400Y-50010200D02*
X79506400Y-49710200D01*
G75*
G02*
X79656400Y-49560200I150000J0D01*
G01*
X81306400Y-49560200D01*
G75*
G02*
X81456400Y-49710200I0J-150000D01*
G01*
X81456400Y-50010200D01*
G75*
G02*
X81306400Y-50160200I-150000J0D01*
G01*
X79656400Y-50160200D01*
G75*
G02*
X79506400Y-50010200I0J150000D01*
G01*
G37*
G36*
G01*
X79506400Y-48740200D02*
X79506400Y-48440200D01*
G75*
G02*
X79656400Y-48290200I150000J0D01*
G01*
X81306400Y-48290200D01*
G75*
G02*
X81456400Y-48440200I0J-150000D01*
G01*
X81456400Y-48740200D01*
G75*
G02*
X81306400Y-48890200I-150000J0D01*
G01*
X79656400Y-48890200D01*
G75*
G02*
X79506400Y-48740200I0J150000D01*
G01*
G37*
G36*
G01*
X79506400Y-47470200D02*
X79506400Y-47170200D01*
G75*
G02*
X79656400Y-47020200I150000J0D01*
G01*
X81306400Y-47020200D01*
G75*
G02*
X81456400Y-47170200I0J-150000D01*
G01*
X81456400Y-47470200D01*
G75*
G02*
X81306400Y-47620200I-150000J0D01*
G01*
X79656400Y-47620200D01*
G75*
G02*
X79506400Y-47470200I0J150000D01*
G01*
G37*
G36*
G01*
X79506400Y-46200200D02*
X79506400Y-45900200D01*
G75*
G02*
X79656400Y-45750200I150000J0D01*
G01*
X81306400Y-45750200D01*
G75*
G02*
X81456400Y-45900200I0J-150000D01*
G01*
X81456400Y-46200200D01*
G75*
G02*
X81306400Y-46350200I-150000J0D01*
G01*
X79656400Y-46350200D01*
G75*
G02*
X79506400Y-46200200I0J150000D01*
G01*
G37*
%TD*%
%TO.C,U6*%
G36*
G01*
X67129800Y-43074000D02*
X66829800Y-43074000D01*
G75*
G02*
X66679800Y-42924000I0J150000D01*
G01*
X66679800Y-41274000D01*
G75*
G02*
X66829800Y-41124000I150000J0D01*
G01*
X67129800Y-41124000D01*
G75*
G02*
X67279800Y-41274000I0J-150000D01*
G01*
X67279800Y-42924000D01*
G75*
G02*
X67129800Y-43074000I-150000J0D01*
G01*
G37*
G36*
G01*
X68399800Y-43074000D02*
X68099800Y-43074000D01*
G75*
G02*
X67949800Y-42924000I0J150000D01*
G01*
X67949800Y-41274000D01*
G75*
G02*
X68099800Y-41124000I150000J0D01*
G01*
X68399800Y-41124000D01*
G75*
G02*
X68549800Y-41274000I0J-150000D01*
G01*
X68549800Y-42924000D01*
G75*
G02*
X68399800Y-43074000I-150000J0D01*
G01*
G37*
G36*
G01*
X69669800Y-43074000D02*
X69369800Y-43074000D01*
G75*
G02*
X69219800Y-42924000I0J150000D01*
G01*
X69219800Y-41274000D01*
G75*
G02*
X69369800Y-41124000I150000J0D01*
G01*
X69669800Y-41124000D01*
G75*
G02*
X69819800Y-41274000I0J-150000D01*
G01*
X69819800Y-42924000D01*
G75*
G02*
X69669800Y-43074000I-150000J0D01*
G01*
G37*
G36*
G01*
X70939800Y-43074000D02*
X70639800Y-43074000D01*
G75*
G02*
X70489800Y-42924000I0J150000D01*
G01*
X70489800Y-41274000D01*
G75*
G02*
X70639800Y-41124000I150000J0D01*
G01*
X70939800Y-41124000D01*
G75*
G02*
X71089800Y-41274000I0J-150000D01*
G01*
X71089800Y-42924000D01*
G75*
G02*
X70939800Y-43074000I-150000J0D01*
G01*
G37*
G36*
G01*
X70939800Y-38124000D02*
X70639800Y-38124000D01*
G75*
G02*
X70489800Y-37974000I0J150000D01*
G01*
X70489800Y-36324000D01*
G75*
G02*
X70639800Y-36174000I150000J0D01*
G01*
X70939800Y-36174000D01*
G75*
G02*
X71089800Y-36324000I0J-150000D01*
G01*
X71089800Y-37974000D01*
G75*
G02*
X70939800Y-38124000I-150000J0D01*
G01*
G37*
G36*
G01*
X69669800Y-38124000D02*
X69369800Y-38124000D01*
G75*
G02*
X69219800Y-37974000I0J150000D01*
G01*
X69219800Y-36324000D01*
G75*
G02*
X69369800Y-36174000I150000J0D01*
G01*
X69669800Y-36174000D01*
G75*
G02*
X69819800Y-36324000I0J-150000D01*
G01*
X69819800Y-37974000D01*
G75*
G02*
X69669800Y-38124000I-150000J0D01*
G01*
G37*
G36*
G01*
X68399800Y-38124000D02*
X68099800Y-38124000D01*
G75*
G02*
X67949800Y-37974000I0J150000D01*
G01*
X67949800Y-36324000D01*
G75*
G02*
X68099800Y-36174000I150000J0D01*
G01*
X68399800Y-36174000D01*
G75*
G02*
X68549800Y-36324000I0J-150000D01*
G01*
X68549800Y-37974000D01*
G75*
G02*
X68399800Y-38124000I-150000J0D01*
G01*
G37*
G36*
G01*
X67129800Y-38124000D02*
X66829800Y-38124000D01*
G75*
G02*
X66679800Y-37974000I0J150000D01*
G01*
X66679800Y-36324000D01*
G75*
G02*
X66829800Y-36174000I150000J0D01*
G01*
X67129800Y-36174000D01*
G75*
G02*
X67279800Y-36324000I0J-150000D01*
G01*
X67279800Y-37974000D01*
G75*
G02*
X67129800Y-38124000I-150000J0D01*
G01*
G37*
%TD*%
%TO.C,U7*%
G36*
G01*
X93037800Y-43074000D02*
X92737800Y-43074000D01*
G75*
G02*
X92587800Y-42924000I0J150000D01*
G01*
X92587800Y-41274000D01*
G75*
G02*
X92737800Y-41124000I150000J0D01*
G01*
X93037800Y-41124000D01*
G75*
G02*
X93187800Y-41274000I0J-150000D01*
G01*
X93187800Y-42924000D01*
G75*
G02*
X93037800Y-43074000I-150000J0D01*
G01*
G37*
G36*
G01*
X94307800Y-43074000D02*
X94007800Y-43074000D01*
G75*
G02*
X93857800Y-42924000I0J150000D01*
G01*
X93857800Y-41274000D01*
G75*
G02*
X94007800Y-41124000I150000J0D01*
G01*
X94307800Y-41124000D01*
G75*
G02*
X94457800Y-41274000I0J-150000D01*
G01*
X94457800Y-42924000D01*
G75*
G02*
X94307800Y-43074000I-150000J0D01*
G01*
G37*
G36*
G01*
X95577800Y-43074000D02*
X95277800Y-43074000D01*
G75*
G02*
X95127800Y-42924000I0J150000D01*
G01*
X95127800Y-41274000D01*
G75*
G02*
X95277800Y-41124000I150000J0D01*
G01*
X95577800Y-41124000D01*
G75*
G02*
X95727800Y-41274000I0J-150000D01*
G01*
X95727800Y-42924000D01*
G75*
G02*
X95577800Y-43074000I-150000J0D01*
G01*
G37*
G36*
G01*
X96847800Y-43074000D02*
X96547800Y-43074000D01*
G75*
G02*
X96397800Y-42924000I0J150000D01*
G01*
X96397800Y-41274000D01*
G75*
G02*
X96547800Y-41124000I150000J0D01*
G01*
X96847800Y-41124000D01*
G75*
G02*
X96997800Y-41274000I0J-150000D01*
G01*
X96997800Y-42924000D01*
G75*
G02*
X96847800Y-43074000I-150000J0D01*
G01*
G37*
G36*
G01*
X96847800Y-38124000D02*
X96547800Y-38124000D01*
G75*
G02*
X96397800Y-37974000I0J150000D01*
G01*
X96397800Y-36324000D01*
G75*
G02*
X96547800Y-36174000I150000J0D01*
G01*
X96847800Y-36174000D01*
G75*
G02*
X96997800Y-36324000I0J-150000D01*
G01*
X96997800Y-37974000D01*
G75*
G02*
X96847800Y-38124000I-150000J0D01*
G01*
G37*
G36*
G01*
X95577800Y-38124000D02*
X95277800Y-38124000D01*
G75*
G02*
X95127800Y-37974000I0J150000D01*
G01*
X95127800Y-36324000D01*
G75*
G02*
X95277800Y-36174000I150000J0D01*
G01*
X95577800Y-36174000D01*
G75*
G02*
X95727800Y-36324000I0J-150000D01*
G01*
X95727800Y-37974000D01*
G75*
G02*
X95577800Y-38124000I-150000J0D01*
G01*
G37*
G36*
G01*
X94307800Y-38124000D02*
X94007800Y-38124000D01*
G75*
G02*
X93857800Y-37974000I0J150000D01*
G01*
X93857800Y-36324000D01*
G75*
G02*
X94007800Y-36174000I150000J0D01*
G01*
X94307800Y-36174000D01*
G75*
G02*
X94457800Y-36324000I0J-150000D01*
G01*
X94457800Y-37974000D01*
G75*
G02*
X94307800Y-38124000I-150000J0D01*
G01*
G37*
G36*
G01*
X93037800Y-38124000D02*
X92737800Y-38124000D01*
G75*
G02*
X92587800Y-37974000I0J150000D01*
G01*
X92587800Y-36324000D01*
G75*
G02*
X92737800Y-36174000I150000J0D01*
G01*
X93037800Y-36174000D01*
G75*
G02*
X93187800Y-36324000I0J-150000D01*
G01*
X93187800Y-37974000D01*
G75*
G02*
X93037800Y-38124000I-150000J0D01*
G01*
G37*
%TD*%
D30*
%TO.C,U10*%
X41976000Y-66212540D03*
X43876000Y-66212540D03*
X43876000Y-68412540D03*
X42926000Y-68412540D03*
X41976000Y-68412540D03*
%TD*%
%TO.C,U11*%
X51628000Y-71077000D03*
X52578000Y-71077000D03*
X53528000Y-71077000D03*
X53528000Y-68877000D03*
X51628000Y-68877000D03*
%TD*%
%TO.C,U12*%
X58635900Y-68838900D03*
X57685900Y-68838900D03*
X59585900Y-68838900D03*
X59585900Y-71038900D03*
X58635900Y-71038900D03*
X57685900Y-71038900D03*
%TD*%
D31*
%TO.C,Y1*%
X104666800Y-71939000D03*
X100666800Y-71939000D03*
X100666800Y-69539000D03*
X104666800Y-69539000D03*
%TD*%
D23*
%TO.C,D8*%
X44577000Y-22905000D03*
X44577000Y-31705000D03*
%TD*%
%TO.C,D1*%
G36*
G01*
X135336800Y-69295000D02*
X135336800Y-69770000D01*
G75*
G02*
X135099300Y-70007500I-237500J0D01*
G01*
X134524300Y-70007500D01*
G75*
G02*
X134286800Y-69770000I0J237500D01*
G01*
X134286800Y-69295000D01*
G75*
G02*
X134524300Y-69057500I237500J0D01*
G01*
X135099300Y-69057500D01*
G75*
G02*
X135336800Y-69295000I0J-237500D01*
G01*
G37*
G36*
G01*
X137086800Y-69295000D02*
X137086800Y-69770000D01*
G75*
G02*
X136849300Y-70007500I-237500J0D01*
G01*
X136274300Y-70007500D01*
G75*
G02*
X136036800Y-69770000I0J237500D01*
G01*
X136036800Y-69295000D01*
G75*
G02*
X136274300Y-69057500I237500J0D01*
G01*
X136849300Y-69057500D01*
G75*
G02*
X137086800Y-69295000I0J-237500D01*
G01*
G37*
%TD*%
%TO.C,D2*%
G36*
G01*
X137086800Y-73422500D02*
X137086800Y-73897500D01*
G75*
G02*
X136849300Y-74135000I-237500J0D01*
G01*
X136274300Y-74135000D01*
G75*
G02*
X136036800Y-73897500I0J237500D01*
G01*
X136036800Y-73422500D01*
G75*
G02*
X136274300Y-73185000I237500J0D01*
G01*
X136849300Y-73185000D01*
G75*
G02*
X137086800Y-73422500I0J-237500D01*
G01*
G37*
G36*
G01*
X135336800Y-73422500D02*
X135336800Y-73897500D01*
G75*
G02*
X135099300Y-74135000I-237500J0D01*
G01*
X134524300Y-74135000D01*
G75*
G02*
X134286800Y-73897500I0J237500D01*
G01*
X134286800Y-73422500D01*
G75*
G02*
X134524300Y-73185000I237500J0D01*
G01*
X135099300Y-73185000D01*
G75*
G02*
X135336800Y-73422500I0J-237500D01*
G01*
G37*
%TD*%
%TO.C,D3*%
G36*
G01*
X135336800Y-71327000D02*
X135336800Y-71802000D01*
G75*
G02*
X135099300Y-72039500I-237500J0D01*
G01*
X134524300Y-72039500D01*
G75*
G02*
X134286800Y-71802000I0J237500D01*
G01*
X134286800Y-71327000D01*
G75*
G02*
X134524300Y-71089500I237500J0D01*
G01*
X135099300Y-71089500D01*
G75*
G02*
X135336800Y-71327000I0J-237500D01*
G01*
G37*
G36*
G01*
X137086800Y-71327000D02*
X137086800Y-71802000D01*
G75*
G02*
X136849300Y-72039500I-237500J0D01*
G01*
X136274300Y-72039500D01*
G75*
G02*
X136036800Y-71802000I0J237500D01*
G01*
X136036800Y-71327000D01*
G75*
G02*
X136274300Y-71089500I237500J0D01*
G01*
X136849300Y-71089500D01*
G75*
G02*
X137086800Y-71327000I0J-237500D01*
G01*
G37*
%TD*%
%TO.C,D4*%
G36*
G01*
X136845500Y-54690000D02*
X136845500Y-55165000D01*
G75*
G02*
X136608000Y-55402500I-237500J0D01*
G01*
X136033000Y-55402500D01*
G75*
G02*
X135795500Y-55165000I0J237500D01*
G01*
X135795500Y-54690000D01*
G75*
G02*
X136033000Y-54452500I237500J0D01*
G01*
X136608000Y-54452500D01*
G75*
G02*
X136845500Y-54690000I0J-237500D01*
G01*
G37*
G36*
G01*
X135095500Y-54690000D02*
X135095500Y-55165000D01*
G75*
G02*
X134858000Y-55402500I-237500J0D01*
G01*
X134283000Y-55402500D01*
G75*
G02*
X134045500Y-55165000I0J237500D01*
G01*
X134045500Y-54690000D01*
G75*
G02*
X134283000Y-54452500I237500J0D01*
G01*
X134858000Y-54452500D01*
G75*
G02*
X135095500Y-54690000I0J-237500D01*
G01*
G37*
%TD*%
%TO.C,D9*%
G36*
G01*
X36607000Y-40402500D02*
X36607000Y-40877500D01*
G75*
G02*
X36369500Y-41115000I-237500J0D01*
G01*
X35794500Y-41115000D01*
G75*
G02*
X35557000Y-40877500I0J237500D01*
G01*
X35557000Y-40402500D01*
G75*
G02*
X35794500Y-40165000I237500J0D01*
G01*
X36369500Y-40165000D01*
G75*
G02*
X36607000Y-40402500I0J-237500D01*
G01*
G37*
G36*
G01*
X38357000Y-40402500D02*
X38357000Y-40877500D01*
G75*
G02*
X38119500Y-41115000I-237500J0D01*
G01*
X37544500Y-41115000D01*
G75*
G02*
X37307000Y-40877500I0J237500D01*
G01*
X37307000Y-40402500D01*
G75*
G02*
X37544500Y-40165000I237500J0D01*
G01*
X38119500Y-40165000D01*
G75*
G02*
X38357000Y-40402500I0J-237500D01*
G01*
G37*
%TD*%
%TO.C,C52*%
G36*
G01*
X91220300Y-39246000D02*
X90745300Y-39246000D01*
G75*
G02*
X90507800Y-39008500I0J237500D01*
G01*
X90507800Y-38433500D01*
G75*
G02*
X90745300Y-38196000I237500J0D01*
G01*
X91220300Y-38196000D01*
G75*
G02*
X91457800Y-38433500I0J-237500D01*
G01*
X91457800Y-39008500D01*
G75*
G02*
X91220300Y-39246000I-237500J0D01*
G01*
G37*
G36*
G01*
X91220300Y-37496000D02*
X90745300Y-37496000D01*
G75*
G02*
X90507800Y-37258500I0J237500D01*
G01*
X90507800Y-36683500D01*
G75*
G02*
X90745300Y-36446000I237500J0D01*
G01*
X91220300Y-36446000D01*
G75*
G02*
X91457800Y-36683500I0J-237500D01*
G01*
X91457800Y-37258500D01*
G75*
G02*
X91220300Y-37496000I-237500J0D01*
G01*
G37*
%TD*%
%TO.C,C53*%
G36*
G01*
X65312300Y-37242000D02*
X64837300Y-37242000D01*
G75*
G02*
X64599800Y-37004500I0J237500D01*
G01*
X64599800Y-36429500D01*
G75*
G02*
X64837300Y-36192000I237500J0D01*
G01*
X65312300Y-36192000D01*
G75*
G02*
X65549800Y-36429500I0J-237500D01*
G01*
X65549800Y-37004500D01*
G75*
G02*
X65312300Y-37242000I-237500J0D01*
G01*
G37*
G36*
G01*
X65312300Y-38992000D02*
X64837300Y-38992000D01*
G75*
G02*
X64599800Y-38754500I0J237500D01*
G01*
X64599800Y-38179500D01*
G75*
G02*
X64837300Y-37942000I237500J0D01*
G01*
X65312300Y-37942000D01*
G75*
G02*
X65549800Y-38179500I0J-237500D01*
G01*
X65549800Y-38754500D01*
G75*
G02*
X65312300Y-38992000I-237500J0D01*
G01*
G37*
%TD*%
M02*
