M48
; DRILL file {KiCad 5.1.6-c6e7f7d~86~ubuntu18.04.1} date Tue May 26 14:20:05 2020
; FORMAT={-:-/ absolute / inch / decimal}
; #@! TF.CreationDate,2020-05-26T14:20:05+02:00
; #@! TF.GenerationSoftware,Kicad,Pcbnew,5.1.6-c6e7f7d~86~ubuntu18.04.1
; #@! TF.FileFunction,Plated,1,4,PTH
FMAT,2
INCH
T1C0.0118
T2C0.0157
T3C0.0181
T4C0.0197
T5C0.0256
T6C0.0472
T7C0.1260
%
G90
G05
T1
X1.415Y-1.965
X1.415Y-2.025
X1.459Y-1.996
X1.505Y-1.965
X1.505Y-2.025
X1.55Y-1.995
X1.57Y-2.475
X1.5725Y-2.7175
X1.595Y-1.965
X1.595Y-2.025
X1.6Y-2.475
X1.6Y-2.505
X1.6081Y-2.2806
X1.61Y-2.75
X1.61Y-2.78
X1.61Y-2.81
X1.6275Y-2.6575
X1.67Y-2.155
X1.67Y-2.295
X1.835Y-2.675
X1.8501Y-2.3046
X1.91Y-2.73
X1.945Y-1.375
X1.955Y-1.7
X1.96Y-2.235
X1.975Y-1.375
X1.975Y-2.54
X2.005Y-1.375
X2.06Y-1.14
X2.075Y-2.76
X2.09Y-1.14
X2.1136Y-2.2736
X2.12Y-1.14
X2.145Y-2.87
X2.155Y-2.75
X2.16Y-2.84
X2.175Y-2.15
X2.175Y-2.29
X2.195Y-2.01
X2.205Y-1.61
X2.31Y-2.84
X2.33Y-2.595
X2.343Y-1.665
X2.346Y-1.388
X2.347Y-1.594
X2.37Y-2.3075
X2.37Y-2.3425
X2.37Y-2.3775
X2.38Y-1.52
X2.381Y-1.568
X2.435Y-1.655
X2.489Y-1.547
X2.49Y-2.69
X2.532Y-1.41
X2.532Y-1.54
X2.56Y-2.47
X2.56Y-2.53
X2.58Y-1.16
X2.59Y-2.5
X2.62Y-2.47
X2.62Y-2.53
X2.64Y-2.255
X2.682Y-1.71
X2.712Y-0.99
X2.712Y-1.24
X2.852Y-1.642
X2.8545Y-2.095
X2.879Y-1.544
X2.91Y-1.285
X2.98Y-1.165
X2.982Y-2.0325
X2.982Y-2.3575
X3.01Y-1.165
X3.011Y-1.405
X3.04Y-1.165
X3.062Y-2.3525
X3.0695Y-2.0325
X3.126Y-2.336
X3.157Y-2.01
X3.167Y-1.579
X3.218Y-1.478
X3.332Y-2.0775
X3.372Y-1.387
X3.409Y-1.542
X3.416Y-1.4925
X3.43Y-2.085
X3.433Y-1.768
X3.456Y-1.58
X3.4595Y-2.4225
X3.4795Y-2.26
X3.497Y-2.1325
X3.4995Y-1.915
X3.509Y-1.549
X3.532Y-2.4225
X3.542Y-1.55
X3.542Y-2.09
X3.572Y-1.41
X3.59Y-1.1625
X3.59Y-2.09
X3.631Y-2.145
X3.642Y-2.585
X3.642Y-2.655
X3.6634Y-1.7936
X3.694Y-1.785
X3.694Y-2.088
X3.702Y-1.71
X3.7095Y-2.5209
X3.71Y-2.4717
X3.732Y-0.97
X3.732Y-1.24
X3.737Y-2.445
X3.742Y-2.4963
X3.7697Y-2.5425
X3.778Y-1.938
X3.782Y-1.976
X3.804Y-2.002
X3.804Y-2.113
X3.805Y-2.15
X3.805Y-2.24
X3.817Y-2.655
X3.828Y-2.028
X3.837Y-2.58
X3.842Y-1.76
X3.842Y-2.715
X3.8609Y-1.5641
X3.8675Y-1.6925
X3.922Y-1.76
X3.932Y-1.92
X3.94Y-2.38
X3.957Y-2.065
X3.982Y-2.4988
X3.9845Y-2.4496
X3.997Y-1.76
X4.006Y-1.924
X4.0118Y-2.0882
X4.012Y-2.425
X4.012Y-2.4742
X4.0355Y-2.1119
X4.072Y-1.76
X4.09Y-2.252
X4.096Y-2.114
X4.117Y-2.685
X4.134Y-1.836
X4.171Y-1.832
X4.242Y-2.865
X4.2595Y-2.7125
X4.312Y-2.875
X4.327Y-2.665
X4.342Y-2.715
X4.377Y-2.875
X4.447Y-2.875
X4.4834Y-2.7606
X4.5045Y-1.57
X4.517Y-2.875
X4.532Y-2.5018
X4.567Y-2.575
X4.5695Y-2.0525
X4.607Y-1.66
X4.667Y-1.725
X4.707Y-2.025
X4.712Y-2.1
X4.716Y-1.98
X4.7276Y-0.7969
X4.73Y-2.572
X4.788Y-2.42
X4.837Y-2.335
X4.8575Y-0.76
X4.945Y-2.2883
X4.945Y-2.3217
X4.9495Y-0.795
X5.032Y-1.57
X5.057Y-3.245
X5.0595Y-3.3175
X5.0595Y-3.3925
X5.0595Y-3.4725
X5.0895Y-3.153
X5.154Y-1.886
X5.178Y-2.648
X5.2145Y-3.427
X5.215Y-2.9825
X5.228Y-2.66
X5.2425Y-2.435
X5.246Y-1.924
X5.275Y-2.365
X5.3925Y-2.98
X5.4255Y-2.162
X5.432Y-2.7375
X5.432Y-2.8175
X5.432Y-2.9
T2
X5.286Y-1.384
X5.286Y-1.42
X5.286Y-1.456
X5.288Y-1.042
X5.288Y-1.078
X5.288Y-1.114
X5.328Y-1.384
X5.328Y-1.42
X5.328Y-1.456
X5.33Y-1.042
X5.33Y-1.078
X5.33Y-1.114
X5.368Y-1.384
X5.368Y-1.42
X5.368Y-1.456
X5.37Y-1.042
X5.37Y-1.078
X5.37Y-1.114
T3
X5.2003Y-1.0756
X5.2003Y-1.4204
T4
X5.2205Y-0.8268
X5.2481Y-0.76
X5.2481Y-0.8936
X5.315Y-0.7323
X5.315Y-0.9213
X5.3818Y-0.76
X5.3818Y-0.8936
X5.4094Y-0.8268
X1.3622Y-3.622
X1.3899Y-3.5552
X1.3899Y-3.6889
X1.4567Y-3.5276
X1.4567Y-3.7165
X1.5235Y-3.5552
X1.5235Y-3.6889
X1.5512Y-3.622
X5.2205Y-3.622
X5.2481Y-3.5552
X5.2481Y-3.6889
X5.315Y-3.5276
X5.315Y-3.7165
X5.3818Y-3.5552
X5.3818Y-3.6889
X5.4094Y-3.622
X1.3622Y-0.8268
X1.3899Y-0.76
X1.3899Y-0.8936
X1.4567Y-0.7323
X1.4567Y-0.9213
X1.5235Y-0.76
X1.5235Y-0.8936
X1.5512Y-0.8268
T5
X5.298Y-1.802
X5.298Y-1.852
X5.298Y-1.902
X5.298Y-1.952
X5.298Y-2.002
X5.348Y-1.802
X5.348Y-1.852
X5.348Y-1.902
X5.348Y-1.952
X5.348Y-2.002
T6
X3.422Y-0.79
X3.622Y-0.79
X3.822Y-0.79
X4.022Y-0.79
X2.412Y-0.79
X2.612Y-0.79
X2.812Y-0.79
X3.012Y-0.79
X1.46Y-1.165
X1.46Y-1.365
T7
X1.4567Y-3.622
X1.4567Y-0.8268
X5.315Y-0.8268
X5.315Y-3.622
T0
M30
